<?xml version="1.0" encoding="UTF-8"?>
<svg width="125px" height="125.464684px" viewBox="0 0 125 125.464684" version="1.1" xmlns="http://www.w3.org/2000/svg" xmlns:xlink="http://www.w3.org/1999/xlink">
    <title>logo</title>
    <g id="Page-1" stroke="none" stroke-width="1" fill="none" fill-rule="evenodd">
        <g id="Homepage--hover" transform="translate(-651.000000, -1076.000000)">
            <g id="recent-projects" transform="translate(490.000000, 695.000000)">
                <g id="koopwebsite" transform="translate(0.000000, 341.000000)">
                    <g id="logo" transform="translate(161.000000, 40.000000)">
                        <ellipse id="Oval" fill="#FFFFFF" cx="62.5" cy="62.732342" rx="62.5" ry="62.732342"></ellipse>
                        <g id="Group-3" transform="translate(62.500000, 62.328336) rotate(162.000000) translate(-62.500000, -62.328336) translate(25.000000, 31.000000)" fill-rule="nonzero">
                            <path d="M61.7684554,0.246320784 L2.78246586,0 C1.32032405,-0.00608235388 0.130074658,1.17426875 0.123969437,2.63641073 C0.12396205,2.63818012 0.123956436,2.63994951 0.123952595,2.6417189 L0,59.7460886 C-0.00316275975,61.2061665 1.17634138,62.3931804 2.63641068,62.3992766 L61.6330164,62.6456188 L61.7684554,0.246320784 Z" id="path1450" fill="#27459C"></path>
                            <path d="M26.5204752,46.6560415 C27.6028696,46.6560415 28.5316672,47.0436498 29.3068956,47.8188779 C30.082124,48.5941068 30.4697324,49.5229037 30.4697324,50.6052986 C30.4697324,51.7169471 30.082124,52.6603713 29.3068956,53.4355994 C28.5316672,54.2108283 27.6028696,54.5984366 26.5204752,54.5984366 C25.4088269,54.5984366 24.4654026,54.2108283 23.6901742,53.4355994 C22.9149458,52.6603713 22.5273373,51.7169471 22.5273373,50.6052986 C22.5273373,49.5229037 22.9149458,48.5941068 23.6901742,47.8188779 C24.4654026,47.0436498 25.4088269,46.6560415 26.5204752,46.6560415 Z M27.0492577,32.1758984 C28.1316521,32.1758984 29.0604496,32.5204395 29.835678,33.2095314 C30.6109065,33.8986233 30.9985149,34.7242211 30.9985149,35.6863496 C30.9985149,36.6744815 30.6109065,37.5130802 29.835678,38.202173 C29.0604496,38.8912649 28.1316521,39.2358051 27.0492577,39.2358051 C25.9376094,39.2358051 24.9941851,38.8912649 24.2189567,38.202173 C23.4437282,37.5130802 23.0561198,36.6744815 23.0561198,35.6863496 C23.0561198,34.7242211 23.4437282,33.8986233 24.2189567,33.2095314 C24.9941851,32.5204395 25.9376094,32.1758984 27.0492577,32.1758984 Z M38.3787782,16.0446751 C40.4599403,18.726829 42.1168406,21.0257835 43.3495289,22.9416083 C44.5822172,24.8574323 45.6067739,27.1121759 46.4232298,29.705907 C47.2396857,32.2996382 47.6479075,35.247016 47.6479075,38.5481278 C47.6479075,41.8492405 47.2396857,44.7966183 46.4232298,47.3903495 C45.6067739,49.9840807 44.5822172,52.2388243 43.3495289,54.1546482 C42.1168406,56.0704722 40.4599403,58.3694266 38.3787782,61.0515805 L33.528094,58.045226 C35.8013634,55.0093814 37.4502593,51.9956881 38.4748314,49.0040544 C39.4994035,46.0124216 40.0116819,42.5271477 40.0116819,38.5481278 C40.0116819,34.5691088 39.4994035,31.0838349 38.4748314,28.0922021 C37.4502593,25.1005684 35.8013634,22.0868751 33.528094,19.0510305 L38.3787782,16.0446751 Z" id=":)" fill="#F5F5F5" transform="translate(35.087622, 38.548128) scale(-1, 1) rotate(-111.000000) translate(-35.087622, -38.548128) "></path>
                            <path d="M61.9105333,0.0151811642 L61.7684554,62.5967792 L72.2117153,62.6566722 C73.6738458,62.665007 74.8659296,61.4865083 74.8743088,60.0243778 C74.8743267,60.0212564 74.8743391,60.0181342 74.8743459,60.0150128 L75,2.72648628 C75.0031927,1.26780806 73.8258969,0.0813563175 72.3672381,0.073255957 L61.9105333,0.0151811642 Z" id="path1452" fill="#141B33"></path>
                        </g>
                    </g>
                </g>
            </g>
        </g>
    </g>
</svg>