<?xml version="1.0" encoding="UTF-8"?>
<svg width="30px" height="30px" viewBox="0 0 30 30" version="1.1" xmlns="http://www.w3.org/2000/svg" xmlns:xlink="http://www.w3.org/1999/xlink">
    <title>git-svgrepo-com</title>
    <g id="Page-1" stroke="none" stroke-width="1" fill="none" fill-rule="evenodd">
        <g id="Homepage" transform="translate(-1152.000000, -672.000000)" fill-rule="nonzero">
            <g id="skills" transform="translate(490.000000, 545.000000)">
                <g transform="translate(640.000000, 48.000000)" id="languages">
                    <g id="git-svgrepo-com" transform="translate(22.000000, 79.000000)">
                        <path d="M0.627171989,16.5141576 C-0.20905733,15.6779069 -0.20905733,14.3221199 0.627171989,13.4858692 L13.4858692,0.627171989 C14.3221199,-0.20905733 15.6779069,-0.20905733 16.5141576,0.627171989 L29.3728119,13.4858692 C30.2090627,14.3221199 30.2090627,15.6779069 29.3728119,16.5141576 L16.5141576,29.3728119 C15.6779069,30.2090627 14.3221199,30.2090627 13.4858692,29.3728119 L0.627171989,16.5141576 Z" id="Path" fill="#EE513B"></path>
                        <path d="M10.8738311,3.28020293 L9.57172283,4.58235409 L12.934833,7.94547495 C12.7987614,8.23735378 12.7227971,8.5628755 12.7227971,8.90615081 C12.7227971,9.88072311 13.335119,10.7122596 14.1960127,11.0370099 L14.1960127,19.2640886 C13.335119,19.5888389 12.7227971,20.4203754 12.7227971,21.3949477 C12.7227971,22.6523774 13.7421551,23.6717354 14.9995848,23.6717354 C16.2570145,23.6717354 17.2763726,22.6523774 17.2763726,21.3949477 C17.2763726,20.5114469 16.7731221,19.7453748 16.0375857,19.3680173 L16.0375857,11.0482599 L19.25241,14.2630842 C19.1229814,14.5490487 19.0509813,14.8665133 19.0509813,15.2007993 C19.0509813,16.458229 20.0703393,17.477587 21.327769,17.477587 C22.5851987,17.477587 23.6045568,16.458229 23.6045568,15.2007993 C23.6045568,13.9433696 22.5851987,12.9240115 21.327769,12.9240115 C21.083376,12.9240115 20.84809,12.9624759 20.6273756,13.0337259 L17.1746939,9.58104427 C17.2408011,9.36782979 17.2763726,9.1411153 17.2763726,8.90615081 C17.2763726,7.64869969 16.2570145,6.62934163 14.9995848,6.62934163 C14.7646203,6.62934163 14.538013,6.66494524 14.3246914,6.73104172 L10.8738311,3.28020293 Z" id="Path" fill="#FFFFFF"></path>
                    </g>
                </g>
            </g>
        </g>
    </g>
</svg>