<?xml version="1.0" encoding="UTF-8"?>
<svg width="29.9998888px" height="30px" viewBox="0 0 29.9998888 30" version="1.1" xmlns="http://www.w3.org/2000/svg" xmlns:xlink="http://www.w3.org/1999/xlink">
    <title>github-142-svgrepo-com(1)</title>
    <g id="Page-1" stroke="none" stroke-width="1" fill="none" fill-rule="evenodd">
        <g id="Homepage" transform="translate(-1206.000000, -672.000000)" fill="#000000" fill-rule="nonzero">
            <g id="skills" transform="translate(490.000000, 545.000000)">
                <g transform="translate(640.000000, 48.000000)" id="languages">
                    <g id="github-142-svgrepo-com(1)" transform="translate(76.000000, 79.000000)">
                        <path d="M14.9999444,0 C23.2844137,0 29.9998888,6.88497448 29.9998888,15.379443 C29.9998888,22.1729178 25.7069047,27.9358965 19.7504268,29.9713889 C18.9899296,30.1228884 18.7199306,29.6428901 18.7199306,29.2333917 C18.7199306,28.7263935 18.7379306,27.0703997 18.7379306,25.0124073 C18.7379306,23.5784126 18.2579323,22.6424161 17.7194343,22.1654178 C21.0599219,21.7844193 24.5699089,20.4839241 24.5699089,14.576946 C24.5699089,12.8969522 23.9879111,11.5259573 23.0249147,10.4489613 C23.1809141,10.0604627 23.6954122,8.49596851 22.8779152,6.37797636 C22.8779152,6.37797636 21.6209199,5.96547789 18.7574305,7.95447052 C17.5589349,7.61397178 16.2749397,7.44297241 14.9999444,7.43697244 C13.7249491,7.44297241 12.4424539,7.61397178 11.2454583,7.95447052 C8.37896894,5.96547789 7.11897361,6.37797636 7.11897361,6.37797636 C6.30447663,8.49596851 6.81897473,10.0604627 6.97347415,10.4489613 C6.01497771,11.5259573 5.42847988,12.8969522 5.42847988,14.576946 C5.42847988,20.4689241 8.9309669,21.7889192 12.2624546,22.1774178 C11.8334561,22.5614164 11.4449576,23.2394139 11.3099581,24.2339102 C10.4549612,24.6269087 8.2829693,25.3064062 6.94497426,22.9559149 C6.94497426,22.9559149 6.1514772,21.4784204 4.64548278,21.3704208 C4.64548278,21.3704208 3.1829882,21.3509209 4.54348316,22.3049173 C4.54348316,22.3049173 5.52597952,22.7774156 6.20847699,24.554909 C6.20847699,24.554909 7.08897373,27.2998988 11.2619583,26.3699023 C11.2694582,27.6553975 11.2829582,28.867393 11.2829582,29.2333917 C11.2829582,29.6398901 11.0069592,30.1153884 10.258462,29.9728889 C4.29748407,27.9403964 0,22.1744178 0,15.379443 C0,6.88497448 6.7169751,0 14.9999444,0" id="github-[#142]"></path>
                    </g>
                </g>
            </g>
        </g>
    </g>
</svg>