<?xml version="1.0" encoding="UTF-8"?>
<svg width="30.4018119px" height="30px" viewBox="0 0 30.4018119 30" version="1.1" xmlns="http://www.w3.org/2000/svg" xmlns:xlink="http://www.w3.org/1999/xlink">
    <title>mysql-svgrepo-com</title>
    <g id="Page-1" stroke="none" stroke-width="1" fill="none" fill-rule="evenodd">
        <g id="Homepage" transform="translate(-1314.000000, -836.000000)">
            <g id="skills" transform="translate(490.000000, 545.000000)">
                <g transform="translate(640.000000, 212.000000)" id="languages">
                    <g id="mysql-svgrepo-com" transform="translate(184.000000, 79.000000)">
                        <path d="M7.26561827,4.97267245 C6.97672067,4.97177201 6.68893067,5.00843315 6.40948967,5.08175021 L6.40948967,5.11992155 L6.45093284,5.11992155 C6.65107114,5.4220365 6.87421754,5.70826186 7.11838596,5.97605014 C7.28633985,6.3097767 7.43248155,6.64241265 7.59934483,6.97613921 C7.62006641,6.95541763 7.64078799,6.93360543 7.64078799,6.93360543 C7.95569626,6.68363103 8.12038617,6.28961041 8.07703186,5.88989198 C7.98569622,5.74905618 7.90196308,5.60343332 7.82619164,5.45364811 C7.70077152,5.24534166 7.42920972,5.14064313 7.26234644,4.97377985" id="Path" fill="#5D87A1"></path>
                        <path d="M27.981749,23.1727835 C26.6060344,23.0761457 25.2255856,23.2754778 23.9334059,23.7573502 C23.6204009,23.8827703 23.1209017,23.8827703 23.0772773,24.2786617 C23.2452312,24.4455249 23.2648622,24.7149055 23.4120945,24.9472054 C23.6977386,25.4308367 24.0648668,25.8614282 24.4972511,26.2199469 C24.933495,26.5536734 25.3697388,26.8863094 25.8332479,27.1785928 C26.6457521,27.6813638 27.5651361,27.9725566 28.3569187,28.4731465 C28.817156,28.7654299 29.2752121,29.1405996 29.7354493,29.4546952 C29.9644774,29.6215584 30.1095285,29.890939 30.4018119,30 L30.4018119,29.9367446 C30.3159372,29.7049769 30.2097344,29.4812576 30.0844444,29.2682009 C29.876138,29.0609851 29.6667409,28.8723096 29.4573439,28.6640032 C28.8455872,27.855086 28.1136838,27.1445145 27.2870306,26.5569453 C26.6184869,26.096708 25.1570699,25.4663356 24.8876893,24.7029088 L24.8451556,24.660375 C25.3343442,24.5910608 25.816451,24.4786544 26.2858509,24.3244673 C26.9947472,24.1368824 27.6414788,24.1794162 28.3710966,23.9972844 C28.7059138,23.9133074 29.3112022,23.705001 29.3112022,23.705001 L29.3112022,23.3778181 C28.9382137,23.0070108 28.6710143,22.5107834 28.2783948,22.1606977 C27.2102493,21.2282877 26.0719268,20.3794681 24.8735114,19.6217584 C24.2333235,19.2084173 23.407732,18.9423085 22.726101,18.5900416 C22.4796232,18.4657121 22.0717352,18.404638 21.9223217,18.1974221 C21.5833149,17.7000756 21.2995343,17.1672557 21.0760085,16.6084038 C20.4783544,15.4741698 19.8992407,14.2166968 19.3844729,13.0170262 C19.0797825,12.213047 18.7283707,11.4275598 18.3320346,10.6645811 C16.4194725,7.41288959 13.6588404,4.74235601 10.3455,2.9387022 C9.50947588,2.53403586 8.62062421,2.24913338 7.70513396,2.0923891 C7.18818498,2.0705769 6.67341721,2.03022435 6.15755884,2.01059337 C5.824555,1.79243314 5.50781096,1.55041009 5.20981903,1.28642855 C4.02977937,0.539360924 0.997884479,-1.06601651 0.12975918,1.05958174 C-0.426451753,2.40212224 0.956441312,3.72175995 1.43085652,4.40339099 C1.83088435,4.8840056 2.18334766,5.40229103 2.48329485,5.95096612 C2.62834594,6.30214243 2.66978911,6.67404033 2.81047775,7.04157579 C3.11321441,7.98506871 3.47267992,8.90940858 3.8869095,9.80954314 C4.10845813,10.2544305 4.36367659,10.6817391 4.65033627,11.0877377 C4.81719955,11.3156751 5.1051205,11.4149206 5.16728526,11.7911809 C4.93856842,12.2827941 4.77856669,12.8035337 4.69177944,13.338756 C3.96369841,15.6380408 4.17908168,18.1324066 5.29052415,20.2728523 C5.61770705,20.7887107 6.40512723,21.9240354 7.45756557,21.4899727 C8.3856744,21.1191654 8.17954917,19.9423976 8.44783915,18.9117715 C8.50891329,18.6620218 8.46856073,18.4984304 8.59179963,18.3337483 L8.59179963,18.5344205 C8.59179963,18.5344205 9.1185641,19.6915574 9.38031042,20.279396 C10.0921312,21.3580144 10.9764065,22.3122949 11.9977736,23.104075 C12.4017789,23.4568 12.7272532,23.8903941 12.9531477,24.3768165 L12.9531477,24.7508956 L13.418838,24.7508956 C13.3992021,24.4094105 13.2285093,24.0944083 12.9531477,23.8914952 C12.5712618,23.4984262 12.2215094,23.0753681 11.907253,22.626388 C11.0535791,21.4105847 10.300732,20.1270243 9.65623467,18.7885326 C9.32905177,18.1341668 9.05312752,17.4165456 8.7913812,16.7632704 C8.67141413,16.5113396 8.67141413,16.1307168 8.46965134,15.9998436 C8.09709777,16.4406347 7.77381372,16.9208066 7.50555239,17.4318141 C7.17988912,18.4646712 6.99034176,19.5355955 6.94170719,20.617485 C6.86209269,20.6392972 6.90135464,20.617485 6.86209269,20.6589282 C6.21972359,20.4898837 5.99832983,19.7951653 5.75621448,19.2062361 C5.13076146,17.3898772 5.06766697,15.4271063 5.57517327,13.5743277 C5.71477131,13.1326308 6.32005968,11.7410129 6.07794433,11.3189469 C5.95688666,10.916512 5.55445169,10.6863933 5.33414854,10.3690259 C5.05290518,9.94207348 4.81089269,9.49053584 4.61107432,9.01994174 C4.13229668,7.84644573 3.89018133,6.53771412 3.36886991,5.35549324 C3.08029275,4.78691656 2.74428523,4.24368616 2.3644184,3.73157543 C1.94422394,3.22000974 1.57356982,2.66968879 1.25744958,2.08802666 C1.15711349,1.8557268 1.01642484,1.47619463 1.17674447,1.22317319 C1.19897491,1.07876919 1.31425361,0.966606125 1.45921237,0.948339551 C1.71877747,0.7171303 2.46366388,1.01159491 2.72431959,1.13810563 C3.42487779,1.4138978 4.09216871,1.76766442 4.71359163,2.19272519 C4.99496893,2.40430346 5.65805961,2.93979281 5.65805961,2.93979281 L5.85436935,2.93979281 C6.52182247,3.0848439 7.27216192,2.98014537 7.90035309,3.16882084 C8.95805486,3.52140587 9.96744885,4.00503566 10.9049827,4.60842561 C13.6682364,6.36992568 15.9146187,8.8330807 17.4148319,11.7464659 C17.6656721,12.2252436 17.7714612,12.6647593 18.0004893,13.1642585 C18.4367331,14.1894316 18.982038,15.2364169 19.4182818,16.2332341 C19.8031335,17.2194525 20.3008559,18.1578056 20.901511,19.0295573 C21.2134254,19.4658012 22.4665359,19.6970104 23.0303811,19.9260385 C23.5200416,20.0954377 24.0005591,20.2901929 24.4699858,20.5095146 C25.1799727,20.9457585 25.8877784,21.4485296 26.5563221,21.9273072 C26.8889581,22.1781474 27.9326716,22.6994589 27.9959269,23.1171624" id="Path" fill="#00758F"></path>
                    </g>
                </g>
            </g>
        </g>
    </g>
</svg>