<?xml version="1.0" encoding="UTF-8"?>
<svg width="30px" height="30px" viewBox="0 0 30 30" version="1.1" xmlns="http://www.w3.org/2000/svg" xmlns:xlink="http://www.w3.org/1999/xlink">
    <title>slack-svgrepo-com</title>
    <g id="Page-1" stroke="none" stroke-width="1" fill="none" fill-rule="evenodd">
        <g id="Homepage" transform="translate(-1368.000000, -672.000000)" fill-rule="nonzero">
            <g id="skills" transform="translate(490.000000, 545.000000)">
                <g transform="translate(640.000000, 48.000000)" id="languages">
                    <g id="slack-svgrepo-com" transform="translate(238.000000, 79.000000)">
                        <path d="M3.15214286,22.11 C4.89071938,22.1052856 6.29861075,20.6964365 6.30214286,18.9578571 L6.30214286,15.8078571 L3.15214286,15.8078571 C1.41439694,15.811384 0.00589109374,17.2179748 0,18.9557143 C0.00214285714,20.6935714 1.41214286,22.1035714 3.15,22.1057143 L3.15214286,22.11 Z M11.0421429,15.8057143 C9.30356634,15.8104287 7.89567497,17.2192778 7.89214286,18.9578571 L7.89214286,26.85 C7.89642857,28.5878571 9.30642857,29.9957143 11.0421429,30 C12.7798854,29.9952906 14.1874335,28.5877425 14.1921429,26.85 L14.1921429,18.9557143 C14.1874335,17.2179717 12.7798854,15.8104236 11.0421429,15.8057143 Z" id="Shape" fill="#E01E5A"></path>
                        <path d="M7.89214286,3.15214286 C7.89428571,4.89 9.30428571,6.3 11.0421429,6.30214286 L14.1921429,6.30214286 L14.1921429,3.15214286 C14.188616,1.41439694 12.7820252,0.00589109374 11.0442857,0 C9.30654317,0.00470935531 7.89899507,1.41225745 7.89428571,3.15 L7.89214286,3.15214286 Z M14.1921429,11.0421429 C14.1874335,9.30440031 12.7798854,7.89685221 11.0421429,7.89214286 L3.15,7.89214286 C1.41225745,7.89685221 0.00470935531,9.30440031 0,11.0421429 C0.00428571429,12.7821429 1.41428571,14.19 3.15,14.1921429 L11.0442857,14.1921429 C12.7820283,14.1874335 14.1895764,12.7798854 14.1942857,11.0421429 L14.1921429,11.0421429 Z" id="Shape" fill="#36C5F0"></path>
                        <path d="M18.9578571,14.1942857 C20.6955997,14.1895764 22.1031478,12.7820283 22.1078571,11.0442857 L22.1078571,3.15 C22.1031536,1.41309075 20.6969057,0.00588547557 18.96,0 C17.2222575,0.00470935531 15.8147094,1.41225745 15.81,3.15 L15.81,11.0442857 C15.8142857,12.78 17.2221429,14.19 18.96,14.1942857 L18.9578571,14.1942857 Z M26.8478571,7.89214286 C25.1101146,7.89685221 23.7025665,9.30440031 23.6978571,11.0421429 L23.6978571,14.1921429 L26.8478571,14.1921429 C28.5856031,14.188616 29.9941089,12.7820252 30,11.0442857 C29.9952906,9.30654317 28.5877425,7.89899507 26.85,7.89428571 L26.8478571,7.89214286 Z" id="Shape" fill="#2EB67D"></path>
                        <path d="M15.8078571,18.9578571 C15.8121429,20.6957143 17.22,22.1057143 18.9578571,22.1078571 L26.85,22.1078571 C28.5869093,22.1031536 29.9941145,20.6969057 30,18.96 C29.9952906,17.2222575 28.5877425,15.8147094 26.85,15.81 L18.9578571,15.81 C17.2201146,15.8147094 15.8125665,17.2222575 15.8078571,18.96 L15.8078571,18.9578571 Z M22.1078571,26.8478571 C22.1031478,25.1101146 20.6955997,23.7025665 18.9578571,23.6978571 L15.8078571,23.6978571 L15.8078571,26.8478571 C15.8121429,28.5878571 17.22,29.9957143 18.9578571,29.9978571 C20.6955997,29.9931478 22.1031478,28.5855997 22.1078571,26.8478571 L22.1078571,26.8478571 Z" id="Shape" fill="#ECB22E"></path>
                    </g>
                </g>
            </g>
        </g>
    </g>
</svg>