<?xml version="1.0" encoding="UTF-8"?>
<svg width="29.9994375px" height="30px" viewBox="0 0 29.9994375 30" version="1.1" xmlns="http://www.w3.org/2000/svg" xmlns:xlink="http://www.w3.org/1999/xlink">
    <title>wordpress-color-svgrepo-com</title>
    <g id="Page-1" stroke="none" stroke-width="1" fill="none" fill-rule="evenodd">
        <g id="Homepage" transform="translate(-940.000000, -672.000000)" fill="#00759D" fill-rule="nonzero">
            <g id="skills" transform="translate(490.000000, 545.000000)">
                <g transform="translate(320.000000, 48.000000)" id="languages">
                    <g id="wordpress-color-svgrepo-com" transform="translate(130.000000, 79.000000)">
                        <path d="M0,14.99925 C0,20.9365118 3.45004344,26.0675131 8.45354337,28.4984813 L1.29845378,8.89511134 C0.466880621,10.759822 0,12.8242227 0,14.99925 Z M25.1255014,14.2426779 C25.1255014,12.3882796 24.4589308,11.1048262 23.8889233,10.1063761 C23.1286013,8.86979807 22.4151553,7.82353518 22.4151553,6.5878946 C22.4151553,5.20881483 23.4604807,3.9253614 24.9342494,3.9253614 C25.0008125,3.9253614 25.0636257,3.93379937 25.1283138,3.9375493 C22.4601557,1.49251889 18.9041737,0 14.9994375,0 C9.75874702,0 5.14900158,2.68878334 2.46678062,6.76039699 C2.81928526,6.77164741 3.15116467,6.77820978 3.43241814,6.77820978 C5.00087498,6.77820978 7.42996819,6.5878946 7.42996819,6.5878946 C8.23810304,6.54008175 8.33372937,7.72884633 7.5255939,7.82353518 C7.5255939,7.82353518 6.71277164,7.91916152 5.80900983,7.96697437 L11.2709537,24.2140529 L14.5541196,14.3692418 L12.2178403,7.96697437 C11.4097048,7.91916152 10.6437579,7.82353518 10.6437579,7.82353518 C9.83562308,7.77572233 9.93031193,6.54008175 10.7393843,6.5878946 C10.7393843,6.5878946 13.2162903,6.77820978 14.6900589,6.77820978 C16.2585158,6.77820978 18.6876084,6.5878946 18.6876084,6.5878946 C19.4966813,6.54008175 19.5913702,7.72884633 18.7832347,7.82353518 C18.7832347,7.82353518 17.9694743,7.91916152 17.0666506,7.96697437 L22.4873434,24.0903014 L23.9845497,19.0914889 C24.6314332,17.0158378 25.1255014,15.5261314 25.1255014,14.2426779 Z M28.1619145,7.80319119 C28.2266026,8.28132223 28.2631657,8.79320388 28.2631657,9.3453979 C28.2631657,10.8669794 27.9781623,12.5779385 27.122214,14.7182778 L22.5405942,27.9643807 C27.0003375,25.3646607 29.9994375,20.5327256 29.9994375,14.9995313 C29.9994375,12.3913739 29.3328669,9.9397805 28.1619145,7.80319119 Z M15.2628782,16.3113917 L10.7618845,29.3887421 C12.1062761,29.7843722 13.5275439,30 14.9994375,30 C16.7460216,30 18.4213552,29.6981213 19.9804372,29.1496772 C19.9410617,29.0849884 19.9035612,29.0174878 19.8735611,28.9434242 L15.2628782,16.3113917 Z" id="Wordpress"></path>
                    </g>
                </g>
            </g>
        </g>
    </g>
</svg>