<?xml version="1.0" encoding="UTF-8"?>
<svg width="100px" height="100px" viewBox="0 0 100 100" version="1.1" xmlns="http://www.w3.org/2000/svg" xmlns:xlink="http://www.w3.org/1999/xlink">
    <title>logo</title>
    <g id="Page-1" stroke="none" stroke-width="1" fill="none" fill-rule="evenodd">
        <g id="Homepage--hover" transform="translate(-1233.000000, -2009.000000)">
            <g id="older-projects" transform="translate(490.000000, 1931.000000)">
                <g id="meubel-en-slaaphuys" transform="translate(640.000000, 48.000000)">
                    <g id="logo" transform="translate(103.000000, 30.000000)">
                        <circle id="Oval" fill="#FFFFFF" cx="50" cy="50" r="50"></circle>
                        <g id="chair-solid" transform="translate(28.000000, 25.000000)" fill="#564F48" fill-rule="nonzero">
                            <path d="M24.2172542,4.6875 L24.2172542,25 L28.9047542,25 L28.9047542,5.73242188 C31.2387385,7.08007812 32.8110042,9.609375 32.8110042,12.5 L32.8110042,25 L37.4985042,25 L37.4985042,12.5 C37.4985042,5.59570312 31.902801,0 24.9985042,0 L18.7485042,0 C11.8442073,0 6.24850416,5.59570312 6.24850416,12.5 L6.24850416,25 L10.9360042,25 L10.9360042,12.5 C10.9360042,9.609375 12.5082698,7.08007812 14.8422542,5.73242188 L14.8422542,25 L19.5297542,25 L19.5297542,4.6875 L24.2172542,4.6875 Z M4.68600416,28.125 C3.50436354,28.125 2.42037916,28.7890625 1.89303541,29.8535156 L0.330535413,32.9785156 C-0.157745837,33.9453125 -0.0991520867,35.0976562 0.467254163,36.015625 C1.03366041,36.9335938 2.03951979,37.5 3.12350416,37.5 L3.12350416,46.875 C3.12350416,48.6035156 4.51998854,50 6.24850416,50 C7.97701979,50 9.37350416,48.6035156 9.37350416,46.875 L9.37350416,37.5 L34.3735042,37.5 L34.3735042,46.875 C34.3735042,48.6035156 35.7699885,50 37.4985042,50 C39.2270198,50 40.6235042,48.6035156 40.6235042,46.875 L40.6235042,37.5 C41.7074885,37.5 42.7133479,36.9433594 43.2797542,36.015625 C43.8461604,35.0878906 43.9047542,33.9453125 43.4164729,32.9785156 L41.8539729,29.8535156 C41.3266292,28.7890625 40.2426448,28.125 39.0610042,28.125 L4.68600416,28.125 Z" id="Shape"></path>
                        </g>
                    </g>
                </g>
            </g>
        </g>
    </g>
</svg>