<?xml version="1.0" encoding="UTF-8"?>
<svg width="125px" height="125.461255px" viewBox="0 0 125 125.461255" version="1.1" xmlns="http://www.w3.org/2000/svg" xmlns:xlink="http://www.w3.org/1999/xlink">
    <title>logo</title>
    <g id="Page-1" stroke="none" stroke-width="1" fill="none" fill-rule="evenodd">
        <g id="Homepage--hover" transform="translate(-658.000000, -784.000000)">
            <g id="recent-projects" transform="translate(490.000000, 695.000000)">
                <g id="conduction" transform="translate(0.000000, 49.000000)">
                    <g id="logo" transform="translate(168.000000, 40.000000)">
                        <ellipse id="Oval" fill="#4376FC" cx="62.5" cy="62.7306273" rx="62.5" ry="62.7306273"></ellipse>
                        <g id="LogoConduction" transform="translate(30.000000, 25.000000)" fill="#FFFFFF" fill-rule="nonzero">
                            <g id="Group" transform="translate(32.575158, 37.500000) scale(-1, 1) rotate(-180.000000) translate(-32.575158, -37.500000) translate(0.000000, 0.000000)">
                                <path d="M16.2579114,65.8623418 L0,56.7246835 L0,37.1439873 L0,17.5632911 L15.5458861,8.78164557 C24.0901899,3.91613924 31.8037975,0 32.5158228,0 C33.2278481,0 40.8227848,3.91613924 49.4857595,8.78164557 L65.0316456,17.5632911 L65.1503165,37.1439873 L65.1503165,56.7246835 L57.0806962,61.1155063 C52.6898734,63.6075949 45.3322785,67.7610759 40.8227848,70.2531646 L32.3971519,75 L16.2579114,65.8623418 Z M51.2658228,55.7753165 L58.0300633,51.9778481 L58.0300633,37.1439873 L58.0300633,22.3101266 L45.4509494,15.1898734 C38.568038,11.2737342 32.6344937,8.06962025 32.278481,8.18829114 C31.9224684,8.18829114 26.1075949,11.3924051 19.3433544,15.3085443 L7.12025316,22.3101266 L7.12025316,37.1439873 L7.12025316,51.9778481 L19.818038,59.2167722 L32.5158228,66.5743671 L38.4493671,63.1329114 C41.653481,61.2341772 47.4683544,57.9113924 51.2658228,55.7753165 Z" id="Shape"></path>
                                <path d="M23.3781646,51.6218354 L15.3085443,47.2310127 L15.3085443,37.1439873 L15.3085443,27.056962 L23.971519,22.4287975 L32.6344937,17.8006329 L39.9920886,21.835443 C44.0268987,23.971519 47.3496835,26.2262658 47.3496835,26.7009494 C47.3496835,27.1756329 45.6882911,28.4810127 43.6708861,29.4303797 C40.3481013,31.210443 39.7547468,31.210443 37.2626582,29.5490506 C33.5838608,27.1756329 31.8037975,27.1756329 27.2943038,29.7863924 C24.0901899,31.5664557 23.6155063,32.3971519 23.6155063,37.1439873 C23.6155063,41.8908228 24.0901899,42.721519 27.2943038,44.6202532 C31.8037975,47.1123418 33.5838608,47.1123418 37.2626582,44.7389241 C39.7547468,43.0775316 40.3481013,43.0775316 43.6708861,44.8575949 C45.6882911,45.806962 47.3496835,47.1123418 47.3496835,47.5870253 C47.3496835,48.5363924 33.9398734,56.1313291 32.3971519,56.1313291 C31.8037975,56.1313291 27.7689873,54.1139241 23.3781646,51.6218354 Z" id="Path"></path>
                            </g>
                        </g>
                    </g>
                </g>
            </g>
        </g>
    </g>
</svg>