<?xml version="1.0" encoding="UTF-8"?>
<svg width="25.7142857px" height="30px" viewBox="0 0 25.7142857 30" version="1.1" xmlns="http://www.w3.org/2000/svg" xmlns:xlink="http://www.w3.org/1999/xlink">
    <title>css-3-svgrepo-com</title>
    <g id="Page-1" stroke="none" stroke-width="1" fill="none" fill-rule="evenodd">
        <g id="Homepage" transform="translate(-676.000000, -672.000000)" fill-rule="nonzero">
            <g id="skills" transform="translate(490.000000, 545.000000)">
                <g transform="translate(0.000000, 48.000000)" id="languages">
                    <g id="css-3-svgrepo-com" transform="translate(186.000000, 79.000000)">
                        <polygon id="Path" fill="#1172B8" points="2.14285714 26.7857143 0 0 25.7142857 0 23.5714286 26.7857143 12.8571429 30"></polygon>
                        <polygon id="Path" fill="#33AADD" points="23.5714286 2.14285714 12.8571429 2.14285714 12.8571429 28.3928571 21.4285714 25.7142857"></polygon>
                        <polygon id="Path" fill="#FFFFFF" points="16.6071429 15.5357143 5.89285714 15.5357143 5.35714286 11.7857143 13.9285714 9.10714286 5.35714286 9.10714286 4.82142857 5.89285714 21.4285714 5.89285714 20.8928571 9.64285714 13.9285714 12.3214286 20.3571429 12.3214286 19.2857143 22.5 12.8571429 24.6428571 6.42857143 22.5 5.89285714 17.1428571 9.10714286 17.1428571 9.64285714 19.8214286 12.8571429 20.8928571 16.0714286 19.8214286"></polygon>
                    </g>
                </g>
            </g>
        </g>
    </g>
</svg>