<?xml version="1.0" encoding="UTF-8"?>
<svg width="30px" height="22.5005698px" viewBox="0 0 30 22.5005698" version="1.1" xmlns="http://www.w3.org/2000/svg" xmlns:xlink="http://www.w3.org/1999/xlink">
    <title>docker-svgrepo-com</title>
    <g id="Page-1" stroke="none" stroke-width="1" fill="none" fill-rule="evenodd">
        <g id="Homepage" transform="translate(-1152.000000, -840.000000)" fill="#2396ED" fill-rule="nonzero">
            <g id="skills" transform="translate(490.000000, 545.000000)">
                <g transform="translate(640.000000, 212.000000)" id="languages">
                    <g id="docker-svgrepo-com" transform="translate(22.000000, 83.000000)">
                        <path d="M23.1411287,4.75508412 L23.4223836,4.32945159 L23.9136423,4.62758186 L24.1311462,4.78320962 C24.6561555,5.18821678 25.76055,6.22323509 25.9986792,7.94076547 C26.4168116,7.86576415 26.8386941,7.82826348 27.2605765,7.82826348 C28.2618443,7.82826348 28.9349812,8.0607676 29.3174879,8.25389601 L29.5143664,8.3607729 L29.6418687,8.4451494 L30,8.73765457 L29.8762478,9.1126612 C29.683901,9.62676296 29.383367,10.0935498 28.9949822,10.4814354 C28.4512226,11.0420703 27.4949557,11.703957 25.9780539,11.7902086 L25.6442979,11.7995837 L25.366793,11.7995837 C24.6730308,13.6314911 23.7411393,15.6959027 22.1754866,17.5484354 C21.246513,18.6492713 20.1445936,19.5916023 18.9129289,20.3384848 C17.4363358,21.214528 15.8193519,21.8285885 14.1334693,22.1535169 C12.925948,22.387896 11.6996763,22.5041481 10.4715295,22.5004859 C7.75273144,22.5004859 5.35268899,21.9603885 3.87703788,21.0153718 C2.55888956,20.1734819 1.54637165,18.7990826 0.865734611,16.9334246 C0.270085488,15.2286561 -0.0224620485,13.4327569 0.00134432033,11.6270807 C-0.00503119473,11.1486509 0.339261856,10.7374119 0.81135865,10.6595636 L0.938860905,10.6501884 L20.7017105,10.6501884 L20.8742136,10.6370632 L21.1535935,10.6070626 C21.633602,10.5433115 22.3648649,10.400809 22.878624,10.1008037 C22.2636131,9.08266067 22.0892351,7.89201461 22.3761151,6.62449219 C22.4962661,6.09577445 22.6853891,5.58514233 22.9386251,5.10571532 L23.1411287,4.75508412 L23.1411287,4.75508412 Z M5.41831515,7.09512551 L5.49331647,7.10825075 C5.56275266,7.13423243 5.61612642,7.19107202 5.63769403,7.26200347 L5.64894423,7.33700479 L5.64894423,9.80267341 L5.63769403,9.87954977 C5.61573505,9.95089009 5.56159538,10.0078062 5.49144144,10.0333025 L5.41831515,10.0445527 L2.77076831,10.0445527 C2.66951206,10.043195 2.58077995,9.97645627 2.55138943,9.87954977 L2.5382642,9.80454844 L2.5382642,7.33512976 L2.55138943,7.26012843 C2.57284057,7.18807438 2.6270579,7.13038158 2.69764202,7.10450068 L2.77076831,7.09325048 L5.41831515,7.09325048 L5.41831515,7.09512551 Z M9.06900473,7.09512551 L9.14213102,7.10825075 C9.21228496,7.13374708 9.26642463,7.19066314 9.28838361,7.26200347 L9.29963381,7.33700479 L9.29963381,9.80267341 L9.28650858,9.87954977 C9.26454959,9.95089009 9.21040993,10.0078062 9.14025599,10.0333025 L9.0671297,10.0445527 L6.41958286,10.0445527 C6.31852822,10.0426075 6.23010297,9.97609963 6.20020398,9.87954977 L6.18707095,9.80642348 L6.18707095,7.33700479 C6.18626005,7.23421284 6.25001518,7.14195541 6.34645657,7.10637571 L6.41958286,7.09325048 L9.06900473,7.09325048 L9.06900473,7.09512551 Z M12.7740703,7.09512551 L12.8471966,7.10825075 C12.9166328,7.13423243 12.9700065,7.19107202 12.9915741,7.26200347 L13.0046994,7.33700479 L13.0046994,9.80267341 L12.9915741,9.87954977 C12.9696151,9.95089009 12.9154755,10.0078062 12.8453215,10.0333025 L12.7721952,10.0445527 L10.1246484,10.0445527 C10.0233922,10.043195 9.93466004,9.97645627 9.90526952,9.87954977 L9.89401932,9.80454844 L9.89401932,7.33512976 L9.90526952,7.26012843 C9.92672066,7.18807438 9.98093799,7.13038158 10.0515221,7.10450068 L10.1246484,7.09325048 L12.7740703,7.09325048 L12.7740703,7.09512551 Z M16.434135,7.09512551 L16.5072613,7.10825075 C16.5774153,7.13374708 16.6315549,7.19066314 16.6535139,7.26200347 L16.6666469,7.33700479 L16.6666469,9.80267341 C16.6674578,9.90546536 16.6037027,9.99772279 16.5072613,10.0333025 L16.43226,10.0445527 L13.7865882,10.0445527 C13.6853319,10.043195 13.5965998,9.97645627 13.5672093,9.87954977 L13.5559591,9.80454844 L13.5559591,7.33512976 L13.5672093,7.26012843 C13.5886604,7.18807438 13.6428778,7.13038158 13.7134619,7.10450068 L13.7884632,7.09325048 L16.4360101,7.09325048 L16.434135,7.09512551 Z M20.1279504,7.09512551 L20.2010767,7.10825075 C20.2712306,7.13374708 20.3253703,7.19066314 20.3473292,7.26200347 L20.3585872,7.33700479 L20.3585872,9.80267341 C20.3593981,9.90546536 20.295643,9.99772279 20.1992016,10.0333025 L20.1260753,10.0445527 L17.4785285,10.0445527 C17.3772722,10.043195 17.2885401,9.97645627 17.2591496,9.87954977 L17.2478994,9.80454844 L17.2478994,7.33512976 L17.2591496,7.26012843 C17.2806008,7.18807438 17.3348181,7.13038158 17.4054022,7.10450068 L17.4804035,7.09325048 L20.1260753,7.09325048 L20.1279504,7.09512551 Z M9.06525466,3.54756276 L9.14025599,3.56068799 C9.20926774,3.58628013 9.26256621,3.64234736 9.28463354,3.71256568 L9.29776657,3.78944204 L9.29776657,6.25511065 C9.29857748,6.35790261 9.23482234,6.45016004 9.13838096,6.48573973 L9.06525466,6.49886497 L6.41958286,6.49886497 C6.31750459,6.49640574 6.22876457,6.42814418 6.20020398,6.33011198 L6.18707874,6.25511065 L6.18707874,3.78944204 C6.18707874,3.68733592 6.25066288,3.59603241 6.34645657,3.56068799 L6.41958286,3.54756276 L9.0671297,3.54756276 L9.06525466,3.54756276 Z M12.7703202,3.54756276 L12.8453215,3.56068799 C12.9143333,3.58628013 12.9676318,3.64234736 12.9896991,3.71256568 L13.0028321,3.78944204 L13.0028321,6.25511065 C13.003643,6.35790261 12.9398879,6.45016004 12.8434465,6.48573973 L12.7703202,6.49886497 L10.1246484,6.49886497 C10.0225701,6.49640574 9.93383011,6.42814418 9.90526952,6.33011198 L9.89401932,6.25511065 L9.89401932,3.78944204 L9.90526952,3.71444071 C9.9272285,3.64310039 9.98136817,3.58618433 10.0515221,3.56068799 L10.1246484,3.54756276 L12.7721952,3.54756276 L12.7703202,3.54756276 Z M16.43226,3.54756276 C16.5335118,3.54756276 16.6197633,3.61693898 16.6516389,3.71256568 L16.6647719,3.78944204 L16.6647719,6.25511065 C16.6655828,6.35790261 16.6018277,6.45016004 16.5053863,6.48573973 L16.430385,6.49886497 L13.7865882,6.49886497 C13.6845099,6.49640574 13.5957699,6.42814418 13.5672093,6.33011198 L13.5559591,6.25511065 L13.5559591,3.78944204 L13.5672093,3.71444071 C13.5891683,3.64310039 13.643308,3.58618433 13.7134619,3.56068799 L13.7884632,3.54756276 L16.4360101,3.54756276 L16.43226,3.54756276 Z M16.43226,-4.4408921e-16 C16.5335118,-4.4408921e-16 16.6197633,0.0693762273 16.6516389,0.165002919 L16.6647719,0.240004246 L16.6647719,2.7075479 C16.6655828,2.81033985 16.6018277,2.90259728 16.5053863,2.93817698 L16.430385,2.94942718 L13.7865882,2.94942718 C13.6853319,2.94806944 13.5965998,2.88133076 13.5672093,2.78442426 L13.5559591,2.70942293 L13.5559591,0.240004246 L13.5672093,0.165002919 C13.5891683,0.0936625973 13.643308,0.0367465377 13.7134619,0.011250199 L13.7865882,-4.4408921e-16 L16.434135,-4.4408921e-16 L16.43226,-4.4408921e-16 Z" id="Shape"></path>
                    </g>
                </g>
            </g>
        </g>
    </g>
</svg>