<?xml version="1.0" encoding="UTF-8"?>
<svg width="30px" height="29.8774027px" viewBox="0 0 30 29.8774027" version="1.1" xmlns="http://www.w3.org/2000/svg" xmlns:xlink="http://www.w3.org/1999/xlink">
    <title>elasticsearch-logo-svgrepo-com</title>
    <g id="Page-1" stroke="none" stroke-width="1" fill="none" fill-rule="evenodd">
        <g id="Homepage" transform="translate(-1260.000000, -836.000000)" fill-rule="nonzero">
            <g id="skills" transform="translate(490.000000, 545.000000)">
                <g transform="translate(640.000000, 212.000000)" id="languages">
                    <g id="elasticsearch-logo-svgrepo-com" transform="translate(130.000000, 79.000000)">
                        <path d="M30,15.6488514 C30,13.1264651 28.4326067,10.9469058 26.1060713,10.0897797 C26.2046084,9.5566446 26.2537695,9.01555832 26.2529301,8.47339428 C26.2529301,3.79582747 22.4571027,0 17.7795359,0 C15.0611814,0 12.5142991,1.29793718 10.9224098,3.52648851 C10.1387717,2.91420534 9.18366151,2.59587436 8.17955931,2.59587436 C5.70604782,2.59587436 3.6734646,4.60396156 3.6734646,7.10196906 C3.6734646,7.64076418 3.77144866,8.17955931 3.94280356,8.6693624 C1.59188936,9.47749648 0,11.7305438 0,14.2284341 C0,16.7509376 1.56739334,18.954993 3.91830755,19.8121191 C3.82044069,20.3264182 3.77144866,20.8652133 3.77144866,21.4283872 C3.77144866,26.081458 7.56727614,29.8774027 12.2203469,29.8774027 C14.9631974,29.8774027 17.4857009,28.5549695 19.077473,26.3509142 C19.8611111,26.9630802 20.8407173,27.3060244 21.8448195,27.3060244 C24.318331,27.3060244 26.3509142,25.29782 26.3509142,22.7999297 C26.3509142,22.2611346 26.2529301,21.7223394 26.0815752,21.2325363 C28.3834974,20.3999062 30,18.1468589 30,15.6488514 L30,15.6488514 Z" id="Path" fill="#FFFFFF"></path>
                        <path d="M11.7305438,12.8325129 L18.416315,15.8938115 L25.1754571,9.96729958 C25.2739957,9.47545813 25.3231926,8.97500877 25.3223275,8.47339428 C25.3223275,4.31024379 21.9428036,0.930614158 17.7795359,0.930614158 C15.2815284,0.930614158 12.9551102,2.15506329 11.5591889,4.21214252 L10.4326067,10.0407876 L11.7305438,12.8326301 L11.7305438,12.8325129 Z" id="Path" fill="#F4BD19"></path>
                        <path d="M4.79992968,19.9101031 C4.70206282,20.3999062 4.65307079,20.9142053 4.65307079,21.4285045 C4.65307079,25.5916549 8.05707923,28.9957806 12.2203469,28.9957806 C14.7428504,28.9957806 17.0693858,27.7468354 18.4896859,25.689639 L19.5917722,19.8611111 L18.0978669,17.0202766 L11.3877168,13.9590952 L4.79992968,19.9101031 L4.79992968,19.9101031 Z" id="Path" fill="#3CBEB1"></path>
                        <path d="M4.75105485,8.32641819 L9.3306376,9.40400844 L10.3591186,4.18764651 C9.72245663,3.69784341 8.96319737,3.45300047 8.15506329,3.45300047 C6.1713549,3.45300047 4.53059072,5.06926864 4.53059072,7.07747304 C4.53059072,7.49378809 4.60407876,7.93459916 4.75093765,8.32641819 L4.75105485,8.32641819 Z" id="Path" fill="#E9478C"></path>
                        <path d="M4.35911861,9.42838725 C2.30203938,10.0896624 0.881622128,12.0733708 0.881622128,14.2284341 C0.881622128,16.3346226 2.17955931,18.2203469 4.13877168,18.954993 L10.5795827,13.1263479 L9.40400844,10.6040788 L4.35911861,9.42850445 L4.35911861,9.42838725 Z" id="Path" fill="#2C458F"></path>
                        <path d="M19.6652602,25.665143 C20.3019222,26.1550633 21.0611814,26.4244023 21.8448195,26.4244023 C23.8285279,26.4244023 25.4692921,24.8081341 25.4692921,22.7999297 C25.4692921,22.3591186 25.395804,21.9426864 25.2489451,21.5508673 L20.6693624,20.4733943 L19.6652602,25.665143 L19.6652602,25.665143 Z" id="Path" fill="#95C63D"></path>
                        <path d="M20.5958744,19.273324 L25.6407642,20.4488983 C27.6978434,19.7632443 29.1182607,17.8040319 29.1182607,15.6488514 C29.1182607,13.5426629 27.8203235,11.6815518 25.8611111,10.9224098 L19.2489451,16.7019456 L20.5958744,19.2734412 L20.5958744,19.273324 Z" id="Path" fill="#176655"></path>
                    </g>
                </g>
            </g>
        </g>
    </g>
</svg>