<?xml version="1.0" encoding="UTF-8"?>
<svg width="30px" height="30px" viewBox="0 0 30 30" version="1.1" xmlns="http://www.w3.org/2000/svg" xmlns:xlink="http://www.w3.org/1999/xlink">
    <title>gatsby-svgrepo-com</title>
    <g id="Page-1" stroke="none" stroke-width="1" fill="none" fill-rule="evenodd">
        <g id="Homepage" transform="translate(-886.000000, -672.000000)" fill-rule="nonzero">
            <g id="skills" transform="translate(490.000000, 545.000000)">
                <g transform="translate(320.000000, 48.000000)" id="languages">
                    <g id="gatsby-svgrepo-com" transform="translate(76.000000, 79.000000)">
                        <path d="M26.7857143,15 L19.2857143,15 L19.2857143,17.1428571 L24.4285714,17.1428571 C23.6812556,20.3726103 21.3383995,22.9982248 18.2142857,24.1071429 L5.89285714,11.7857143 C7.25694189,7.92748258 10.9077348,5.35045228 15,5.35714286 C18.1391989,5.37923331 21.0815358,6.89016303 22.9285714,9.42857143 L24.5357143,8.03571429 C21.8052058,4.30531727 17.144874,2.51720854 12.6198798,3.46376345 C8.09488562,4.41031836 4.54203121,7.91649154 3.53571429,12.4285714 L17.6785714,26.5714286 C22.9911478,25.2320554 26.7323306,20.4785526 26.7857143,15 Z M3.21428571,15.1071429 C3.22116609,18.1709255 4.45615958,21.1040351 6.64285714,23.25 C8.80047421,25.4194815 11.7261034,26.6513253 14.7857143,26.6785714 L3.21428571,15.1071429 Z" id="Shape" fill="#FFFFFF"></path>
                        <path d="M15,0 C6.71572875,0 0,6.71572875 0,15 C0,23.2842712 6.71572875,30 15,30 C23.2842712,30 30,23.2842712 30,15 C29.9758741,6.72574264 23.2742574,0.0241259263 15,0 L15,0 Z M6.64285714,23.3571429 C4.47337568,21.1995258 3.24153182,18.2738966 3.21428571,15.2142857 L14.8928571,26.7857143 C11.8074729,26.7309022 8.85829272,25.5052689 6.64285714,23.3571429 L6.64285714,23.3571429 Z M17.5714286,26.4642857 L3.53571429,12.4285714 C4.54203121,7.91649154 8.09488562,4.41031836 12.6198798,3.46376345 C17.144874,2.51720854 21.8052058,4.30531727 24.5357143,8.03571429 L22.9285714,9.42857143 C21.0815358,6.89016303 18.1391989,5.37923331 15,5.35714286 C10.9178368,5.38215746 7.28343363,7.94761854 5.89285714,11.7857143 L18.2142857,24.1071429 C21.3383995,22.9982248 23.6812556,20.3726103 24.4285714,17.1428571 L19.2857143,17.1428571 L19.2857143,15 L26.7857143,15 C26.7558825,20.4998804 22.9361879,25.252291 17.5714286,26.4642857 L17.5714286,26.4642857 Z" id="Shape" fill="#663399"></path>
                    </g>
                </g>
            </g>
        </g>
    </g>
</svg>