<?xml version="1.0" encoding="UTF-8"?>
<svg width="26.4535714px" height="30px" viewBox="0 0 26.4535714 30" version="1.1" xmlns="http://www.w3.org/2000/svg" xmlns:xlink="http://www.w3.org/1999/xlink">
    <title>html-svgrepo-com</title>
    <g id="Page-1" stroke="none" stroke-width="1" fill="none" fill-rule="evenodd">
        <g id="Homepage" transform="translate(-730.000000, -672.000000)" fill-rule="nonzero">
            <g id="skills" transform="translate(490.000000, 545.000000)">
                <g transform="translate(0.000000, 48.000000)" id="languages">
                    <g id="html-svgrepo-com" transform="translate(240.000000, 79.000000)">
                        <polygon id="Path" fill="#E44F26" points="2.4075 27.0010714 0 0 26.4535714 0 24.0428571 26.9967857 13.2107143 30"></polygon>
                        <polygon id="Path" fill="#F1662A" points="13.2267857 27.705 21.9803571 25.2782143 24.0396429 2.20821429 13.2267857 2.20821429"></polygon>
                        <polygon id="Path" fill="#EBEBEB" points="13.2267857 12.2217857 8.84464286 12.2217857 8.5425 8.83071429 13.2267857 8.83071429 13.2267857 5.51892857 13.215 5.51892857 4.92321429 5.51892857 5.0025 6.40821429 5.81571429 15.5335714 13.2267857 15.5335714"></polygon>
                        <polygon id="Path" fill="#EBEBEB" points="13.2267857 20.8221429 13.2117857 20.8264286 9.52392857 19.8310714 9.28821429 17.19 7.49571429 17.19 5.96357143 17.19 6.4275 22.3885714 13.2117857 24.2721429 13.2267857 24.2678571"></polygon>
                        <polygon id="Path" fill="#FFFFFF" points="13.215 12.2217857 13.215 15.5335714 17.2928571 15.5335714 16.9092857 19.8289286 13.215 20.8253571 13.215 24.2710714 20.0046429 22.3885714 20.0539286 21.8292857 20.8317857 13.1110714 20.9132143 12.2217857 20.0207143 12.2217857"></polygon>
                        <polygon id="Path" fill="#FFFFFF" points="13.215 5.51892857 13.215 7.57607143 13.215 8.82321429 13.215 8.83071429 21.2035714 8.83071429 21.2035714 8.83071429 21.2142857 8.83071429 21.2807143 8.08714286 21.4317857 6.40821429 21.5110714 5.51892857"></polygon>
                    </g>
                </g>
            </g>
        </g>
    </g>
</svg>