<?xml version="1.0" encoding="UTF-8"?>
<svg width="30px" height="22.8434632px" viewBox="0 0 30 22.8434632" version="1.1" xmlns="http://www.w3.org/2000/svg" xmlns:xlink="http://www.w3.org/1999/xlink">
    <title>javascript-1-svgrepo-com</title>
    <g id="Page-1" stroke="none" stroke-width="1" fill="none" fill-rule="evenodd">
        <g id="Homepage" transform="translate(-566.000000, -676.000000)" fill="#F7DF1E" fill-rule="nonzero">
            <g id="skills" transform="translate(490.000000, 545.000000)">
                <g transform="translate(0.000000, 48.000000)" id="languages">
                    <g id="javascript-1-svgrepo-com" transform="translate(76.000000, 83.000000)">
                        <path d="M6.53278361,0.359090305 L11.5214789,0.359090305 L11.5214789,14.3423328 C11.5214789,20.6437026 8.50113047,22.8434632 3.67602075,22.8434632 C2.49501263,22.8434632 0.984173427,22.6466285 0,22.3181274 L0.558584918,18.2803564 C1.24750632,18.5104402 2.13459237,18.6740258 3.11876579,18.6740258 C5.22010906,18.6740258 6.53278361,17.7217715 6.53278361,14.3090837 L6.53278361,0.359090305 Z M15.853172,17.3626812 C17.1658465,18.0516026 19.2671898,18.741854 21.4004522,18.741854 C23.6986301,18.741854 24.9128874,17.7895997 24.9128874,16.3133395 C24.9128874,14.9674159 23.8622157,14.146828 21.2036175,13.2278228 C17.5275968,11.9151483 15.0990823,9.88030323 15.0990823,6.62987099 C15.0990823,2.8554329 18.2830164,0 23.4685463,0 C25.9954781,0 27.8015694,0.492086714 29.1142439,1.11583987 L27.998404,5.12036175 C27.1445671,4.69344328 25.5366405,4.06969012 23.4033781,4.06969012 C21.2368666,4.06969012 20.186195,5.08711265 20.186195,6.20295252 C20.186195,7.61404442 21.4004522,8.23779758 24.2891342,9.35363745 C28.1952387,10.7979785 30,12.8328235 30,15.9835084 C30,19.6927783 27.1778162,22.8434632 21.1052002,22.8434632 C18.5782684,22.8434632 16.0832558,22.1545418 14.8357494,21.4642905 L15.853172,17.3613512 L15.853172,17.3626812 Z" id="Shape"></path>
                    </g>
                </g>
            </g>
        </g>
    </g>
</svg>