<?xml version="1.0" encoding="UTF-8"?>
<svg width="29.9249937px" height="30px" viewBox="0 0 29.9249937 30" version="1.1" xmlns="http://www.w3.org/2000/svg" xmlns:xlink="http://www.w3.org/1999/xlink">
    <title>json-svgrepo-com(1)</title>
    <g id="Page-1" stroke="none" stroke-width="1" fill="none" fill-rule="evenodd">
        <g id="Homepage" transform="translate(-512.000000, -836.000000)" fill="#000000" fill-rule="nonzero">
            <g id="skills" transform="translate(490.000000, 545.000000)">
                <g transform="translate(0.000000, 212.000000)" id="languages">
                    <g id="json-svgrepo-com(1)" transform="translate(22.000000, 79.000000)">
                        <path d="M15.0150013,29.9649971 C15.6450538,29.963747 16.2626052,29.9212434 16.8689057,29.8399867 L16.7976498,29.8474873 C18.2602717,29.6537211 19.5878823,29.2749396 20.8254855,28.7311443 L20.7304775,28.7686474 C22.5681307,27.9685807 24.1395116,26.8984915 25.4746229,25.5871323 L25.4721227,25.5896325 C26.7047254,24.3807817 27.7260605,22.9644137 28.4836236,21.395533 L28.5223769,21.3055255 C29.1311776,20.0429202 29.5787149,18.5777981 29.7887324,17.0364197 L29.7974831,16.9601633 C29.8787399,16.3626136 29.9249937,15.672556 29.9249937,14.9712476 C29.9249937,14.1286774 29.8587382,13.3023585 29.7299775,12.4960413 L29.7412284,12.5847987 C29.532461,11.2771898 29.1874323,10.1058422 28.7123927,9.00200017 L28.7498958,9.09950829 C28.4123677,8.31569297 28.0548379,7.65188766 27.648554,7.02308526 L27.6823069,7.07808984 C26.183432,4.78664889 24.1507626,2.95899658 21.7568131,1.74264522 L21.6693058,1.70264189 C20.904242,1.30135845 20.004167,0.932577715 19.067839,0.646303859 L18.9540795,0.616301358 L18.947829,0.616301358 C19.0965914,0.695057921 19.247854,0.78131511 19.3791149,0.866322194 C19.5103759,0.951329277 19.6778898,1.0488374 19.8179015,1.14759563 C20.5517126,1.64388699 21.1905159,2.19143262 21.7605634,2.80398367 L21.7668139,2.81023419 C23.0356696,4.20035003 23.9944995,5.8967414 24.5182932,7.77564797 L24.539545,7.86190516 C24.8658222,8.97199767 25.0895908,10.2608551 25.1620968,11.5884657 L25.164597,11.6334695 C25.188349,11.9534961 25.2021002,12.3272773 25.2021002,12.7035586 C25.2021002,13.3086091 25.1670973,13.9049087 25.0995916,14.4912076 L25.1058422,14.4199517 C24.9158263,16.1050921 24.3695308,17.6314693 23.5432119,18.9665805 L23.5707142,18.9190766 C22.9356613,19.9454121 22.1443454,20.8104842 21.2192683,21.5067922 L21.1955163,21.5242937 C20.0329194,22.464372 18.5365447,23.0331694 16.907659,23.0331694 C16.4626219,23.0331694 16.0288357,22.9906659 15.6075506,22.9094091 L15.6500542,22.9156596 C15.2925244,22.8306526 14.9812484,22.7193933 14.6849737,22.5806317 L14.7149762,22.5931328 C14.3424452,22.4218685 14.0224185,22.2343529 13.7236436,22.0193349 L13.7411451,22.031836 C13.1485957,21.6330528 12.6373031,21.1755146 12.1947662,20.6592216 L12.1860155,20.6492208 C11.6584715,20.0241687 11.2171848,19.3028586 10.8946579,18.5190433 L10.8746562,18.4652888 C10.5008751,17.5252104 10.2758563,16.4363697 10.2571048,15.2975248 L10.2571048,15.2900242 C10.2521043,15.1862655 10.2496041,15.0637553 10.2496041,14.939995 C10.2496041,13.3873656 10.6471373,11.9272439 11.3471956,10.655888 L11.3234436,10.7021418 C11.8634886,9.75331278 12.5547962,8.95574631 13.3748646,8.31444287 L13.392366,8.30069172 C13.6461372,8.10192516 13.9311609,7.9044087 14.2286857,7.7231436 L14.267439,7.70189182 L14.2874406,7.6931411 C13.8586549,7.59063255 13.3661138,7.53187766 12.8610718,7.53187766 C12.7298108,7.53187766 12.5985499,7.53562797 12.468539,7.54312859 L12.4860405,7.54187849 C11.9272439,7.58063172 11.4084507,7.68689057 10.9159097,7.85315443 L10.9596633,7.84065339 C10.4683724,8.00441703 10.0483374,8.19443287 9.65080423,8.42195183 L9.68580715,8.40320027 C9.33577798,8.60571714 9.03700308,8.81073423 8.75322944,9.03450288 L8.76948079,9.02200183 C8.50570881,9.24702059 8.24443704,9.47078923 8.00066672,9.71580965 C6.6780565,11.1371781 5.77048087,12.9610801 5.4792066,14.9837486 L5.47295608,15.036253 C5.36919743,15.7500625 5.30919243,16.5751313 5.30919243,17.4139512 C5.30919243,17.8752396 5.32669389,18.3327777 5.36294691,18.7853154 L5.3591966,18.7253104 C5.4779565,20.5829652 5.90049171,22.3118593 6.57929827,23.904492 L6.54054505,23.8019835 C6.99058255,24.8420702 7.55437953,25.7383949 8.2344362,26.5334611 L8.22193516,26.5184599 C9.27077256,27.7248104 10.5821318,28.6748896 12.0697558,29.2824402 L12.1372614,29.3074423 C12.9073256,29.6324694 13.7999,29.8699892 14.7324777,29.9774981 L14.7787316,29.9812484 C14.8462372,29.9937495 14.9237436,30 15.0025002,30 L15.0412534,30 L15.0387532,30 L15.012501,29.9599967 L15.0150013,29.9649971 Z M11.3484457,29.4649554 C11.1246771,29.3674473 10.9396616,29.2724394 10.7621468,29.1674306 L10.7858988,29.1799317 C10.5996333,29.076173 10.4108676,28.9699142 10.2246021,28.8561547 C9.47328944,28.3848654 8.82198517,27.8585715 8.24068672,27.2647721 L8.23943662,27.263522 C6.93682807,25.8696558 5.96174681,24.1520127 5.4492041,22.2456038 L5.43045254,22.1618468 C5.10542545,20.9942495 4.88415701,19.6378865 4.81290108,18.2415201 L4.81165097,18.1965164 C4.7916493,17.9077423 4.78039837,17.5689641 4.78039837,17.2289357 C4.78039837,16.6526377 4.81290108,16.0838403 4.87540628,15.5250438 L4.86915576,15.5937995 C5.03291941,13.9274106 5.53421118,12.408534 6.30302525,11.063422 L6.27427286,11.1184265 C6.8568214,10.1058422 7.60188349,9.25327111 8.48320693,8.56946412 L8.5032086,8.55446287 C9.08950746,8.10067506 9.76456371,7.72189349 10.4908742,7.44687057 L10.5446287,7.42936911 C11.2234353,7.17559797 12.0085007,7.02808567 12.828569,7.02808567 C13.1535961,7.02808567 13.4723727,7.05058755 13.7848987,7.0955913 L13.7486457,7.09184099 C14.1999333,7.15309609 14.603717,7.25185432 14.9912493,7.38686557 L14.9462455,7.37311443 C14.9824985,7.37311443 14.9824985,7.37311443 15.0025002,7.41061755 C15.0212518,7.42936911 15.0587549,7.42936911 15.0775065,7.44812068 C15.1337611,7.46812234 15.2025169,7.50437536 15.2837736,7.54062839 C15.6275523,7.72064339 15.9138262,7.89565797 16.187599,8.0844237 L16.1588466,8.06567214 C17.2864405,8.85948829 18.1790149,9.91332611 18.7640637,11.1434286 L18.7840653,11.1909326 C19.2753563,12.2710226 19.5653804,13.5323777 19.5728811,14.8612384 L19.5728811,14.8637386 C19.5741312,14.9287441 19.5753813,15.0050004 19.5753813,15.0812568 C19.5753813,16.427619 19.2778565,17.7052254 18.7428119,18.8503209 L18.7653138,18.7953163 C18.0390033,20.3004417 16.9051588,21.5117926 15.5062922,22.3143595 L15.467539,22.3356113 C15.5800483,22.3731144 15.6925577,22.391866 15.8063172,22.4293691 C16.0638387,22.4856238 16.3601133,22.5193766 16.6638887,22.5218768 L16.6663889,22.5218768 C18.5902992,22.5031253 20.327944,21.72056 21.5917993,20.4629552 C21.8343195,20.2391866 22.055588,20.0004167 22.2568547,19.7453954 L22.2668556,19.7316443 C22.5281273,19.4266189 22.7806484,19.091591 23.0119177,18.7403117 L23.0344195,18.7028086 C23.2981915,18.2952746 23.5544629,17.8214851 23.7744812,17.327694 L23.8019835,17.2601883 C24.0645054,16.6651388 24.2845237,15.9688307 24.4282857,15.2450204 L24.4382865,15.1812651 C24.5857988,14.3936995 24.6695558,13.4886241 24.6695558,12.563547 C24.6695558,12.1535128 24.6533044,11.7472289 24.6208017,11.3459455 L24.624552,11.3984499 C24.5107926,8.72197683 23.6669722,6.26427202 22.2893574,4.1915993 L22.3218602,4.24285357 C22.0843404,3.90282524 21.8568214,3.61030086 21.6155513,3.32902742 L21.6280523,3.34402867 C21.215518,2.88024002 20.7817318,2.45770481 20.3191933,2.06892241 L20.3004417,2.05392116 C19.8016501,1.64138678 19.2441037,1.26260522 18.6515543,0.937578132 L18.5965497,0.91007584 C18.0015001,0.627552296 17.2976915,0.37128094 16.5676306,0.178764897 L16.4813734,0.160013334 L16.1063422,0.0850070839 C15.8450704,0.0475039587 15.5812984,0.0300025002 15.3137761,0.0100008334 C15.1737645,0.00375031253 15.0100008,0 14.8462372,0 C14.5649637,0 14.2849404,0.0112509376 14.0086674,0.0325027086 L14.0449204,0.0300025002 C13.0735895,0.0975081257 12.1722644,0.247520627 11.303442,0.476289691 L11.4047004,0.453787816 C7.09309109,1.60888407 3.59779982,4.47162264 1.62638553,8.25443787 L1.5863822,8.33944495 C0.586298858,10.2833569 0,12.5822985 0,15.0175015 C0,15.707559 0.0475039587,16.3863655 0.137511459,17.0501708 L0.12876073,16.9726644 C0.290024169,18.3515293 0.632552713,19.6091341 1.13509459,20.7829819 L1.10134178,20.6942245 C1.42761897,21.4955413 1.77389782,22.1730978 2.16893074,22.8169014 L2.13267772,22.7543962 C3.53904492,24.9808317 5.44170348,26.7747312 7.69189099,28.0148346 L7.77064755,28.0548379 C8.53571131,28.4911243 9.42703559,28.8899075 10.3571131,29.2036836 L10.4671223,29.2361863 C10.7496458,29.3286941 11.0296691,29.4224519 11.328444,29.4974581 L11.3484457,29.4649554 Z" id="Shape"></path>
                    </g>
                </g>
            </g>
        </g>
    </g>
</svg>