<?xml version="1.0" encoding="UTF-8"?>
<svg width="30px" height="30px" viewBox="0 0 30 30" version="1.1" xmlns="http://www.w3.org/2000/svg" xmlns:xlink="http://www.w3.org/1999/xlink">
    <title>mongodb-svgrepo-com</title>
    <g id="Page-1" stroke="none" stroke-width="1" fill="none" fill-rule="evenodd">
        <g id="Homepage" transform="translate(-1368.000000, -836.000000)" fill-rule="nonzero">
            <g id="skills" transform="translate(490.000000, 545.000000)">
                <g transform="translate(640.000000, 212.000000)" id="languages">
                    <g id="mongodb-svgrepo-com" transform="translate(238.000000, 79.000000)">
                        <circle id="Oval" fill="#13AA52" cx="15" cy="15" r="15"></circle>
                        <path d="M19.0095703,13.1671875 C18.0621094,8.98564453 15.8229492,7.61074219 15.5818359,7.08544922 C15.3181641,6.71484375 15.0509766,6.05566406 15.0509766,6.05566406 C15.046582,6.04453125 15.0395508,6.02490234 15.0313477,6.00585938 C15.0041016,6.37646484 14.9900391,6.51943359 14.6396484,6.89326172 C14.0970703,7.31748047 11.3132813,9.65332031 11.0868164,14.4041016 C10.8755859,18.8349609 14.2875,21.4751953 14.7489258,21.8118164 L14.8013672,21.8490234 L14.8013672,21.8458008 C14.8042969,21.8680664 14.9478516,22.9004883 15.0486328,23.9944336 L15.4101562,23.9944336 C15.4949806,23.2211567 15.6221244,22.4531103 15.7910156,21.69375 L15.8203125,21.674707 C16.0267167,21.5267139 16.2235005,21.3657445 16.4094727,21.1927734 L16.4305664,21.1737305 C17.4114258,20.2675781 19.1748047,18.1716797 19.1575195,14.8300781 C19.1538675,14.2726629 19.1043843,13.7164919 19.0095703,13.1671875 L19.0095703,13.1671875 Z M15.0102539,19.3101562 C15.0102539,19.3101562 15.0102539,13.0957031 15.215332,13.096875 C15.375293,13.096875 15.5824219,21.112793 15.5824219,21.112793 C15.2976562,21.0785156 15.0102539,19.7935547 15.0102539,19.3101562 Z" id="Shape" fill="#FFFFFF"></path>
                    </g>
                </g>
            </g>
        </g>
    </g>
</svg>