<?xml version="1.0" encoding="UTF-8"?>
<svg width="26.6237939px" height="30px" viewBox="0 0 26.6237939 30" version="1.1" xmlns="http://www.w3.org/2000/svg" xmlns:xlink="http://www.w3.org/1999/xlink">
    <title>nodejs-icon-svgrepo-com</title>
    <g id="Page-1" stroke="none" stroke-width="1" fill="none" fill-rule="evenodd">
        <g id="Homepage" transform="translate(-1208.000000, -836.000000)" fill="#539E43" fill-rule="nonzero">
            <g id="skills" transform="translate(490.000000, 545.000000)">
                <g transform="translate(640.000000, 212.000000)" id="languages">
                    <g id="nodejs-icon-svgrepo-com" transform="translate(78.000000, 79.000000)">
                        <path d="M13.3118969,30 C12.8984839,30 12.5126319,29.8897564 12.1543406,29.6968304 L8.4887459,27.5195222 C7.93752849,27.2163527 8.21313732,27.1061091 8.37850232,27.0509874 C9.12264569,26.8029398 9.26044999,26.7478179 10.0321543,26.306844 C10.1148367,26.2517224 10.2250803,26.2792833 10.3077629,26.334405 L13.1189709,28.0156177 C13.2292145,28.0707394 13.3670187,28.0707394 13.4497014,28.0156177 L24.4464857,21.6490584 C24.5567293,21.5939364 24.611851,21.4836931 24.611851,21.3458888 L24.611851,8.64033079 C24.611851,8.50252626 24.5567293,8.39228292 24.4464857,8.33716124 L13.4497014,1.9981626 C13.3394578,1.94304093 13.2016536,1.94304093 13.1189709,1.9981626 L2.1221863,8.33716124 C2.01194296,8.39228292 1.95682128,8.53008721 1.95682128,8.64033079 L1.95682128,21.3458888 C1.95682128,21.4561322 2.01194296,21.5939364 2.1221863,21.6490584 L5.12632049,23.3853928 C6.75241153,24.2122185 7.77216349,23.2475884 7.77216349,22.2829581 L7.77216349,9.74276513 C7.77216349,9.57740012 7.90996778,9.41203488 8.10289374,9.41203488 L9.50849786,9.41203488 C9.6738631,9.41203488 9.83922811,9.54983917 9.83922811,9.74276513 L9.83922811,22.2829581 C9.83922811,24.4602663 8.65411115,25.7280659 6.58704628,25.7280659 C5.95314649,25.7280659 5.45705099,25.7280659 4.05144687,25.0390444 L1.15755625,23.3853928 C0.440973831,22.9719796 0,22.2002755 0,21.3734495 L0,8.66789151 C0,7.84106575 0.440973831,7.06936143 1.15755625,6.65594855 L12.1543406,0.289388942 C12.8433623,-0.0964629808 13.7804317,-0.0964629808 14.4694534,0.289388942 L25.4662377,6.65594855 C26.1828201,7.06936143 26.6237939,7.84106575 26.6237939,8.66789151 L26.6237939,21.3734495 C26.6237939,22.2002755 26.1828201,22.9719796 25.4662377,23.3853928 L14.4694534,29.751952 C14.1111619,29.9173173 13.6977491,30 13.3118969,30 L13.3118969,30 Z M16.7018832,21.2632062 C11.878732,21.2632062 10.886541,19.058337 10.886541,17.1841983 C10.886541,17.0188332 11.0243453,16.8534681 11.2172712,16.8534681 L12.6504363,16.8534681 C12.8158014,16.8534681 12.9536056,16.9637114 12.9536056,17.1290767 C13.1740925,18.5898025 13.8079926,19.3063849 16.729444,19.3063849 C19.0445566,19.3063849 20.0367476,18.7827285 20.0367476,17.5424896 C20.0367476,16.8259072 19.7611391,16.3022507 16.1506658,15.9439595 C13.1465318,15.6407899 11.2723932,14.9793292 11.2723932,12.5815341 C11.2723932,10.3491042 13.1465318,9.02618271 16.2884703,9.02618271 C19.8162607,9.02618271 21.5525951,10.2388609 21.773082,12.8847036 C21.773082,12.9673862 21.7455211,13.0500689 21.6903994,13.1327515 C21.6352778,13.1878731 21.5525951,13.2429948 21.4699125,13.2429948 L20.0367476,13.2429948 C19.8989434,13.2429948 19.7611391,13.1327515 19.7335781,12.9949472 C19.4028479,11.4790997 18.5484609,10.983004 16.2884703,10.983004 C13.7528707,10.983004 13.4497014,11.8649517 13.4497014,12.5264124 C13.4497014,13.3256775 13.8079926,13.5737253 17.2255397,14.0146992 C20.6155258,14.4556729 22.2140559,15.0895728 22.2140559,17.4598069 C22.1864949,19.885163 20.2021129,21.2632062 16.7018832,21.2632062 L16.7018832,21.2632062 Z" id="Shape"></path>
                    </g>
                </g>
            </g>
        </g>
    </g>
</svg>