<?xml version="1.0" encoding="UTF-8"?>
<svg width="30px" height="29.25px" viewBox="0 0 30 29.25" version="1.1" xmlns="http://www.w3.org/2000/svg" xmlns:xlink="http://www.w3.org/1999/xlink">
    <title>photoshop-svgrepo-com</title>
    <g id="Page-1" stroke="none" stroke-width="1" fill="none" fill-rule="evenodd">
        <g id="Homepage" transform="translate(-940.000000, -836.000000)" fill-rule="nonzero">
            <g id="skills" transform="translate(490.000000, 545.000000)">
                <g id="languages" transform="translate(320.000000, 212.000000)">
                    <g id="photoshop-svgrepo-com" transform="translate(130.000000, 79.000000)">
                        <polygon id="Path" fill="#0C0824" points="1.25035714 1.25035714 28.7496429 1.25035714 28.7496429 27.9996429 1.25035714 27.9996429"></polygon>
                        <path d="M1.25035714,1.25035714 L28.7496429,1.25035714 L28.7496429,27.9996429 L1.25035714,27.9996429 L1.25035714,1.25035714 Z M0,29.25 L30,29.25 L30,0 L0,0 L0,29.25 Z M20.2253571,12 C19.2375,12 18.9,12.5003571 18.9,12.9128571 C18.9,13.3628571 19.125,13.6757143 20.4503571,14.3625 C22.4132143,15.3128571 23.0217857,16.2246429 23.0217857,17.5628571 C23.0217857,19.5632143 21.4971429,20.6378571 19.4346429,20.6378571 C18.5494784,20.6706545 17.6696992,20.4867541 16.8717857,20.1021429 C16.7839286,20.0646429 16.7721429,20.0025 16.7721429,19.9017857 L16.7721429,18.0621429 C16.7721429,17.9367857 16.8342857,17.8992857 16.9221429,17.9625 C17.6714914,18.4443615 18.5437369,18.7002698 19.4346429,18.6996429 C20.4225,18.6996429 20.835,18.2871429 20.835,17.7246429 C20.835,17.2746429 20.5478571,16.875 19.2846429,16.2246429 C17.5092857,15.375 16.7721429,14.5103571 16.7721429,13.0746429 C16.7721429,11.4621429 18.0342857,10.125 20.2221429,10.125 C20.9837111,10.0922969 21.7441783,10.211393 22.4592857,10.4753571 C22.5431374,10.5297831 22.5910709,10.6252405 22.5846429,10.725 L22.5846429,12.4392857 C22.5846429,12.5389286 22.5225,12.6021429 22.3971429,12.5646429 C21.7362389,12.1841781 20.9846355,11.9897979 20.2221429,12.0021429 L20.2253571,12 Z M9.47464286,13.4871429 C9.76178571,13.5117857 9.98678571,13.5117857 10.4871429,13.5117857 C11.9496429,13.5117857 13.3242857,12.9996429 13.3242857,11.0121429 C13.3242857,9.42428571 12.3364286,8.625 10.6746429,8.625 C10.1742857,8.625 9.69964286,8.64964286 9.47464286,8.6625 L9.47464286,13.4871429 Z M7.24928571,6.84428571 C7.24928571,6.75642857 7.42392857,6.69428571 7.52464286,6.69428571 C8.325,6.65678571 9.51214286,6.63214286 10.7496429,6.63214286 C14.2125,6.63214286 15.5625,8.53178571 15.5625,10.9575 C15.5625,14.1321429 13.2621429,15.495 10.4378571,15.495 C9.96321429,15.495 9.80035714,15.4703571 9.46285714,15.4703571 L9.46285714,20.2703571 C9.46285714,20.37 9.42535714,20.4203571 9.31285714,20.4203571 L7.40035714,20.4203571 C7.30071429,20.4203571 7.25035714,20.3828571 7.25035714,20.2703571 L7.25035714,6.84964286 L7.24928571,6.84428571 Z" id="Shape" fill="#31C5F0"></path>
                    </g>
                </g>
            </g>
        </g>
    </g>
</svg>