<?xml version="1.0" encoding="UTF-8"?>
<svg width="30px" height="30px" viewBox="0 0 30 30" version="1.1" xmlns="http://www.w3.org/2000/svg" xmlns:xlink="http://www.w3.org/1999/xlink">
    <title>php-svgrepo-com</title>
    <g id="Page-1" stroke="none" stroke-width="1" fill="none" fill-rule="evenodd">
        <g id="Homepage" transform="translate(-620.000000, -672.000000)">
            <g id="skills" transform="translate(490.000000, 545.000000)">
                <g transform="translate(0.000000, 48.000000)" id="languages">
                    <g id="php-svgrepo-com" transform="translate(130.000000, 79.000000)">
                        <circle id="Oval" fill="#8892BF" fill-rule="nonzero" cx="15" cy="15" r="15"></circle>
                        <path d="M13.3277143,8.57142857 L15.1277143,8.57142857 L14.619,11.2759286 L16.2364286,11.2759286 C17.1234643,11.2948929 17.7842143,11.4931071 18.2191071,11.8706786 C18.6625714,12.2481429 18.7930714,12.9657857 18.6105,14.0229643 L17.7365357,18.7381071 L15.9103929,18.7381071 L16.7451429,14.2353214 C16.8320357,13.76325 16.806,13.4282143 16.6669286,13.23 C16.5278571,13.0317857 16.2278571,12.9326786 15.7669286,12.9326786 L14.319,12.9185357 L13.2493929,18.7381071 L11.4493929,18.7381071 L13.3277143,8.57142857 Z" id="Path" fill="#FFFFFF" fill-rule="nonzero"></path>
                        <path d="M5.07955714,11.2760357 L8.57528571,11.2760357 C9.60128571,11.2853571 10.3448571,11.6064643 10.8057857,12.2388214 C11.2667143,12.8712857 11.4188571,13.7349643 11.2623214,14.8300714 C11.2015714,15.3305357 11.0666786,15.82125 10.8579643,16.30275 C10.6579286,16.7841429 10.3797857,17.2182857 10.0232143,17.6053929 C9.58832143,18.0962143 9.12310714,18.4076786 8.62746429,18.54 C8.13181071,18.6722143 7.61867143,18.7382143 7.08830357,18.7382143 L5.52304286,18.7382143 L5.02737857,21.4285714 L3.21428571,21.4285714 L5.07955714,11.2760357 Z M5.82305357,17.1381429 L6.603075,12.9043929 L6.86656071,12.9043929 C6.96230357,12.9043929 7.06221429,12.8995714 7.16657143,12.89025 C7.862325,12.8808214 8.44043571,12.9516429 8.90142857,13.1026071 C9.37092857,13.2535714 9.52746429,13.82475 9.37092857,14.8159286 C9.17978571,15.996 8.80564286,16.6850357 8.24920714,16.88325 C7.69275,17.0721429 6.99699643,17.1617143 6.16219286,17.1522857 L5.97957857,17.1522857 C5.9274,17.1522857 5.87523214,17.1474643 5.82305357,17.1381429 Z" id="Shape" fill="#FFFFFF"></path>
                        <path d="M24.0391071,11.2760357 L20.5433571,11.2760357 L18.6781071,21.4285714 L20.4911786,21.4285714 L20.9869286,18.7382143 L22.5521786,18.7382143 C23.0825357,18.7382143 23.5956429,18.6722143 24.0912857,18.54 C24.5870357,18.4076786 25.0521429,18.0962143 25.4870357,17.6053929 C25.8436071,17.2182857 26.12175,16.7841429 26.3217857,16.30275 C26.5305,15.82125 26.6653929,15.3305357 26.7261429,14.8300714 C26.8826786,13.7349643 26.7306429,12.8712857 26.2696071,12.2388214 C25.8086786,11.6064643 25.0652143,11.2853571 24.0391071,11.2760357 Z M22.0669286,12.9043929 L21.2869286,17.1381429 C21.3391071,17.1474643 21.3912857,17.1522857 21.4434643,17.1522857 L21.6260357,17.1522857 C22.4608929,17.1617143 23.1565714,17.0721429 23.7130714,16.88325 C24.2694643,16.6850357 24.6436071,15.996 24.8348571,14.8159286 C24.9913929,13.82475 24.8348571,13.2535714 24.36525,13.1026071 C23.9043214,12.9516429 23.3261786,12.8808214 22.6303929,12.89025 C22.5260357,12.8995714 22.4261786,12.9043929 22.3303929,12.9043929 L22.0669286,12.9043929 Z" id="Shape" fill="#FFFFFF"></path>
                    </g>
                </g>
            </g>
        </g>
    </g>
</svg>