<?xml version="1.0" encoding="UTF-8"?>
<svg width="57.1428571px" height="50px" viewBox="0 0 57.1428571 50" version="1.1" xmlns="http://www.w3.org/2000/svg" xmlns:xlink="http://www.w3.org/1999/xlink">
    <title>react</title>
    <g id="Page-1" stroke="none" stroke-width="1" fill="none" fill-rule="evenodd">
        <g id="Homepage" transform="translate(-501.000000, -566.000000)" fill="#087EA4" fill-rule="nonzero">
            <g id="header-card" transform="translate(490.000000, 139.000000)">
                <g id="Group-4" transform="translate(0.000000, 412.000000)">
                    <g id="react" transform="translate(11.000000, 15.000000)">
                        <path d="M46.6741071,16.2030963 C46.0714286,16.0022142 45.46875,15.8124922 44.8660714,15.6339303 C44.9665179,15.2210059 45.0558036,14.8080815 45.1450893,14.3951571 C46.5178571,7.74372657 45.6138393,2.39802987 42.5669643,0.634731161 C39.6316964,-1.05044672 34.84375,0.701691871 30,4.92021662 C29.5200893,5.333141 29.0513393,5.76838562 28.6049107,6.20363023 C28.3035714,5.91346716 27.9910714,5.62330408 27.6785714,5.34430112 C22.6004464,0.835613292 17.5111607,-1.06160683 14.4642857,0.712851989 C11.5401786,2.40918998 10.6696429,7.44240337 11.8973214,13.7367101 C12.0200893,14.3616768 12.1540179,14.9754833 12.3102679,15.6004499 C11.5959821,15.801332 10.8928571,16.0245344 10.234375,16.2588969 C4.27455357,18.3235188 0,21.5822734 0,24.9526291 C0,28.4345861 4.55357143,31.9277031 10.7477679,34.0481256 C11.25,34.2155274 11.7522321,34.3829292 12.265625,34.5280107 C12.0982143,35.1976178 11.953125,35.8560648 11.8191964,36.536832 C10.6473214,42.7306977 11.5625,47.6411498 14.4866071,49.3263277 C17.5,51.0673061 22.5669643,49.2816872 27.5,44.9627214 C27.890625,44.6167577 28.28125,44.2596339 28.671875,43.8801899 C29.1629464,44.360075 29.6763393,44.8176398 30.1897321,45.2640446 C34.9665179,49.3709681 39.6875,51.0338258 42.6004464,49.3486479 C45.6138393,47.6076694 46.5959821,42.3289334 45.3236607,35.9007053 C45.2232143,35.40966 45.1116071,34.9074547 44.9888393,34.3940893 C45.3459821,34.2936482 45.6919643,34.182047 46.0379464,34.0704458 C52.4776786,31.9388632 57.1428571,28.4903866 57.1428571,24.9526291 C57.1428571,21.5711132 52.7455357,18.2900384 46.6741071,16.2030963 Z M31.5736607,6.7281558 C35.7254464,3.11227744 39.5982143,1.69494241 41.3616071,2.71051318 C43.2477679,3.79304466 43.9732143,8.16781107 42.7901786,13.915272 C42.7120536,14.2947161 42.6339286,14.663 42.5334821,15.0312839 C40.0558036,14.473278 37.5446429,14.0715137 35.0223214,13.8483113 C33.5714286,11.7725293 31.9866071,9.78602823 30.2678571,7.92228846 C30.703125,7.50936408 31.1272321,7.11875994 31.5736607,6.7281558 L31.5736607,6.7281558 Z M18.6607143,30.7447306 C19.2299107,31.7156609 19.8102679,32.6865912 20.4241071,33.6352012 C18.6830357,33.4454792 16.953125,33.1664762 15.2455357,32.7981923 C15.7366071,31.1911353 16.3504464,29.5282777 17.0647321,27.8319397 C17.578125,28.8140301 18.1026786,29.7849604 18.6607143,30.7447306 L18.6607143,30.7447306 Z M15.2790179,17.3191081 C16.8861607,16.9619844 18.59375,16.6718213 20.3683036,16.4486189 C19.7767857,17.3749087 19.1964286,18.3235188 18.6495536,19.283289 C18.1026786,20.231899 17.5669643,21.2028293 17.0647321,22.1849198 C16.3616071,20.5220621 15.7700893,18.8926848 15.2790179,17.3191081 Z M18.3370536,25.0084297 C19.0736607,23.4683334 19.8772321,21.9617174 20.7254464,20.4774216 C21.5736607,18.9931259 22.4888393,17.5534706 23.4486607,16.1361356 C25.1227679,16.0133743 26.8303571,15.9464136 28.5714286,15.9464136 C30.3125,15.9464136 32.03125,16.0133743 33.6941964,16.1361356 C34.6428571,17.5423105 35.546875,18.9819658 36.40625,20.4551014 C37.265625,21.928237 38.0691964,23.434853 38.828125,24.9637892 C38.0803571,26.5038856 37.2767857,28.0216617 36.4174107,29.5171175 C35.5691964,31.0014133 34.6651786,32.4410686 33.7165179,33.8695637 C32.0535714,33.992325 30.3236607,34.0481256 28.5714286,34.0481256 C26.8191964,34.0481256 25.1227679,33.992325 23.4821429,33.8918839 C22.5111607,32.4745489 21.5959821,31.0237335 20.7366071,29.5394378 C19.8772321,28.055142 19.0848214,26.548526 18.3370536,25.0084297 Z M38.4933036,30.7224103 C39.0625,29.7403199 39.5982143,28.7470694 40.1227679,27.7426587 C40.8370536,29.3608759 41.4620536,31.0014133 42.0089286,32.6865912 C40.2790179,33.0771953 38.5267857,33.3785185 36.7633929,33.5794006 C37.3660714,32.6419507 37.9352679,31.6821805 38.4933036,30.7224103 Z M40.1004464,22.1849198 C39.5758929,21.2028293 39.0401786,20.2207389 38.4821429,19.2609687 C37.9352679,18.3123587 37.3660714,17.3749087 36.7745536,16.4486189 C38.5714286,16.6718213 40.2901786,16.9731445 41.8973214,17.3414284 C41.3839286,18.9931259 40.78125,20.6001829 40.1004464,22.1849198 L40.1004464,22.1849198 Z M28.59375,9.62978658 C29.765625,10.9020401 30.8705357,12.2412543 31.8973214,13.625109 C29.6875,13.5246679 27.4665179,13.5246679 25.2566964,13.625109 C26.3504464,12.1854537 27.4776786,10.8462395 28.59375,9.62978658 Z M15.6473214,2.78863401 C17.5223214,1.69494241 21.6852679,3.25735898 26.0714286,7.14108018 C26.3504464,7.38660278 26.6294643,7.65444562 26.9196429,7.92228846 C25.1897321,9.78602823 23.59375,11.7725293 22.1316964,13.8483113 C19.609375,14.0715137 17.109375,14.4621178 14.6316964,15.0089636 C14.4866071,14.4397976 14.3638393,13.8594714 14.2410714,13.2791453 C13.1919643,7.87764799 13.8839286,3.80420478 15.6473214,2.78863401 L15.6473214,2.78863401 Z M12.9129464,32.2067061 C12.4441964,32.0727846 11.9866071,31.9277031 11.5290179,31.7714614 C9.15178571,31.0237335 6.45089286,29.840761 4.49776786,28.2895045 C3.37053571,27.5082962 2.61160714,26.3030034 2.39955357,24.9526291 C2.39955357,22.9103275 5.92633929,20.2988598 11.015625,18.5244009 C11.6517857,18.3011986 12.2991071,18.1003164 12.9464286,17.9105944 C13.7053571,20.3323401 14.6205357,22.7094453 15.6808036,25.0084297 C14.609375,27.3408945 13.6830357,29.75148 12.9129464,32.2067061 L12.9129464,32.2067061 Z M25.9263393,43.1436221 C24.0848214,44.8288 21.953125,46.1680142 19.6316964,47.0831439 C18.3928571,47.6746301 16.9642857,47.7304307 15.6919643,47.2282254 C13.9174107,46.2014945 13.1808036,42.2619727 14.1852679,36.9609165 C14.3080357,36.3359499 14.4419643,35.7109832 14.5982143,35.0971767 C17.0982143,35.6328624 19.6205357,36.0011463 22.1763393,36.1908683 C23.6495536,38.2778105 25.2678571,40.2754717 26.9977679,42.1503715 C26.640625,42.4963352 26.2834821,42.8311388 25.9263393,43.1436221 Z M28.6607143,40.4317133 C27.5223214,39.2041003 26.3839286,37.8425658 25.2790179,36.3805903 C26.3504464,36.4252308 27.4553571,36.4475511 28.5714286,36.4475511 C29.7209821,36.4475511 30.8482143,36.4252308 31.9642857,36.3694302 C30.9375,37.7867653 29.8325893,39.1371396 28.6607143,40.4317133 L28.6607143,40.4317133 Z M43.2477679,43.7797488 C43.1473214,45.1412833 42.4776786,46.4135368 41.40625,47.2728659 C39.6316964,48.2995968 35.8482143,46.9603826 31.7633929,43.4561054 C31.2946429,43.0543411 30.8258929,42.6190965 30.3459821,42.1726918 C32.0535714,40.2866318 33.6272321,38.2889706 35.0558036,36.1908683 C37.6116071,35.9788261 40.15625,35.5882219 42.6674107,35.0190559 C42.7790179,35.4766208 42.8794643,35.9341856 42.96875,36.3805903 C43.515625,38.7911759 43.6049107,41.3022025 43.2477679,43.7797488 L43.2477679,43.7797488 Z M45.2790179,31.7826216 C44.9665179,31.8830626 44.6540179,31.9835037 44.3303571,32.0727846 C43.5491071,29.6398788 42.5892857,27.2627736 41.484375,24.9526291 C42.5558036,22.675965 43.4598214,20.3323401 44.21875,17.9329147 C44.7991071,18.1003164 45.3571429,18.2788783 45.8928571,18.4574402 C51.09375,20.2430592 54.7433036,22.8991673 54.7433036,24.9303089 C54.7433036,27.1176921 50.8482143,29.941202 45.2790179,31.7826216 Z M28.5714286,30.1086038 C31.3950893,30.1086038 33.6830357,27.8207795 33.6830357,24.9972696 C33.6830357,22.1737596 31.3950893,19.8859354 28.5714286,19.8859354 C25.7477679,19.8859354 23.4598214,22.1737596 23.4598214,24.9972696 C23.4598214,27.8207795 25.7477679,30.1086038 28.5714286,30.1086038 Z" id="Shape"></path>
                    </g>
                </g>
            </g>
        </g>
    </g>
</svg>