<?xml version="1.0" encoding="UTF-8"?>
<svg width="651.883734px" height="641.02329px" viewBox="0 0 651.883734 641.02329" version="1.1" xmlns="http://www.w3.org/2000/svg" xmlns:xlink="http://www.w3.org/1999/xlink">
    <title>react-spring</title>
    <defs>
        <radialGradient cx="33.4343983%" cy="32.3892024%" fx="33.4343983%" fy="32.3892024%" r="64.0150297%" gradientTransform="translate(0.334344,0.323892),scale(1.000000,0.998082),rotate(54.654717),translate(-0.334344,-0.323892)" id="radialGradient-1">
            <stop stop-color="#FFFFFF" stop-opacity="0.904382" offset="0%"></stop>
            <stop stop-color="#FF6D6D" offset="100%"></stop>
        </radialGradient>
    </defs>
    <g id="Page-1" stroke="none" stroke-width="1" fill="none" fill-rule="evenodd">
        <g id="Homepage" transform="translate(-199.035971, -415.791372)" fill-rule="nonzero">
            <g id="react-spring" transform="translate(199.035971, 415.791372)">
                <path d="M290.092907,527.021391 C288.36115,527.935407 286.527753,528.160966 284.345285,527.629776 C282.032319,527.006916 279.581232,524.842335 278.749403,522.754901 C278.004772,520.941904 278.061085,515.95661 279.135332,511.697282 C273.45091,510.434013 262.250478,507.683182 256.662097,506.144694 C216.052609,494.972657 184.922795,479.697707 168.861588,463.328185 C160.179068,454.478991 156.463269,446.315926 156.503265,437.512282 C156.544399,431.014266 158.508471,425.691829 163.502449,419.297976 C167.599848,414.052851 175.274811,407.697757 183.963917,402.409841 C173.293155,399.527591 157.440646,394.679257 148.789015,391.606876 C134.453651,386.474451 117.628852,378.663966 109.184447,373.200688 C94.4246019,363.711913 85.0660485,353.597723 79.2836719,341.310216 C75.7217335,333.768788 74.1760466,326.61306 74.535751,319.820798 C74.9020219,312.904532 77.2323622,306.332369 81.5807235,300.082873 C88.70974,289.849794 102.84175,279.199751 123.315434,268.880644 C127.621641,266.697579 134.445743,263.600219 139.596223,261.363669 C125.127142,251.587366 115.682536,239.49891 112.738208,227.609437 C111.798877,223.779987 111.693526,216.081539 112.513782,212.528701 C117.49513,191.387284 145.839788,168.237923 193.353432,148.470766 C197.15417,146.883185 208.125816,142.687589 213.654271,140.67268 C213.303814,134.377083 214.724351,130.590064 220.349334,124.588723 C224.048954,120.730394 227.937485,118.581457 232.628826,117.748021 C234.777226,117.373478 236.320015,117.481617 237.449933,117.844328 C239.288072,118.434383 240.516504,119.600127 241.263491,121.598925 C241.950585,123.480937 241.916166,124.974261 241.072469,126.719715 C240.588084,127.721818 239.658232,128.930673 237.925451,130.620866 C236.562416,131.929533 236.101278,132.413821 235.790405,133.604396 L236.198012,133.604396 C245.119286,130.863587 265.297982,126.036381 278.174582,123.564312 C325.28515,114.538395 380.743482,110.996334 422.479694,114.362337 C460.280332,117.389133 501.684891,126.008648 514.973582,133.433508 C518.970813,135.647617 522.16466,138.754858 523.852878,141.843169 C525.138047,144.284021 525.362122,145.053165 525.362122,149.100674 C525.362122,153.380013 525.119313,153.985863 523.821213,156.386879 C519.487422,164.360905 507.138066,169.943939 477.348244,174.440491 C439.243088,180.199535 377.88376,183.011375 331.37665,181.091754 C285.587169,179.225015 251.201763,172.867233 232.159983,163.014289 C229.865133,161.823574 229.171866,160.952879 228.594958,161.070475 C227.999345,161.184573 223.346943,162.760262 218.221433,164.478151 C190.06217,174.056805 167.586593,184.858503 153.25096,195.85278 C149.292708,198.878457 143.549762,204.398741 141.086455,207.571831 C139.015612,210.225151 136.942856,214.048371 136.704118,216.147019 C136.383549,218.733965 137.725454,221.496653 140.035221,224.452004 C142.948971,228.180152 147.473014,232.090298 153.414385,236.064188 C157.440133,238.740076 168.817813,244.839854 173.644951,246.871948 L179.890179,245.580313 C210.416268,234.901703 247.286084,225.586798 283.867213,219.305163 C333.281163,210.825384 393.981269,205.623812 451.715703,204.99704 C486.117635,204.626011 505.919263,205.978843 527.06865,210.096996 C543.580044,213.309681 559.612775,219.081316 566.383716,224.114069 C571.214116,227.673214 574.428638,231.795912 576.07605,236.162848 C577.812357,240.765421 577.864903,245.684598 576.081994,250.687319 C571.436741,263.711823 553.104119,275.497038 522.252141,284.185663 C493.076113,292.402301 452.810357,298.15571 403.997328,300.689444 C374.857278,302.238982 332.396116,302.421344 308.792341,301.129948 C248.52256,297.795566 202.334993,289.670201 169.648636,276.737457 L167.422819,275.848748 C152.5094,281.09606 130.853961,290.836713 120.835744,296.702323 C112.499752,301.611904 105.172707,307.203382 101.713054,311.497482 C99.567315,314.147866 98.2997035,316.602219 98.1027435,319.27721 C97.8982441,322.054601 98.8131235,324.980401 100.576375,328.42496 C103.363103,333.797432 109.907422,340.98556 115.876601,345.360404 C134.296148,358.842266 168.507528,371.685991 212.969596,382.04591 L222.602136,384.275635 L228.828941,382.149623 C269.95215,367.993948 326.594088,357.077238 381.354982,352.789685 C411.716307,350.423585 446.249007,350.131882 471.494922,352.054282 C491.549728,353.577973 508.686172,356.111966 523.27905,359.681494 C536.163013,362.863676 545.752982,366.635313 552.392297,371.100376 C559.794353,376.078391 563.722175,381.962219 564.82576,388.795723 C565.668672,394.018116 564.478519,399.002613 561.397535,403.446626 C558.580678,407.509663 554.107257,411.143754 548.050825,413.970288 C530.435297,422.127663 498.265788,427.238738 448.12845,429.586857 C435.63416,430.140516 392.900057,430.140891 379.673778,429.586904 C324.394841,427.153366 272.15516,421.103876 224.253293,411.627213 L215.191415,409.825898 L212.086365,411.17431 C203.083154,415.101798 193.478327,420.483479 187.313701,425.052907 C183.708321,427.728266 179.564618,432.019429 178.341114,434.578588 C177.683966,435.918116 177.623177,436.183138 177.709368,437.524063 C177.878058,439.902388 178.814957,441.530363 181.104172,444.432676 C191.036665,457.16711 217.147118,470.894623 249.96591,481.139876 C262.468994,485.035623 275.972466,488.457454 289.5841,491.188348 L296.170575,492.512019 C309.011847,487.12171 324.508444,485.05506 350.454697,485.055063 C380.286203,485.092232 412.922385,489.263288 423.022722,491.655685 C434.81981,494.449979 443.156547,500.073748 444.680885,503.768794 C445.619832,506.159779 445.700347,508.734854 445.059638,511.059957 C444.388447,513.495688 442.936763,515.625851 440.954863,516.962979 C438.040835,518.942957 429.128163,520.817707 415.960432,521.733638 C406.655744,522.400429 379.468578,522.625885 367.078553,522.144469 C344.506913,521.293807 328.90281,519.887566 308.369069,516.892579 L301.895719,515.958957 C298.517097,517.771423 296.032732,520.261007 294.282038,522.90656 C292.870594,525.011088 291.484213,526.28706 290.092907,527.021391 Z M404.590325,404.036407 C419.969578,404.292763 426.330972,404.255763 446.816813,403.852832 C471.540397,403.343041 497.233344,400.984048 514.706963,397.633473 C523.276563,395.999016 530.90076,393.994048 535.871088,391.276073 C533.162722,390.041957 529.483557,388.722691 525.78916,387.627676 C507.893391,382.39571 484.487144,379.001544 451.882738,376.892841 C442.025835,376.235282 395.607328,376.274129 384.539978,376.894698 C347.285203,379.050841 314.721488,383.17801 283.233991,389.793776 C279.227647,390.641469 274.483144,391.712385 269.939585,392.778716 C313.869035,399.36121 360.534244,403.264054 404.590325,404.036407 L404.590325,404.036407 Z M482.385522,265.519269 C516.996897,260.124563 543.420563,251.788454 553.088753,244.423407 C552.219307,243.818391 551.079878,243.130213 549.995497,242.585626 C539.169466,237.050834 518.487222,233.108879 492.257025,231.388748 C481.470653,230.694813 441.713191,230.809592 423.788378,231.576886 C338.043128,235.368945 272.604463,244.369223 215.111648,260.435491 C230.6931,264.182485 251.136425,267.722341 269.374047,269.760994 C303.645957,273.601444 342.97681,275.099694 380.08266,273.965882 C421.363407,272.721979 452.987385,270.092298 482.385522,265.519269 Z M411.966066,153.448255 C440.212047,152.481361 464.421607,150.380938 481.190463,147.511409 C478.912928,146.968216 476.600116,146.447119 474.457535,146.003417 C437.405932,138.312334 398.817919,135.915452 355.474597,138.685524 C330.044369,140.318907 304.893797,143.433346 281.627444,147.869399 C299.552028,150.707576 320.739163,152.499842 348.424675,153.558694 C355.647782,153.85169 402.992475,153.777506 411.966066,153.448255 L411.966066,153.448255 Z" id="Shape" fill="#1B1A22" transform="translate(325.941867, 320.511645) scale(-1, 1) rotate(-140.000000) translate(-325.941867, -320.511645) "></path>
                <ellipse id="Oval" fill="url(#radialGradient-1)" cx="334.580657" cy="329.074787" rx="129.846394" ry="130.095925"></ellipse>
                <path d="M583.02331,319.171793 C585.561439,320.176684 586.136979,320.4846 588.887482,323.762871 C591.48892,326.863303 591.811798,327.59654 592.396548,330.292943 C593.088345,333.743881 592.638848,338.176684 591.000289,342.442584 C585.593095,356.67165 559.415829,389.888915 532.404604,416.505893 C502.59626,445.911937 457.835973,478.846037 415.945323,502.214096 C404.492085,508.597406 385.93151,517.869921 377.335829,521.505031 L377.02331,521.7669 L355.522879,530.58129 C353.358823,531.367728 350.34171,532.434228 347.23491,533.514681 L345.158801,534.234131 C341.013517,535.665478 337.010373,537.016496 334.958848,537.656396 C285.855539,553.055534 249.262157,553.54129 231.856691,540.547909 L248.061582,522.226756 C249.59367,523.681146 253.63856,525.277693 256.930648,525.979275 C260.857554,526.826468 268.805179,527.364025 273.78187,527.137262 C291.830792,526.344743 315.991367,520.172081 343.719714,509.40949 C348.749929,507.430787 353.327195,505.64719 353.856691,505.351937 L402.967482,481.375534 C423.642014,469.8187 444.909929,456.037981 465.440576,440.943303 C500.424173,415.2046 528.443742,388.5646 551.883167,358.856396 C553.239139,357.139562 554.67626,355.253518 556.071367,353.373231 L583.02331,319.171793 Z M562.442592,213.341002 C567.023885,216.027045 570.14561,219.829635 571.774389,224.471361 C573.319139,228.87539 573.506764,234.099563 572.094389,239.93093 C570.142157,248.1387 561.570648,262.865606 550.987051,275.940137 C537.43252,292.68949 523.133239,306.454096 496.541582,328.283159 C451.911367,364.913953 402.069067,399.946468 358.764892,425.213231 C326.70446,443.914815 292.473095,460.478843 262.22446,471.920571 L256.610073,474.945031 L221.212662,485.730065 C215.829065,487.32719 208.610648,489.341002 203.90849,490.436828 C181.591943,495.692081 163.920576,496.61755 151.881439,493.361146 C144.533525,491.368628 138.523741,487.831937 133.79741,482.76949 C129.15626,477.797406 125.740432,471.322009 123.621871,463.255821 L148.215252,459.439418 C149.078562,463.211506 150.258418,466.040859 152.200288,468.037406 C154.070792,469.959706 156.619281,471.025031 159.966619,471.675965 C165.377267,472.741865 174.584173,472.31539 184.126044,470.718268 C195.570648,468.771793 218.42072,462.313665 233.217842,456.747046 L279.656979,437.901003 C334.026476,413.252368 389.94072,378.084025 458.062735,325.8728 C472.287195,314.9387 502.816692,289.471075 510.63367,282.006325 C529.621295,263.827909 542.931223,247.51424 547.666764,236.31539 C548.147339,235.201146 548.577842,233.94129 548.855251,232.919131 L562.442592,213.341002 Z M453.002014,105.759534 C458.123167,107.08316 462.334389,110.236541 465.045179,114.779275 C468.592229,120.723448 469.365757,127.75539 466.894964,136.326901 C464.679139,144.014959 459.757123,153.068196 451.933239,163.78762 C443.048632,175.902153 431.549929,188.8587 417.16662,202.916829 C399.063023,220.616973 372.42187,242.591075 347.642592,260.294096 C302.937554,292.20949 252.530073,320.255534 211.928634,335.845175 L205.792231,338.2187 L184.172662,344.748196 L164.537555,349.163737 C154.482303,350.698125 144.51741,350.763159 138.007482,349.378987 C130.071943,347.690931 125.1459,344.875965 120.937555,339.9246 C115.248346,333.206325 112.84777,324.5646 113.810648,312.204887 L135.334677,318.810356 C135.446907,322.505318 135.77554,324.354528 137.175252,326.284887 C137.971224,327.367478 138.187626,327.531506 139.552231,328.135246 C142.134677,329.308771 148.067339,329.932656 152.54849,329.664456 C155.545825,329.483609 160.469155,328.634065 165.352232,327.66684 L166.975736,327.340831 C173.442211,326.0254 179.448727,324.609606 180.334544,324.399575 L180.446619,324.372943 L180.446619,324.372943 L236.589353,301.277118 L236.714411,301.213256 C237.777143,300.670443 245.336115,296.806859 248.691798,295.018125 C277.065323,279.846325 304.663598,262.07654 334.588201,239.78129 C343.465323,233.143016 379.048632,203.335246 386.177267,196.495534 C409.797985,173.922872 425.546476,156.277405 435.892376,140.766038 C438.018417,137.5528 439.29151,134.221577 441.270217,131.490642 L453.002014,105.759534 Z" id="Shape" fill="#1B1A22"></path>
            </g>
        </g>
    </g>
</svg>