<?xml version="1.0" encoding="UTF-8"?>
<svg width="25px" height="15px" viewBox="0 0 25 15" version="1.1" xmlns="http://www.w3.org/2000/svg" xmlns:xlink="http://www.w3.org/1999/xlink">
    <title>api-svgrepo-com</title>
    <g id="Page-1" stroke="none" stroke-width="1" fill="none" fill-rule="evenodd">
        <g id="Homepage" transform="translate(-622.500000, -843.500000)">
            <g id="skills" transform="translate(490.000000, 545.000000)">
                <g transform="translate(0.000000, 212.000000)" id="languages">
                    <g id="api-svgrepo-com" transform="translate(130.000000, 79.000000)">
                        <rect id="Rectangle" x="0" y="0" width="30" height="30"></rect>
                        <path d="M25,7.5 L5,7.5 C3.61928813,7.5 2.5,8.61928813 2.5,10 L2.5,20 C2.5,21.3807119 3.61928813,22.5 5,22.5 L25,22.5 C26.3807119,22.5 27.5,21.3807119 27.5,20 L27.5,10 C27.5,8.61928813 26.3807119,7.5 25,7.5 Z M11.6125,18.5 L11.25,17.1625 L8.95,17.1625 L8.5875,18.5 L6.4625,18.5 L8.75,11.3375 L11.3625,11.3375 L13.75,18.5 L11.6125,18.5 Z M19.5375,14.575 C19.4475712,14.8712649 19.2939889,15.1443001 19.0875,15.375 C18.8526756,15.6182941 18.566571,15.8061837 18.25,15.925 C17.8501145,16.0727298 17.4262386,16.1447887 17,16.1375 L16.45,16.1375 L16.45,18.5 L14.5,18.5 L14.5,11.3625 L17,11.3625 C17.7234966,11.3102578 18.4418033,11.5186554 19.025,11.95 C19.5005312,12.3775117 19.7538894,12.999391 19.7125,13.6375 C19.7054005,13.9574232 19.646295,14.27406 19.5375,14.575 Z M22.7625,18.5 L20.825,18.5 L20.825,11.3625 L22.7625,11.3625 L22.7625,18.5 Z M10.5625,14.4125 L10.8625,15.575 L9.35,15.575 L9.65,14.4125 C9.65,14.25 9.75,14.0625 9.8,13.825 C9.85,13.5875 9.9125,13.35 9.9625,13.1125 C10.0147346,12.9148481 10.0564598,12.7145674 10.0875,12.5125 C10.0875,12.675 10.175,12.875 10.225,13.1375 L10.4125,13.8625 L10.5625,14.4125 Z M17.55,13.1625 C17.689014,13.3057418 17.761567,13.500728 17.75,13.7 C17.7569296,13.884729 17.7090914,14.0673837 17.6125,14.225 C17.5302352,14.3485396 17.4126091,14.444383 17.275,14.5 C17.1287281,14.5614531 16.9711119,14.5912724 16.8125,14.5875 L16.425,14.5875 L16.425,12.925 L16.925,12.925 C17.1375006,12.9152651 17.3449009,12.991913 17.5,13.1375 L17.55,13.1625 Z" id="Shape" fill="#000000" fill-rule="nonzero"></path>
                    </g>
                </g>
            </g>
        </g>
    </g>
</svg>