<?xml version="1.0" encoding="UTF-8"?>
<svg width="30px" height="19.7601123px" viewBox="0 0 30 19.7601123" version="1.1" xmlns="http://www.w3.org/2000/svg" xmlns:xlink="http://www.w3.org/1999/xlink">
    <title>typescript-svgrepo-com(2)</title>
    <g id="Page-1" stroke="none" stroke-width="1" fill="none" fill-rule="evenodd">
        <g id="Homepage" transform="translate(-512.000000, -677.000000)" fill="#007ACC" fill-rule="nonzero">
            <g id="skills" transform="translate(490.000000, 545.000000)">
                <g transform="translate(0.000000, 48.000000)" id="languages">
                    <g id="typescript-svgrepo-com(2)" transform="translate(22.000000, 84.000000)">
                        <path d="M25.0934134,0.177513327 C26.1173715,0.415726591 27.0478282,0.951900688 27.7673745,1.71837893 C28.1637321,2.13319873 28.507897,2.59491295 28.7922125,3.09324964 C28.805444,3.14737841 26.947023,4.39594866 25.8199417,5.09240548 C25.7790444,5.1200713 25.6166581,4.94325065 25.4326203,4.67140395 C25.0141047,3.95200996 24.2556024,3.49781696 23.4238416,3.46854244 C22.1283597,3.37953068 21.2935738,4.05794458 21.2995881,5.19224299 C21.2883967,5.47091202 21.351938,5.74750337 21.483626,5.99334876 C21.7687041,6.5827509 22.2979632,6.93639219 23.9603178,7.65690624 C27.0203975,8.9740396 28.3339223,9.84250561 29.144651,11.0766415 C30.0722665,12.6550524 30.2554025,14.5625724 29.6450413,16.2886405 C28.8010946,18.1930607 26.9901851,19.4895281 24.9153899,19.6746956 C23.8324285,19.7989204 22.7382021,19.7876064 21.6580409,19.6410155 C20.0035005,19.3691497 18.4793478,18.5750392 17.3084936,17.3748244 C16.8660875,16.8766594 16.4915529,16.3221379 16.1946439,15.7257013 C16.3194858,15.6328323 16.4509478,15.5492112 16.5879796,15.4755061 C16.7780317,15.3672486 17.4973429,14.9534642 18.1757568,14.5601285 L19.407487,13.8384116 L19.6648993,14.2137044 C20.0984566,14.83371 20.6503274,15.3618709 21.2887624,15.7678014 C22.6036951,16.4890452 24.2128568,16.4076099 25.4482575,15.5573007 C26.0932091,14.9286721 26.1945875,13.9280672 25.6888298,13.182852 C25.35684,12.7077217 24.6784261,12.3083717 22.7502391,11.472383 C21.2383054,10.9625661 19.8611869,10.1175442 18.7218559,9.00050255 C18.1792691,8.38219008 17.7785652,7.65262972 17.5478631,6.86301763 C17.3772614,5.96349517 17.3520823,5.04242722 17.4732857,4.13492772 C17.9369594,1.99577874 19.6880625,0.374422575 21.856513,0.0764729596 C22.9344428,-0.0523343922 24.0256158,-0.0182732493 25.0934134,0.177513327 Z M15.0579397,1.96135696 L15.0711712,3.7103176 L9.5019224,3.7103176 L9.5019224,19.5255408 L5.57457955,19.5255408 L5.57457955,3.71392618 L0.00533072684,3.71392618 L0.00533072684,1.99623994 C-0.00948107578,1.40800466 0.006579151,0.819397348 0.0534451875,0.232844957 C0.0738938333,0.205179142 3.459949,0.191947665 7.56531536,0.199164834 L15.0362882,0.21961348 L15.0579397,1.96135696 Z" id="Shape"></path>
                    </g>
                </g>
            </g>
        </g>
    </g>
</svg>