<?xml version="1.0" encoding="UTF-8"?>
<svg width="50px" height="50px" viewBox="0 0 50 50" version="1.1" xmlns="http://www.w3.org/2000/svg" xmlns:xlink="http://www.w3.org/1999/xlink">
    <title>Typescript_logo_2020</title>
    <g id="Page-1" stroke="none" stroke-width="1" fill="none" fill-rule="evenodd">
        <g id="Homepage" transform="translate(-603.000000, -566.000000)">
            <g id="Typescript_logo_2020" transform="translate(603.000000, 566.000000)">
                <rect id="Rectangle" fill="#3178C6" fill-rule="nonzero" x="0" y="0" width="50" height="50" rx="3"></rect>
                <path d="M31.1335511,39.9673946 L31.1335511,44.8823875 C31.9298832,45.2919947 32.8717235,45.599102 33.959072,45.8039057 C35.0464205,46.0087093 36.1923832,46.1111111 37.3971559,46.1111111 C38.5713005,46.1111111 39.6866351,45.9984986 40.7433554,45.7731753 C41.8000758,45.5479502 42.7266509,45.1767313 43.522983,44.6596169 C44.319315,44.1426006 44.9497854,43.4667289 45.4142961,42.6321983 C45.8788068,41.7976676 46.1111111,40.7660896 46.1111111,39.5373659 C46.1111111,38.6464799 45.9784217,37.8657519 45.7129451,37.1950838 C45.4474684,36.5244157 45.0646654,35.9279717 44.5643403,35.4057519 C44.064113,34.8835321 43.4642708,34.4150168 42.7649116,34.0003041 C42.0655524,33.5855915 41.2768529,33.1939511 40.3988131,32.8253831 C39.7556218,32.5591188 39.1787753,32.3006106 38.6682734,32.0497605 C38.1577715,31.7988123 37.7238889,31.5428568 37.3665278,31.281796 C37.0091667,31.020637 36.7335133,30.7441619 36.5395676,30.4523707 C36.3456218,30.1604813 36.2485511,29.8303017 36.2485511,29.4616355 C36.2485511,29.1237979 36.3353472,28.8191451 36.5089394,28.5477754 C36.6825316,28.2764057 36.9275568,28.0435225 37.2440152,27.8489296 C37.5605713,27.6544349 37.9484628,27.5033357 38.4078851,27.3958285 C38.8674053,27.2883214 39.3778093,27.2346169 39.9393908,27.2346169 C40.3477336,27.2346169 40.779072,27.2653472 41.2334059,27.3267098 C41.6877399,27.3881705 42.1446181,27.4829143 42.6041383,27.6108429 C43.0635606,27.7388697 43.5101641,27.9001796 43.9441446,28.0946743 C44.3780271,28.2892672 44.7787374,28.5144923 45.1462753,28.770546 L45.1462753,24.1780747 C44.4010227,23.8913889 43.5867835,23.6789272 42.7036553,23.5406897 C41.8205271,23.4024521 40.8071559,23.3333333 39.6637374,23.3333333 C38.4997696,23.3333333 37.3971559,23.4588075 36.3557986,23.7096576 C35.3144413,23.9605077 34.3981408,24.352148 33.6067992,24.8845785 C32.8155556,25.4171073 32.1902715,26.0954334 31.7308491,26.9197534 C31.2714268,27.7439751 31.0416667,28.7295067 31.0416667,29.8763482 C31.0416667,31.3406058 31.4628283,32.5898491 32.3051515,33.6240781 C33.1473769,34.6582088 34.4261269,35.5336806 36.1414015,36.2504933 C36.815221,36.5269684 37.4431471,36.7982399 38.0250821,37.0645043 C38.607017,37.3307687 39.1098864,37.6072438 39.5334943,37.8939296 C39.9572001,38.1806154 40.2915657,38.4929262 40.5366888,38.8308621 C40.781714,39.1686997 40.9042266,39.552682 40.9042266,39.9828089 C40.9042266,40.3002251 40.8276073,40.594569 40.6744665,40.8659387 C40.5213258,41.1373084 40.2890215,41.3727443 39.9776515,41.5724425 C39.6662816,41.7721408 39.2782923,41.9282471 38.8137816,42.0408597 C38.349173,42.1535704 37.8055966,42.2098276 37.1827588,42.2098276 C36.1209501,42.2098276 35.069416,42.0229909 34.0279609,41.6492193 C32.9866035,41.275546 32.0217677,40.7149377 31.1335511,39.9673946 L31.1335511,39.9673946 Z M22.8982955,27.8576676 L29.1824495,27.8576676 L29.1824495,23.8242337 L11.6666667,23.8242337 L11.6666667,27.8576676 L17.9200947,27.8576676 L17.9200947,45.8165709 L22.8982955,45.8165709 L22.8982955,27.8576676 Z" id="Shape" fill="#FFFFFF"></path>
            </g>
        </g>
    </g>
</svg>