<?xml version="1.0" encoding="UTF-8"?>
<svg width="26.2259138px" height="30px" viewBox="0 0 26.2259138 30" version="1.1" xmlns="http://www.w3.org/2000/svg" xmlns:xlink="http://www.w3.org/1999/xlink">
    <title>xml-document-svgrepo-com</title>
    <g id="Page-1" stroke="none" stroke-width="1" fill="none" fill-rule="evenodd">
        <g id="Homepage" transform="translate(-568.000000, -836.000000)">
            <g id="skills" transform="translate(490.000000, 545.000000)">
                <g transform="translate(0.000000, 212.000000)" id="languages">
                    <g id="xml-document-svgrepo-com" transform="translate(78.000000, 79.000000)">
                        <path d="M2.37884636,0 C1.06471425,0 0,1.06518308 0,2.37884636 L0,27.6211536 C0,28.9352858 1.06471425,30 2.37884636,30 L23.8390973,30 C25.1522918,30 26.2179437,28.9352858 26.2179437,27.6211536 L26.2179437,9.52148025 L17.3561081,0 L2.37884636,0 L2.37884636,0 Z" id="Path" fill="#FC7B24"></path>
                        <g id="Group" transform="translate(17.350058, 0.011252)" fill-rule="nonzero">
                            <path d="M8.87585538,9.54163997 L8.87585538,10.0104705 L2.87529278,10.0104705 C2.87529278,10.0104705 -0.0839658387,9.41974402 0.0018301575,6.86602385 C0.0018301575,6.86602385 0.0993469182,9.54163997 2.81668896,9.54163997 L8.87585538,9.54163997 Z" id="Path" fill="#FB5C1B"></path>
                            <path d="M0.013550922,0 L0.013550922,6.82664208 C0.013550922,7.60302552 0.531139883,9.54163997 2.87529278,9.54163997 L8.87585538,9.54163997 L0.013550922,0 Z" id="Path" fill="#FFFFFF" opacity="0.5"></path>
                        </g>
                        <path d="M9.06390161,25.256841 C8.96216537,25.256841 8.86980575,25.2151151 8.81026426,25.1302568 L7.06293269,22.8001688 L5.30716217,25.1302568 C5.24808952,25.2151151 5.15572989,25.256841 5.05399366,25.256841 C4.86833675,25.256841 4.71596681,25.1133789 4.71596681,24.919283 C4.71596681,24.8517714 4.73331354,24.7758208 4.78394724,24.7167482 L6.60722937,22.3111785 L4.9105315,20.0486021 C4.86833675,19.9895295 4.84301989,19.9220178 4.84301989,19.8545062 C4.84301989,19.6936974 4.9780431,19.5164794 5.18057791,19.5164794 C5.28231415,19.5164794 5.38358155,19.5671131 5.45062433,19.6515026 L7.06293269,21.8207817 L8.67524106,19.6425948 C8.73384488,19.5582053 8.82714217,19.5160106 8.92840957,19.5160106 C9.10562753,19.5160106 9.27393771,19.6594727 9.27393771,19.8540374 C9.27393771,19.921549 9.25752864,19.9890606 9.21533389,20.0481333 L7.51863602,22.3022707 L9.34191814,24.7162794 C9.38411289,24.775352 9.40146071,24.8428636 9.40146071,24.9108441 C9.40192846,25.096501 9.25002735,25.256841 9.06390161,25.256841 L9.06390161,25.256841 Z M15.8408476,25.2484021 C15.6467518,25.2484021 15.4948507,25.096501 15.4948507,24.9024051 L15.4948507,20.5638469 L13.6040569,25.1391645 C13.5782713,25.2062073 13.5102908,25.2484021 13.4263702,25.2484021 C13.3588586,25.2484021 13.2918158,25.2062073 13.2660301,25.1386957 L11.3832065,20.5633781 L11.3832065,24.9019363 C11.3832065,25.0960321 11.2313054,25.2479332 11.0287706,25.2479332 C10.8346747,25.2479332 10.6827736,25.0960321 10.6827736,24.9019363 L10.6827736,20.0907969 C10.6827736,19.7869946 10.9448499,19.5249183 11.2650612,19.5249183 C11.4929128,19.5249183 11.7292035,19.6599416 11.8220319,19.8793543 L13.4338714,23.8048727 L15.0546188,19.8793543 C15.147916,19.6599416 15.3762365,19.5249183 15.6120583,19.5249183 C15.9327384,19.5249183 16.1943502,19.7865258 16.1943502,20.0907969 L16.1943502,24.9024051 C16.1952836,25.096501 16.0433825,25.2484021 15.8408476,25.2484021 L15.8408476,25.2484021 Z M20.7851349,25.1977684 L18.2271953,25.1977684 C17.9487099,25.1977684 17.7208583,24.9699167 17.7208583,24.6909625 L17.7208583,19.8545062 C17.7208583,19.6688493 17.8727594,19.5164794 18.0837331,19.5164794 C18.2693901,19.5164794 18.4212912,19.6683805 18.4212912,19.8545062 L18.4212912,24.573286 L20.7851349,24.573286 C20.953914,24.573286 21.0884695,24.7083092 21.0884695,24.8770882 C21.0889372,25.0627452 20.953914,25.1977684 20.7851349,25.1977684 L20.7851349,25.1977684 Z" id="Shape" fill="#FFFFFF" fill-rule="nonzero"></path>
                    </g>
                </g>
            </g>
        </g>
    </g>
</svg>