<?xml version="1.0" encoding="UTF-8"?>
<svg width="125px" height="125.459559px" viewBox="0 0 125 125.459559" version="1.1" xmlns="http://www.w3.org/2000/svg" xmlns:xlink="http://www.w3.org/1999/xlink">
    <title>Group</title>
    <g id="Page-1" stroke="none" stroke-width="1" fill="none" fill-rule="evenodd">
        <g id="Homepage--hover" transform="translate(-1138.000000, -783.066176)" fill="#FFFFFF" fill-rule="nonzero">
            <g id="recent-projects" transform="translate(490.000000, 695.000000)">
                <g id="kaliber-interactive" transform="translate(480.000000, 48.000000)">
                    <g id="Group" transform="translate(168.000000, 40.066176)">
                        <path d="M125,62.7297794 C125,97.374182 97.0175,125.459559 62.5,125.459559 C27.9825,125.459559 0,97.374182 0,62.7297794 C0,28.0853768 27.9825,0 62.5,0 C97.0175,0 125,28.0853768 125,62.7297794 Z M78.37125,10.1220772 C78.2348893,9.95259025 78.0330254,9.84946196 77.81625,9.8385386 C77.32375,9.81344669 76.85875,10.2814108 76.36875,10.7719577 C76.10625,11.0354228 75.75875,11.2888511 75.59375,11.2286305 C75.495,11.1935018 75.485,11.1596278 75.48125,11.149591 C75.37625,10.7920313 75.93875,9.43330423 76.44375,8.68054688 C76.48625,8.64918199 77.48125,7.31303768 77.56625,7.20639706 C77.7825,6.94042279 78.185,6.51386029 78.35,6.21150276 C78.5325,5.87778033 78.5725,5.52022059 78.405,5.18273437 C78.33,5.02967371 78.1925,4.99579963 78.06625,5.0321829 C78.0342119,5.02206907 77.9992778,5.02814658 77.9725,5.04849265 C77.72875,5.2329182 77.0775,5.75106618 76.75625,6.03585938 C76.36375,6.38589154 75.94875,6.25039522 75.75875,6.37209099 C75.44,6.57408088 75.13125,6.78610754 74.8425,7.01569853 C74.755,7.08595588 74.43875,7.09599265 74.32625,7.10352022 C74.2275011,7.11206011 74.1318699,7.14248321 74.04625,7.19259651 C73.5875,7.4510432 73.43875,7.65177849 72.9775,8.04572151 L72.96,8.05826746 C72.09,8.68556526 71.6975,8.96910386 71.585,9.88119485 C71.4475,10.985239 71.16375,13.2359835 71.04625,14.3186994 C70.895869,15.6452159 70.6179061,16.9540075 70.21625,18.2267647 C69.885,19.2492601 69.49625,20.2755193 69.12,21.2679044 C68.67125,22.4509881 68.2075,23.6767279 67.8325,24.9162684 C67.4575,26.1558088 67.12375,27.4003676 66.79875,28.606034 C66.14125,31.05375 65.5125,33.3910616 64.57625,35.7020267 C64.365,36.2214292 63.59625,36.1612086 63.47625,35.614205 C63.42125,35.3570129 63.20375,34.9455055 62.735,34.9404871 C62.7209522,34.8431143 62.6882684,34.7493886 62.63875,34.6644761 C62.38875,34.2416774 62.1075,34.1802022 61.90125,34.1350368 L61.83125,34.118727 C61.58375,34.0585064 61.46625,33.9920129 61.40375,33.8928998 C61.3975,33.8627895 61.41,33.7636765 61.42,33.6921645 L61.4325,33.613125 C61.4675,33.3747518 61.52375,33.0159375 61.31375,32.7374173 C61.1904008,32.5775975 61.0047341,32.4784852 60.80375,32.46517 C60.6675,32.4501149 60.35625,32.4538787 59.82375,32.4752068 L59.78875,32.4764614 C58.73375,32.5140993 58.455,32.2004504 57.84375,31.5166958 L57.81625,31.4865855 C57.67875,31.3310156 57.525,31.1603906 57.3475,30.9747105 C56.8175,30.4226884 56.30625,29.9911075 55.635,29.7389338 C55.4745333,29.6743688 55.3499798,29.5429466 55.29375,29.3788649 C55.13875,28.9523024 54.875,28.6612362 54.54375,28.5646324 C52.98125,28.0101011 48.97625,30.5092555 47.765,31.677284 C45.875,33.5002114 44.8525,35.5815855 44.81375,37.6930699 C44.77625,39.6941498 45.625,41.6588465 47.27125,43.3763879 C50.23,46.462693 53.5525,45.8027757 55.75,45.3649219 C56.34,45.2469899 56.85,45.1466222 57.20375,45.1528952 C57.9,45.1666958 57.94625,45.3937776 57.97125,45.5154733 C58.0675,45.9872013 57.0675,47.3471829 56.18625,48.5478309 C55.30375,49.7484789 54.30375,51.1084605 53.61125,52.4847518 C53.06125,53.5775046 52.59,54.8559375 52.39875,55.4380699 C52.28125,55.7906112 51.99875,56.8557629 51.72625,57.8845313 C51.56875,58.4767004 51.4175,59.0437776 51.3125,59.4226654 L51.30125,59.4577941 C50.98375,60.3234651 50.61125,61.142716 50.14875,62.1049908 C49.76375,62.9029136 49.4275,63.8325689 49.08875,65.0319623 C49.03125,65.2364614 48.97875,65.4409605 48.92625,65.6467142 C48.465,66.9891314 48.16375,68.3892601 47.83375,69.7868796 C47.4698785,71.3115493 46.9500354,72.7944077 46.2825,74.2118382 C46.21875,74.3122059 46.15125,74.4100643 46.08125,74.5066682 L46.06125,74.5267417 L45.92375,74.6898392 C45.9025,74.7149311 45.88625,74.7425322 45.87,74.7676241 C45.815,74.8366268 45.75875,74.9056296 45.7075,74.9746324 C45.29625,75.4952895 45.12875,75.9569807 44.9325,76.3333594 L44.90375,76.3985983 C44.7625,76.7963051 44.615,77.1952665 44.485,77.6092831 C44.4475,77.7284697 44.41625,77.8489108 44.3825,77.969352 C44.32625,78.1876517 44.14875,78.7020358 44.465,79.1273438 C44.51,79.1875643 44.5575,79.2515487 44.61125,79.3117693 L44.6125,79.3167877 C44.74,79.4723575 44.8375,79.622909 44.93,79.7684421 C44.93,79.7684421 45.01125,79.911466 45.03,80.0569991 C45.0575,80.423341 45.25625,80.699352 45.525,80.9126333 C45.6715076,81.025722 45.7690746,81.1910277 45.7975,81.3743244 C45.83,81.6001517 45.8925,81.8071599 46.015,81.9727665 C46.33125,82.4030928 46.88,82.2738695 47.2575,81.9978585 C47.4975,81.8197059 47.67125,81.5901149 47.81625,81.3391958 C47.89875,81.5324035 47.99,81.6992647 48.14875,81.847307 C48.3691098,82.0485637 48.6914762,82.0896973 48.955,81.9501838 C49.2775,81.7657583 49.28875,81.2287914 49.295,81.1886443 C49.37375,80.7382445 49.4025,80.4045221 49.5975,79.9779596 C49.725,79.6956756 49.86375,79.4234283 49.9875,79.1474173 L50,79.1160524 C50.1125,78.7961305 50.29625,78.3319301 50.41,77.9241866 L50.42375,77.863966 C50.47125,77.6130469 50.50125,77.4323851 50.50375,76.9769669 C50.52,76.6645726 50.4125,76.0234743 50.36625,75.6470956 C50.32875,75.4338143 50.29125,75.1201654 50.34125,74.7889522 C50.35625,74.6823116 50.36625,74.5706526 50.38,74.4589936 C50.3912157,74.3750276 50.4045534,74.291361 50.42,74.2080744 L50.43125,74.1478539 C50.44875,74.0562684 50.59625,73.5080101 50.595,73.5080101 C50.73,72.9760616 50.9225,72.3851471 51.23625,71.7013925 C52.04875,69.9336673 54.37875,65.3932858 54.72625,64.7898254 L54.92625,64.4460662 C55.0301621,64.278547 55.2098159,64.1733637 55.40625,64.1650368 C55.78875,64.1399449 56.17,63.9705744 56.49625,63.7108732 C56.90375,63.3846783 57.23375,63.0057904 57.51875,62.5942831 C57.83625,62.1376103 58.565,62.3358364 58.58875,62.8878585 C58.78875,67.6829228 57.845,71.8143061 57.79875,76.4437638 C57.78,78.2415993 57.3625,80.3857031 55.31375,82.5210248 C54.69875,83.1608686 52.5775,84.3928814 51.9675,85.0327252 C50.68,86.3851792 49.295,87.7050138 47.9425,89.0813051 L47.9,89.1227068 C46.55875,90.4877068 46.45,90.5993658 44.42125,90.6846783 L44.12125,90.6972243 C42.18375,90.7725 40.3525,90.8427574 40.17,93.5539384 C40.10875,94.4509743 40.16,95.4358318 40.20875,96.3893244 C40.24625,97.1094623 40.28375,97.8534375 40.27125,98.5321737 C40.23625,100.465506 40.33375,102.052569 41.905,103.406278 C42.63125,104.032321 43.23125,104.239329 43.7375,104.038594 C44.63625,103.682289 44.835,102.185556 45.04625,100.599747 C45.1675,99.6838925 45.29375,98.739182 45.5475,98.1281939 C45.98875,97.0617877 47.0775,95.3216636 48.0475,94.7407858 C48.2788031,94.6019488 48.5740193,94.6353277 48.76875,94.8223346 C49.19375,95.2300781 49.69,95.5750919 50.0975,95.6854963 C51.11,95.9615074 52.14625,95.4998162 53.02375,95.0268336 C54.12875,94.4296461 55.03625,93.5213189 55.91125,92.6443566 C56.16375,92.3921829 56.5825,92.072261 57.0525,91.7410478 C59.37375,90.6871875 61.6825,89.7249127 63.2225,87.8166728 C63.3075,87.7564522 63.3925,87.6987408 63.47625,87.6372656 C63.85125,87.3574908 64.39125,87.6033915 64.41375,88.0663373 L64.48,89.3397518 C64.575,91.1626792 64.67375,93.5689936 64.6825,95.4195221 C64.68625,96.1283686 64.62875,97.662739 64.57125,98.3866406 C64.4525,99.9047013 64.33,103.269527 64.73375,104.728621 C64.88375,105.270607 65.10875,105.588019 65.2875,105.843957 C65.54125,106.20528 65.725,106.466236 65.67125,107.353235 C65.6125,108.33182 65.25125,108.910188 64.7525,109.711875 L64.585,109.980358 C62.85125,112.795671 63.21625,113.381567 64.75375,115.846847 C65.1646998,116.482962 65.5410825,117.140913 65.88125,117.817817 C66.7175,119.432482 67.54375,121.037109 69.6225,121.343231 C70.3425,121.456144 71.0625,121.444013 71.19,121.444013 C71.76125,121.444013 72.45125,121.23659 72.585,120.452468 C72.6177763,120.246814 72.5808001,120.03607 72.48,119.854026 C72.34,119.599343 72.1325,119.496466 71.9575,119.399862 C71.795,119.307022 71.6525,119.227983 71.55,119.056103 C69.91625,116.329867 69.80875,114.498157 70.17875,111.169715 C70.2075,110.907505 70.2225,110.567509 70.2375,110.206186 C70.27,109.463465 70.3125,108.474844 70.505,107.935368 C70.5514996,107.808321 70.64202,107.702326 70.76,107.636774 C70.8475,107.58659 70.9525,107.532642 71.04125,107.487477 C71.49625,107.255377 72.06375,106.96682 72.35,106.424835 C73.15375,104.911792 72.96,101.144242 72.80375,98.7467096 C72.740453,97.3821823 72.7062785,96.016451 72.70125,94.650455 C72.73875,91.9192004 72.95125,89.36108 73.24375,87.1028079 C73.52125,84.9599586 74.11125,82.0342417 74.2,79.2026195 C74.4625,70.9285616 76.75875,57.547045 71.9525,47.7348529 C71.4425,46.5429871 70.21125,43.3111489 70.63125,41.1394439 C70.73125,40.6313327 70.95625,40.1294945 71.2025,39.6013097 C71.49,38.9840487 71.7875,38.3467142 71.87375,37.6441406 C71.9525,37.0005331 71.8675,36.395818 71.785,35.8111765 C71.72125,35.3595221 71.66,34.9329596 71.67125,34.4888327 C71.71625,32.4450965 72.2225,30.1680055 72.71375,27.9649357 C72.90125,27.1205928 73.07875,26.32267 73.2275,25.5485846 C73.41875,24.5624724 73.5475,23.4559191 73.68375,22.2841268 C73.95875,19.9279963 74.22875,17.4865533 75.055,15.7276103 C75.1625,15.4992739 75.2875,15.3825965 75.4925,15.1417142 C75.8625,14.7063695 76.36875,14.109182 76.89,13.1055055 C77.775,11.3967463 78.10125,11.1909926 78.37375,10.9036903 C78.57125,10.6929182 78.5825,10.3704871 78.37125,10.1220772 Z" id="Shape"></path>
                    </g>
                </g>
            </g>
        </g>
    </g>
</svg>