<?xml version="1.0" encoding="UTF-8"?>
<svg width="100px" height="100px" viewBox="0 0 100 100" version="1.1" xmlns="http://www.w3.org/2000/svg" xmlns:xlink="http://www.w3.org/1999/xlink">
    <title>logo</title>
    <g id="Page-1" stroke="none" stroke-width="1" fill="none" fill-rule="evenodd">
        <g id="Homepage--hover" transform="translate(-910.000000, -2009.000000)">
            <g id="older-projects" transform="translate(490.000000, 1931.000000)">
                <g id="anti-aging-labs" transform="translate(320.000000, 48.000000)">
                    <g id="logo" transform="translate(100.000000, 30.000000)">
                        <circle id="Oval" fill="#000000" cx="50" cy="50" r="50"></circle>
                        <g id="logo_ba5e059d" transform="translate(10.000000, 32.000000)" fill-rule="nonzero">
                            <path d="M69.2065362,35.6079078 L69.2065362,33.4143484 L77.932086,33.4143484 L77.932086,28.5900884 L79.8586489,28.5900884 L79.8586489,35.6079078 L69.2065362,35.6079078 Z M76.8196007,21.4461001 L74.9710427,22.2135841 C74.2192643,22.5271741 73.0601855,22.8559462 73.0601855,22.8559462 C73.0601855,22.8559462 74.2192643,23.1690127 74.9710427,23.4826027 L76.8196007,24.2500867 L76.8196007,21.4461001 Z M69.1128256,22.9187689 L69.1128256,22.7303008 L79.8586489,17.8589238 L79.8586489,20.1613758 L78.652453,20.6629104 L78.652453,24.9866829 L79.8586489,25.4876939 L79.8586489,27.6027249 L69.1128256,22.9187689 Z M77.932086,12.20331 C77.932086,11.3107041 77.3368409,10.7468703 76.4594172,10.7468703 C75.5976991,10.7468703 75.0029775,11.3258862 75.0029775,12.3284319 L75.0029775,14.2241069 L77.932086,14.2241069 L77.932086,12.20331 Z M73.1381903,12.5326056 C73.1381903,11.8274208 72.7465955,11.3578211 72.1356447,11.3578211 C71.5246939,11.3578211 71.1330991,11.7494159 71.1330991,12.4226659 L71.1330991,14.2241069 L73.1381903,14.2241069 L73.1381903,12.5326056 Z M69.2065362,16.4176663 L69.2065362,12.297544 C69.2065362,10.3081584 70.4598491,9.19567309 71.9634058,9.19567309 C72.9507693,9.19567309 73.6240192,9.77521252 73.9219035,10.6997533 C74.2663813,9.24279011 75.2375156,8.53760528 76.5693569,8.53760528 C78.4645084,8.53760528 79.8586489,9.88462872 79.8586489,12.1090759 L79.8586489,16.4176663 L69.2065362,16.4176663 Z M77.7598471,7.6292937 L76.7258902,5.84303486 C77.4933742,5.37343516 78.0572079,4.76248438 78.0572079,3.68193389 C78.0572079,2.7730988 77.6027904,2.19355936 76.9766574,2.19355936 C76.2248791,2.19355936 75.9584061,2.78828095 75.5196943,3.7913501 L75.2846327,4.33947818 C74.6108592,5.92156324 73.7653703,6.97122589 71.979635,6.97122589 C70.3347272,6.97122589 69.0814143,5.71791298 69.0814143,3.75993875 C69.0814143,2.36579827 69.5667197,1.36325265 70.8357383,0.642885656 L71.9325179,2.3500926 C71.2587445,2.72598177 70.9922715,3.13328229 70.9922715,3.75993875 C70.9922715,4.40230088 71.399572,4.8096014 71.9325179,4.8096014 C72.5900622,4.8096014 72.8565352,4.40230088 73.2638357,3.46257796 L73.4988973,2.91392635 C74.2977927,1.04966266 75.1123937,0 76.9452461,0 C78.918926,0 80,1.55119723 80,3.63481687 C80,5.67079595 79.0283422,6.98693157 77.7598471,7.6292937 Z" id="Labs" fill="#3EBBDE"></path>
                            <path d="M26.7818416,10.9410972 L24.9505598,6.37336317 C24.5840941,5.51216863 24.2181518,4.19760358 24.2181518,4.19760358 C24.2181518,4.19760358 23.8731505,5.51216863 23.5072083,6.37336317 L21.6759265,10.9410972 L26.7818416,10.9410972 Z M24.1317706,0.125645405 L24.3903907,0.125645405 L30.8103474,14.9266741 L28.4408845,14.9266741 L27.6006308,12.8582366 L20.9000661,12.8582366 L20.0598124,14.9266741 L17.8625884,14.9266741 L24.1317706,0.125645405 Z M36.542919,6.37336317 C35.9612855,5.74880081 35.1639607,4.73578473 35.1639607,4.73578473 C35.1639607,4.73578473 35.3147352,5.94250414 35.3147352,6.84715106 L35.3147352,14.9266741 L33.2033689,14.9266741 L33.2033689,0.125645405 L33.5049178,0.125645405 L41.5844409,8.80826642 C42.14461,9.41136437 42.9414113,10.4453213 42.9414113,10.4453213 C42.9414113,10.4453213 42.7906368,9.15274424 42.7906368,8.33395502 L42.7906368,0.276419891 L44.9020031,0.276419891 L44.9020031,15.0774486 L44.6219186,15.0774486 L36.542919,6.37336317 Z M51.7119841,2.27994058 L47.3599414,2.27994058 L47.3599414,0.276419891 L58.3261676,0.276419891 L58.3261676,2.27994058 L53.9741249,2.27994058 L53.9741249,14.9266741 L51.7119841,14.9266741 L51.7119841,2.27994058 Z M60.86944,14.9266741 L60.86944,0.276419891 L63.1321044,0.276419891 L63.1321044,14.9266741 L60.86944,14.9266741 Z" id="Anti" fill="#FFFFFF"></path>
                            <path d="M9.78149479,31.5951077 L6.48539699,23.2360236 C6.26970571,22.7187833 6.05401444,21.8999941 6.05401444,21.8999941 C6.05401444,21.8999941 5.83884668,22.7187833 5.62367892,23.2360236 L2.30559318,31.5951077 L9.78149479,31.5951077 Z M5.9252279,20.3917257 L6.1833245,20.3917257 L12.1300168,35.2147424 L11.2248464,35.2147424 L10.1045082,32.3704445 L2.00404421,32.3704445 L0.883706016,35.2147424 L-3.71985125e-15,35.2147424 L5.9252279,20.3917257 Z M13.4456289,27.8896153 C13.4456289,23.4297269 16.8275844,20.3917257 21.0073882,20.3917257 C22.9894445,20.3917257 24.8212498,20.9738828 26.0059812,22.223531 L25.4238242,22.826629 C24.3684028,21.7277552 22.8601344,21.1890505 21.0073882,21.1890505 C17.1940502,21.1890505 14.3502758,24.0548128 14.3502758,27.8896153 C14.3502758,31.7244177 17.1940502,34.59018 20.9859238,34.59018 C23.4852203,34.59018 25.0149531,33.7713908 25.9845168,32.8667439 L25.9845168,29.4622769 L21.2660083,29.4622769 L21.2660083,28.6864166 L26.8462349,28.6864166 L26.8462349,33.2112217 C25.6609799,34.4174176 23.7867693,35.3869813 20.9859238,35.3869813 C16.80612,35.3869813 13.4456289,32.3489801 13.4456289,27.8896153 Z M30.5747623,35.2147424 L30.5747623,20.5644882 L31.4584683,20.5644882 L31.4584683,35.2147424 L30.5747623,35.2147424 Z M37.4051606,23.2360236 C37.1245526,22.8695578 36.7371459,22.2664599 36.7371459,22.2664599 C36.7371459,22.2664599 36.8015392,22.9344746 36.8015392,23.3653336 L36.8015392,35.2147424 L35.9827499,35.2147424 L35.9827499,20.3917257 L36.2413701,20.3917257 L45.6134702,32.543207 C45.8930313,32.9096727 46.2809614,33.5127707 46.2809614,33.5127707 C46.2809614,33.5127707 46.2165682,32.8452795 46.2165682,32.4138969 L46.2165682,20.5644882 L47.0353574,20.5644882 L47.0353574,35.3869813 L46.7767373,35.3869813 L37.4051606,23.2360236 Z M50.4843238,27.8896153 C50.4843238,23.4297269 53.8662793,20.3917257 58.0460831,20.3917257 C60.0281393,20.3917257 61.8599446,20.9738828 63.0446761,22.223531 L62.4625191,22.826629 C61.4070977,21.7277552 59.8988293,21.1890505 58.0460831,21.1890505 C54.232745,21.1890505 51.3889707,24.0548128 51.3889707,27.8896153 C51.3889707,31.7244177 54.232745,34.59018 58.0246186,34.59018 C60.5239152,34.59018 62.053648,33.7713908 63.0232117,32.8667439 L63.0232117,29.4622769 L58.3047032,29.4622769 L58.3047032,28.6864166 L63.8849297,28.6864166 L63.8849297,33.2112217 C62.7001983,34.4174176 60.8254641,35.3869813 58.0246186,35.3869813 C53.8448148,35.3869813 50.4843238,32.3489801 50.4843238,27.8896153 Z" id="Aging" fill="#FFFFFF"></path>
                        </g>
                    </g>
                </g>
            </g>
        </g>
    </g>
</svg>