<?xml version="1.0" encoding="UTF-8"?>
<svg width="100px" height="100px" viewBox="0 0 100 100" version="1.1" xmlns="http://www.w3.org/2000/svg" xmlns:xlink="http://www.w3.org/1999/xlink">
    <title>logo</title>
    <g id="Page-1" stroke="none" stroke-width="1" fill="none" fill-rule="evenodd">
        <g id="Homepage--hover" transform="translate(-590.000000, -2259.000000)">
            <g id="older-projects" transform="translate(490.000000, 1931.000000)">
                <g id="anti-aging-labs" transform="translate(0.000000, 298.000000)">
                    <g id="logo" transform="translate(100.000000, 30.000000)">
                        <circle id="Oval" fill="#FFFFFF" cx="50" cy="50" r="50"></circle>
                        <g id="car-svgrepo-com" transform="translate(13.000000, 30.000000)" fill-rule="nonzero">
                            <path d="M58.1320195,17.630854 C64.8018648,17.630854 70.7512185,20.2903157 74.623861,24.4331426" id="Path" fill="#AEBCC3"></path>
                            <path d="M0,32.2208095 C0.895316804,33.8101293 2.65416402,34.885569 4.68319559,34.885569 L69.6333969,34.885569 C72.6001271,34.885569 75,32.5969485 75,29.773257 L75,28.3322738 L71.969697,28.3322738 C71.2539136,28.3471109 70.6601845,27.7817673 70.6399661,27.0661157 L70.6399661,21.1220598 C66.9335221,18.7366854 62.6191761,17.4677601 58.2114855,17.4666243 L58.3439288,17.4666243 L53.7878788,17.4454334 C49.3483789,7.90951473 40.7501589,0 29.4342022,0 C18.1341386,0 8.65649502,7.42742106 6.07649926,17.4401356 L4.68319559,17.4401356 C1.74825175,17.4401356 0.037084128,19.7075652 0.037084128,22.504768" id="Path" fill="#E8447A"></path>
                            <path d="M-2.25855924e-15,29.6937911 L1.1390125,29.6937911 C1.99896449,29.7136883 2.8315771,29.3910393 3.45356901,28.7968681 C4.07556091,28.2026969 4.43594588,27.3857093 4.45539309,26.525747 L4.45539309,25.0688705 C4.45539309,23.3206188 2.97202797,21.9061242 1.1390125,21.9061242 L0.0317863954,21.9061242" id="Path" fill="#F5BB1D"></path>
                            <path d="M7.8883238,32.2208095 C7.8883238,36.647631 11.6548624,40.2362789 16.3011231,40.2362789 C20.9473839,40.2362789 24.7139224,36.647631 24.7139224,32.2208095 C24.7139224,27.793988 20.9473839,24.2053401 16.3011231,24.2053401 C11.6548624,24.2053401 7.8883238,27.793988 7.8883238,32.2208095 Z" id="Path" fill="#455963"></path>
                            <path d="M12.7622378,32.2208095 C12.7622378,34.0845803 14.3466507,35.5954651 16.3011231,35.5954651 C18.2555955,35.5954651 19.8400085,34.0845803 19.8400085,32.2208095 C19.8400085,30.3570386 18.2555955,28.8461538 16.3011231,28.8461538 C14.3466507,28.8461538 12.7622378,30.3570386 12.7622378,32.2208095 L12.7622378,32.2208095 Z" id="Path" fill="#AEBCC3"></path>
                            <path d="M48.6172918,32.2208095 C48.6172918,36.647631 52.3814585,40.2362789 57.0247934,40.2362789 C61.6681283,40.2362789 65.432295,36.647631 65.432295,32.2208095 C65.432295,27.793988 61.6681283,24.2053401 57.0247934,24.2053401 C52.3814585,24.2053401 48.6172918,27.793988 48.6172918,32.2208095 Z" id="Path" fill="#455963"></path>
                            <path d="M53.4912058,32.2208095 C53.4912058,34.0845803 55.0756187,35.5954651 57.0300911,35.5954651 C58.9845635,35.5954651 60.5689765,34.0845803 60.5689765,32.2208095 C60.5689765,30.3570386 58.9845635,28.8461538 57.0300911,28.8461538 C55.0756187,28.8461538 53.4912058,30.3570386 53.4912058,32.2208095 L53.4912058,32.2208095 Z" id="Path" fill="#AEBCC3"></path>
                            <path d="M74.6291587,24.4490358 L74.6291587,24.4331426 C73.4388649,23.1715002 72.0992603,22.0596105 70.6399661,21.1220598 L70.6399661,27.0661157 C70.6399661,27.7654164 71.2386099,28.3322738 71.969697,28.3322738 L75,28.3322738 L75,24.8304726 L74.6291587,24.4490358 L74.6291587,24.4490358 Z" id="Path" fill="#F5BB1D"></path>
                            <path d="M28.2157237,3.30048739 C19.53274,3.82496292 12.380801,9.65776648 10.2828989,17.4401356 L28.2157237,17.4401356 L28.2157237,3.30048739 Z M31.537402,17.4401356 L49.4702267,17.4401356 C46.058487,10.2511125 39.7753761,4.22759059 31.537402,3.36406018 L31.537402,17.4401356 Z" id="Shape" fill="#631536"></path>
                        </g>
                    </g>
                </g>
            </g>
        </g>
    </g>
</svg>