<?xml version="1.0" encoding="UTF-8"?>
<svg width="100px" height="100px" viewBox="0 0 100 100" version="1.1" xmlns="http://www.w3.org/2000/svg" xmlns:xlink="http://www.w3.org/1999/xlink">
    <title>logo</title>
    <g id="Page-1" stroke="none" stroke-width="1" fill="none" fill-rule="evenodd">
        <g id="Homepage--hover" transform="translate(-1230.000000, -2259.000000)">
            <g id="older-projects" transform="translate(490.000000, 1931.000000)">
                <g id="anti-aging-labs" transform="translate(640.000000, 298.000000)">
                    <g id="logo" transform="translate(100.000000, 30.000000)">
                        <circle id="Oval" fill="#FFFFFF" cx="50" cy="50" r="50"></circle>
                        <g id="gglogo" transform="translate(20.000000, 11.000000)" fill-rule="nonzero">
                            <g id="Outlines_people_white_please_don_t_change_color_" transform="translate(0.000000, 37.000000)" fill="#FFFFFF">
                                <path d="M20.3846588,13.2471037 C21.0982225,13.960322 21.7264598,14.7526952 22.2569306,15.6085328 C22.7801559,16.4737848 23.2247258,17.3834366 23.585389,18.326743 C24.2847951,20.2273795 24.7203783,22.213408 24.8801828,24.2303156 C25.2034417,28.2367281 24.8026772,32.2681691 23.6967413,36.1349983 C23.8495269,35.1493583 23.9867751,34.1662851 24.074821,33.1755116 C24.162867,32.1847381 24.2612713,31.1965314 24.3027047,30.2108914 C24.4038117,28.237046 24.37007,26.2586816 24.2017108,24.2893514 C24.0416186,22.3280222 23.6665066,20.3898068 23.083009,18.5089837 C22.4914296,16.6171083 21.575097,14.8405334 20.3743005,13.2573708 M60.3601214,36.7946583 C58.4277151,35.1143424 56.6905688,33.2254836 55.1809463,31.1631634 C53.6149615,29.1084167 52.4223028,26.7988373 51.6565177,24.33812 C51.2760283,23.0909283 51.1054209,21.7901272 51.1515482,20.4879639 C51.1741533,19.8376347 51.251243,19.1902921 51.3820214,18.5526188 C51.5047765,17.9008488 51.7274708,17.2715458 52.0423663,16.6865765 C52.2117001,16.3799146 52.4343758,16.105326 52.7001215,15.8754769 C52.9845447,15.6375174 53.3365772,15.4931014 53.707471,15.4622268 C54.0631121,15.442424 54.4183506,15.5075641 54.743306,15.6521679 C54.8963448,15.7171652 55.0458787,15.7899883 55.1913047,15.8703434 C55.3389112,15.9524801 55.4813385,16.0371835 55.6185866,16.1270205 C56.7523437,16.8376424 57.5637121,17.9565564 57.8818861,19.2482137 L57.8818861,19.3149497 C57.5633669,20.2235865 57.3846853,21.2810961 57.7498172,22.1820326 C57.9393032,22.6277756 58.297103,22.9824229 58.7468084,23.1702393 C59.2073825,23.3532645 59.7009596,23.4406267 60.1969774,23.4269164 C60.687175,23.4405097 61.1722839,23.3253927 61.6031234,23.0932362 C62.0154702,22.8416456 62.3218357,22.4504361 62.465456,21.9920916 C62.760669,21.0680541 62.6441376,20.0413458 62.4110747,19.0942074 C61.8332751,17.188068 60.8975837,15.4071956 59.653164,13.8451613 C58.4335409,12.2806072 56.8634418,11.0187232 55.0670045,10.1592785 C54.9285162,10.094415 54.8541897,9.94280097 54.888323,9.79479709 L54.888323,9.77426292 C55.2653818,8.27661533 55.1361993,6.69770327 54.5206015,5.27984738 C54.2091333,4.59048359 53.7557602,3.97324394 53.1895535,3.46770725 C52.6064069,2.98851792 51.9153248,2.65570642 51.1748544,2.49746792 C50.4253322,2.32761388 49.6497206,2.30320824 48.8908383,2.42559834 C48.5195553,2.4776896 48.1587278,2.58680264 47.8213386,2.74901145 C47.4721319,2.91091098 47.1376941,3.10242007 46.8217578,3.32140132 C46.1961149,3.76267578 45.686382,4.34625626 45.3353346,5.02317031 C44.9957646,5.7312997 44.7352604,6.47408047 44.5584583,7.23829344 L44.5584583,7.25882761 C44.5206031,7.39190126 44.3832071,7.47134273 44.2477078,7.43850156 L44.1674306,7.40256677 C43.7647319,7.11632575 43.4091961,6.76998355 43.1134685,6.37585848 C42.8213382,6.00201986 42.5614627,5.60447912 42.3365922,5.18744364 C41.89832,4.36176421 41.5585229,3.48831563 41.3240635,2.58473812 C41.3060973,2.51676922 41.3330185,2.44492786 41.3913928,2.40506417 C41.5799678,2.27441118 41.7536303,2.12379537 41.9093103,1.95587929 C42.0653041,1.78530099 42.1984698,1.59550808 42.3055172,1.39118973 C42.5228323,0.974178061 42.6068376,0.50144669 42.5463488,0.0359347901 L42.5748343,0 L42.6136781,0.0256677072 C42.7245041,0.510631807 42.6829356,1.01759855 42.4945571,1.47845994 C42.4008014,1.70976108 42.2771982,1.92804334 42.1268356,2.12785293 C41.9798545,2.33392048 41.8056637,2.5195257 41.6089181,2.67970864 L41.6736578,2.49746792 C41.9375903,3.36147177 42.2989622,4.19322535 42.7509262,4.97696844 C42.9793244,5.36105803 43.2391562,5.72590978 43.5278025,6.06784599 C43.7996263,6.40052494 44.115869,6.69498388 44.4678228,6.94311481 L44.0742055,7.10482137 C44.2444937,6.29499539 44.5050516,5.5064351 44.8510817,4.75365938 C45.227172,3.98043021 45.7870158,3.30925214 46.4825219,2.79778009 C46.8257677,2.54463473 47.191545,2.32297826 47.5753278,2.13555324 C47.9680423,1.94229551 48.3879895,1.80902724 48.8209194,1.74027055 C49.6702639,1.5946542 50.5400498,1.61383184 51.3820214,1.79673951 C52.2412159,1.9703614 53.0426268,2.35517968 53.7126502,2.91585154 C54.3628238,3.48755582 54.8797446,4.19260674 55.2275589,4.98210198 C55.8925962,6.55552236 56.0128042,8.30303901 55.5693845,9.9513701 L55.3958821,9.56892126 C57.2711578,10.4858406 58.8964941,11.8362765 60.1348273,13.5063476 C61.3804298,15.1471887 62.289264,17.0142454 62.8098712,19.0018037 C63.0222174,20.0002775 63.1180321,21.0680541 62.7658482,22.0819285 C62.59118,22.5911787 62.2396761,23.0223663 61.7740362,23.2985779 C61.3052496,23.5505375 60.7764064,23.6720488 60.2435899,23.6502255 C59.7190906,23.6607245 59.1980568,23.5637276 58.7131437,23.3653139 C58.2165513,23.1528487 57.8183255,22.7636266 57.5970315,22.2744364 C57.3996452,21.7860669 57.3215597,21.2583563 57.3691478,20.7343739 C57.4049925,20.2179842 57.5103739,19.7086684 57.6824879,19.2199792 L57.6824879,19.289282 C57.3424713,18.0980531 56.5472584,17.0851711 55.465801,16.4658342 C54.9478835,16.1603885 54.3496887,15.8600763 53.808465,15.9268123 C53.2672412,15.9935484 52.8373696,16.4196323 52.5680525,16.9535206 C52.0320079,18.023864 51.8636847,19.2918488 51.811893,20.5238987 C51.7632965,21.7597512 51.9003157,22.9958991 52.2184582,24.1918141 C52.878803,26.6020118 54.1269842,28.8299688 55.5357198,30.9218869 C56.9799121,33.0093478 58.6138533,34.9613931 60.4170923,36.75359 L60.4170923,36.7997919 L60.3601214,36.7946583 Z M2.52686327,36.7458897 C4.19578344,34.9733624 5.69632253,33.0521361 7.00943927,31.0065904 C8.30423303,28.9531738 9.41257649,26.7868193 10.0133608,24.4664586 C10.3197097,23.315645 10.4720747,22.1299025 10.4665386,20.9397156 C10.4590781,19.7552248 10.2686957,18.5788483 9.90200853,17.4514742 C9.70519988,16.9201526 9.41257649,16.3708637 8.95939867,16.1860562 C8.72069585,16.1007052 8.45784411,16.1108321 8.22654541,16.2142907 C7.95454797,16.3309323 7.6899258,16.463792 7.43413162,16.6121401 C6.92025769,16.9071924 6.460567,17.2864588 6.07459818,17.7338189 C5.68813285,18.1709106 5.42700893,18.7027391 5.31843862,19.2738814 L5.31843862,19.2174124 C5.48957732,19.7063677 5.5949318,20.2155533 5.63177871,20.7318071 C5.68014516,21.2560384 5.60111572,21.7841268 5.40130542,22.2718696 C5.18169576,22.7613229 4.7841217,23.1508117 4.28778279,23.3627471 C3.80276357,23.5608064 3.281805,23.6577893 2.75733656,23.6476587 C2.22558313,23.6669993 1.69822622,23.5456242 1.22947992,23.2960111 C0.763166908,23.0199175 0.41079998,22.5887969 0.235078315,22.0793618 C-0.117105588,21.0731877 -0.0238804372,20.005411 0.191055327,18.9992369 C0.712797635,17.0120918 1.62152943,15.1452455 2.86609924,13.5037808 C4.10479002,11.8330453 5.73113837,10.4825065 7.60763399,9.56635449 L7.4185941,9.95650364 C6.97573095,8.30832227 7.09499735,6.56125888 7.75783006,4.98723552 C8.10749882,4.19879438 8.6241493,3.49411213 9.27273876,2.92098508 C9.94330691,2.36114478 10.7444938,1.97643405 11.6033675,1.80187305 C12.4453392,1.61896538 13.3151251,1.59978774 14.1644696,1.74540409 C14.597624,1.81462453 15.0176289,1.94877665 15.4100612,2.14325356 C15.7939324,2.32852487 16.1597498,2.5484872 16.5028671,2.80034686 C17.196472,3.31418115 17.7551482,3.98590462 18.1317177,4.75879292 C18.4776681,5.51159948 18.738223,6.30015083 18.9085939,7.10995491 L18.512387,6.94824835 C18.8643408,6.70011742 19.1805835,6.40565849 19.4524073,6.07297954 C19.7418644,5.73075266 20.0017409,5.36497961 20.2292836,4.97953521 C20.6838278,4.19797366 21.0453351,3.36676982 21.306552,2.50260146 L21.3738813,2.68484218 C21.1716503,2.52570561 20.9921882,2.34005325 20.8404262,2.13298647 C20.6918169,1.93157476 20.5691577,1.71256117 20.4752944,1.48102671 C20.2869622,1.0210522 20.2453882,0.514914102 20.3561734,0.0308012487 L20.3976068,0.00513354145 L20.4235026,0.0410683316 C20.3630138,0.506580231 20.4470192,0.979311602 20.6643343,1.39632327 C20.7713871,1.60001583 20.9036099,1.78970467 21.0579516,1.96101283 C21.2142539,2.12829558 21.3878447,2.27884923 21.5758691,2.41019771 C21.6355618,2.44903201 21.6628413,2.52182946 21.6431984,2.58987166 C21.4002035,3.49534935 21.0535362,4.37031331 20.6099529,5.19771072 C20.3844708,5.61438832 20.1246274,6.01187982 19.8330767,6.38612556 C19.5348808,6.7789859 19.1787041,7.12510193 18.776525,7.41283385 C18.6600642,7.48777111 18.5047011,7.45833103 18.4243411,7.34609781 L18.3880868,7.26909469 L18.3880868,7.24599376 C18.2111656,6.48181476 17.9506659,5.73904663 17.6112106,5.03087062 C17.2625125,4.35316137 16.7533849,3.76925657 16.1273769,3.32910163 C15.8111212,3.10993566 15.4757291,2.91923543 15.1252066,2.75927853 C14.7885269,2.59478032 14.4274645,2.4847297 14.0557069,2.43329865 C13.2967513,2.31030771 12.5208562,2.33559422 11.7716907,2.507735 C11.0290694,2.660718 10.3350308,2.99014614 9.74922287,3.46770725 C9.18145879,3.97185103 8.72782736,4.58944238 8.41817488,5.27984738 C7.80125638,6.69737754 7.6720382,8.27672586 8.05045345,9.77426292 L8.05045345,9.79479709 C8.08570789,9.94155481 8.01217499,10.092684 7.8743615,10.1567118 C6.07724156,11.0162213 4.50631255,12.2780598 3.28561241,13.8425945 C2.04129735,15.4033564 1.10638997,17.1835381 0.530291292,19.0890739 C0.297228415,20.038779 0.180696977,21.0654873 0.478499542,21.9895248 C0.621268266,22.4490523 0.928973244,22.8407959 1.34342177,23.0906694 C1.77653513,23.323961 2.26468341,23.4382765 2.75733656,23.4217829 C3.25254766,23.4359483 3.74537207,23.3485633 4.20491598,23.1651058 C4.65509273,22.9779847 5.01312266,22.6231093 5.20190718,22.1768991 C5.56703902,21.2759625 5.38835748,20.218453 5.0724278,19.3098162 L5.0724278,19.2533472 C5.26146769,17.9494277 6.19630879,16.9432536 7.24509173,16.2681929 C7.51315035,16.0973096 7.79260527,15.9446635 8.0815285,15.8113077 C8.41251659,15.654324 8.79173409,15.6295107 9.1406698,15.7420049 C9.47299031,15.8734739 9.75799469,16.1005412 9.95897946,16.3939646 C10.1424582,16.6637485 10.2912165,16.9551946 10.4017989,17.2615331 C11.2373656,19.6347907 11.2980681,22.2085314 10.5753013,24.617898 C9.88134262,26.985046 8.79816378,29.2225082 7.36939194,31.2401665 C5.98586756,33.2647476 4.37617279,35.1280436 2.57088626,36.7946583 L2.52427368,36.7946583 L2.52686327,36.7458897 Z M42.758695,13.2086022 C42.2770317,14.0402359 41.8238539,14.8847034 41.427647,15.7548387 C41.0314401,16.624974 40.6844354,17.5130767 40.3736849,18.4140132 C39.7725871,20.2191319 39.3391867,22.0749249 39.0788911,23.9582379 C38.8126933,25.839452 38.7104584,27.7398962 38.7733198,29.6385016 C38.7961364,31.5354743 38.9990187,33.4261089 39.3792833,35.2853972 L39.7470047,37 L38.8458283,35.4856053 C38.068952,34.2022199 37.2765382,32.9368019 36.4401014,31.6970517 C35.6096152,30.4534202 34.6978559,29.2650295 33.7106762,28.1395075 C33.2201549,27.5836981 32.675421,27.0772949 32.0844152,26.6276795 C31.7958687,26.4090523 31.4693774,26.2446352 31.1210887,26.1425598 C30.7789226,26.0485126 30.4119776,26.1272049 30.139635,26.353035 C29.5595674,26.7919528 29.2436377,27.5132154 29.0261124,28.2165106 C28.8133798,28.9345405 28.6839278,29.6742688 28.6402638,30.4213666 C28.6483936,29.6686311 28.7439751,28.9193291 28.9251185,28.1882761 C29.1219271,27.4695803 29.4067817,26.7175165 30.0282827,26.2067291 C30.1838559,26.0775621 30.3645479,25.9814598 30.5591482,25.9243843 C30.7610722,25.8781974 30.9709564,25.8781974 31.1728804,25.9243843 C31.5566225,26.0174009 31.9199641,26.179203 32.2449697,26.4018037 C32.8788335,26.8335792 33.4601758,27.3365875 33.9774037,27.9007978 C35.0102332,29.0109748 35.9670595,30.1883232 36.8414875,31.424974 C37.729716,32.6493236 38.5635632,33.9044745 39.3430291,35.2058273 L38.8251116,35.4163025 C38.4092165,33.5215314 38.1733961,31.5922953 38.1207438,29.6539022 C38.0764829,27.7192038 38.2012487,25.7843384 38.4936444,23.8709677 C38.7923441,21.9610029 39.3003172,20.0890257 40.0085531,18.2882414 C40.7050437,16.4882555 41.6291371,14.7831373 42.758695,13.2137357" id="Shape"></path>
                                <path d="M28.5116916,30.9703827 L28.3008547,30.9703827 L28.3008547,31.4869664 L28.5960264,31.4869664 C28.67775,31.4136829 28.7251304,31.3084057 28.7263619,31.1973664 C28.7307814,31.1372719 28.7098599,31.0781098 28.668858,31.0347561 C28.6278562,30.9914024 28.5706747,30.9679815 28.5116916,30.9703827 M28.7723627,32.269669 L28.4886912,31.6982961 L28.3008547,31.6982961 L28.3008547,32.269669 L27.9980162,32.269669 L27.9980162,30.7512259 L28.5806928,30.7512259 C28.692487,30.7327168 28.8065765,30.7656228 28.8923568,30.8411168 C28.9781372,30.9166108 29.0268276,31.0269651 29.025367,31.1425772 C29.0152516,31.331086 28.9186433,31.5036838 28.7646959,31.6082853 L29.1480358,32.2540149 L28.7723627,32.269669 Z M28.5423588,30.2933449 C28.2146597,30.2589925 27.8888442,30.3742646 27.65224,30.6082653 C27.4156358,30.8422659 27.2924395,31.1710645 27.3156712,31.5065339 C27.3156712,32.3205446 27.6990111,32.719723 28.4886912,32.719723 C28.8155425,32.7432838 29.1359278,32.6184377 29.3642727,32.3785308 C29.5926176,32.1386239 29.7056618,31.8080942 29.6732114,31.4752258 C29.7081069,31.1577554 29.6009682,30.84114 29.3815653,30.6133553 C29.1621624,30.3855707 28.8538727,30.2708875 28.5423588,30.3011719 M28.4695242,32.9858418 C27.4690072,32.9858418 27.0013325,32.4614311 27.0013325,31.5495826 C26.9835165,31.1248991 27.1450342,30.7128221 27.4449004,30.4179164 C27.7447666,30.1230107 28.1541585,29.9736222 28.5691926,30.0076585 C28.9531677,29.9652507 29.3355882,30.100454 29.6116359,30.3762103 C29.8876837,30.6519666 30.0284004,31.0393482 29.9952169,31.4321772 C30.018838,31.8542803 29.8648884,32.2666128 29.5720498,32.5655715 C29.2792112,32.8645301 28.8753196,33.0216971 28.4618574,32.9975824" id="_R_"></path>
                            </g>
                            <path d="M45.6868541,15.7123288 L16.6641938,15.7123288 C15.2237637,15.7140157 14.0564862,16.8780685 14.0547945,18.3145193 L14.0547945,60.7138968 C14.0570497,62.1499491 15.2241625,63.3133811 16.6641938,63.3150677 L45.6868541,63.3150677 C47.1288829,63.3161952 48.299111,62.1519405 48.3013699,60.7138968 L48.3013699,18.3145193 C48.2996782,16.8780685 47.1324007,15.7140157 45.6919705,15.7123288 M45.6919705,15.9868344 C46.9802094,15.988522 48.0239531,17.0298387 48.0250805,18.3145193 L48.0250805,60.7138968 C48.0233893,61.9981789 46.9798104,63.0388748 45.6919705,63.0405613 L16.6641938,63.0405613 C15.3751552,63.0405613 14.3297079,61.9993732 14.328014,60.7138968 L14.328014,18.3145193 C14.3291436,17.0286443 15.3747562,15.9868344 16.6641938,15.9868344 L45.6919705,15.9868344 Z" id="Outline_white_please_don_t_change_color_" fill="#FFFFFF"></path>
                            <g id="People" transform="translate(2.000000, 0.000000)">
                                <g id="People-2" transform="translate(0.000000, 37.000000)" fill="#AD1E2A">
                                    <path d="M20.5778935,1.9525614 C18.9223464,8.85922807 14.4493315,10.3833684 14.4493315,10.3833684 L7.61450406,10.2691228 C0.779676613,13.325193 0.0202513406,20.2292632 0,20.7952982 C0,21.5560702 0.460717998,22.3999298 1.06066396,22.5297544 C1.36949691,22.5946667 2.56685742,22.7037193 2.57951451,22.1506667 C2.57951451,21.005614 3.15920913,21.3717193 3.17946047,21.1847719 C3.27818576,20.2578246 2.5491375,18.9855439 2.5491375,18.9855439 C3.09845511,17.8534737 4.09330222,16.7214035 5.41723361,15.4776842 C6.741165,14.2339649 10.6041082,13.4394386 10.3838749,21.7092632 C10.2066757,28.3173333 4.62236849,34.7047018 2.39218961,37 L3.94901142,37 C7.52590445,33.3493333 14.1531557,27.0398596 17.1123828,27.8214035 C20.5247337,28.722386 19.8969421,35.4524912 19.7070858,37 L20.6133333,37 C24.6028474,21.5872281 17.4743755,12.9590877 17.4743755,12.9590877 C22.9042662,7.30392982 22.9169233,3.19368421 22.6030275,1.53452632 C21.4338325,1.13347421 20.2999115,0.631417101 19.2134594,0.033754386 C19.4723001,0.805966537 19.953336,1.47952771 20.593082,1.96554386" id="People-3"></path>
                                    <path d="M51.3877768,10.2691228 L44.5529493,10.3807719 C44.5529493,10.3807719 40.0799345,8.85663158 38.4269188,1.9525614 C38.4269188,1.9525614 39.4901142,1.18919298 39.8090728,0 C38.723822,0.603047444 37.5897368,1.1086522 36.4195046,1.51115789 C36.0980146,3.16512281 36.0980146,7.27017544 41.5354996,12.9487018 C41.5354996,12.9487018 35.5816054,20.8082807 38.3990732,36.989614 L39.3078521,36.989614 C39.1154644,35.4317193 38.4851414,28.712 41.9000237,27.8110175 C44.8592508,27.0320702 51.486502,33.3415439 55.0633951,36.989614 L56.6227483,36.989614 C54.390038,34.6943158 48.1374366,28.4549474 47.9602374,21.8494737 C47.7425354,13.5874386 51.886466,13.9379649 53.5951729,15.4776842 C54.9444184,16.6902456 55.9139514,17.8534737 56.463269,18.9855439 C56.463269,18.9855439 55.7342207,20.2578246 55.832946,21.1847719 C55.8506659,21.3665263 56.432892,21.005614 56.4354234,22.1506667 C56.4354234,22.7037193 57.6327839,22.5946667 57.9390854,22.5297544 C58.5440942,22.4025263 59.0124065,21.5560702 58.9997494,20.7952982 C58.9997494,20.2292632 58.227667,13.325193 51.3877768,10.2691228" id="People-4"></path>
                                    <path d="M25.1091309,7.97901754 L23.3751099,9.42785965 C23.3751099,9.42785965 22.0005501,12.8578246 26.1596692,17.2588772 C26.1596692,17.2588772 23.4054869,21.8027368 25.5369405,30.0985263 L25.9850014,29.9037895 C25.9850014,29.9037895 26.2381432,24.9107368 28.6834925,24.6043509 C31.1288419,24.2979649 34.7943346,30.0725614 34.7943346,30.0725614 L35.0626648,28.6990175 C35.0626648,28.6990175 31.4452691,25.1262456 31.4857718,20.9251228 C31.4857718,20.9251228 31.4300806,18.1416842 32.7008522,17.1212632 C32.7008522,17.1212632 34.8373687,15.2232281 35.8853755,13.2732632 C36.5065489,12.0952944 36.6502465,10.7137324 36.2853395,9.42785965 L34.5513185,7.97901754 C34.5513185,7.97901754 33.8298645,8.80210526 35.257584,10.1522807 C35.257584,10.1522807 34.4525932,14.0106667 31.5009603,15.2206316 L27.5392918,14.8 C25.8855452,13.7969294 24.7396139,12.1049379 24.400334,10.1652632 C24.400334,10.1652632 25.7116083,9.18638596 25.1091309,7.992" id="People-5"></path>
                                </g>
                                <g id="Heads" transform="translate(7.000000, 40.000000)" fill="#85101A">
                                    <path d="M19.7706577,10.8492123 C19.7706577,12.5900225 21.0354132,14 22.5834739,14 C24.1315346,14 25.3937605,12.5900225 25.3937605,10.8492123 C25.3937605,9.1084021 24.1290051,7.69842461 22.5834739,7.69842461 C21.0379427,7.69842461 19.7706577,9.1084021 19.7706577,10.8492123" id="Head"></path>
                                    <path d="M0,5.08852213 C0,7.89797449 2.02360877,10.1744186 4.53794266,10.1744186 C7.05227656,10.1744186 9.09106239,7.89797449 9.09106239,5.08852213 C9.09106239,2.27906977 7.06745363,0 4.53794266,0 C2.0084317,0 0,2.26856714 0,5.08852213" id="Head-2"></path>
                                    <path d="M45,5.08852213 C45,7.89797449 42.9763912,10.1744186 40.4595278,10.1744186 C37.9426644,10.1744186 35.9190556,7.89797449 35.9190556,5.08852213 C35.9190556,2.27906977 37.9426644,0 40.4595278,0 C42.9763912,0 45,2.26856714 45,5.08852213" id="Head-3"></path>
                                </g>
                                <g id="Flame" transform="translate(17.000000, 0.000000)" fill="#AD1E2A">
                                    <path d="M8.45473771,36 C8.45473771,36 2.5974445,30.4271012 4.0617678,23.9073756 C5.5260911,17.3876501 12.1900466,17.6012007 13.7288706,11.3670669 C15.2676946,5.1329331 9.55426468,0 9.55426468,0 C9.55426468,0 18.1937722,1.09605489 20.9040548,8.06603774 C23.6143374,15.0360206 19.2290744,19.9425386 15.6324909,21.8464837 C12.0359073,23.7504288 5.81895576,24.0463122 8.45473771,35.9974271" id="Flame-2"></path>
                                    <path d="M2.61542741,31.9476844 C0.89528783,29.3662882 -0.0154130904,26.3289841 0.000197373983,23.2255575 C0.0214585656,21.5611923 0.457702276,19.928537 1.26927757,18.4759863 C1.69481973,17.7377886 2.21854662,17.0609274 2.82608445,16.4639794 C3.40623076,15.9202575 4.02812602,15.4230163 4.68603194,14.9768439 C6.88765488,13.32247 8.90431065,11.3336192 9.59793748,8.93567753 C9.9454123,7.69966946 9.87404105,6.38317274 9.39498741,5.19210978 C8.92743155,3.92367067 8.03856161,2.76072041 6.99298339,1.67753002 C8.45965566,2.24121667 9.72770687,3.22569842 10.6383777,4.5077187 C11.1117706,5.1985222 11.4596435,5.96762066 11.665973,6.77958834 C11.8560437,7.62356394 11.8969097,8.49437759 11.7867155,9.35248714 C11.5243606,11.0239376 10.8200615,12.5945878 9.7469388,13.9013722 C8.75036478,15.1461365 7.58070143,16.2413325 6.27366668,17.1535163 C5.69988558,17.5224141 5.14988833,17.9271614 4.62694521,18.3653516 C4.15676691,18.7831509 3.73999547,19.2575936 3.38612389,19.7778731 C2.66763001,20.8722114 2.19274507,22.1086162 1.99373226,23.4030875 C1.55700425,26.1046312 1.92693856,29.0454545 2.62056539,31.9425386" id="Flame-3"></path>
                                    <path d="M10.1656839,34.093482 C9.5295907,32.3385191 9.53778652,30.41413 10.1888048,28.6646655 C10.5466469,27.7274352 11.1205695,26.8881622 11.8637851,26.2152659 C12.6045389,25.5480541 13.4661427,25.0292568 14.4019455,24.686964 C17.5104213,23.5265866 20.3363084,21.7667238 21.9778919,19.1732419 C22.7950348,17.8733903 23.3119959,16.40717 23.4910259,14.8816467 C23.6498299,13.2848136 23.547438,11.6727286 23.1878853,10.1089194 C22.5019655,6.96483705 20.7730364,3.91080617 17.9009075,1.87564322 C21.3099549,2.96140652 23.9817027,6.04888508 25.1634373,9.56346484 C25.7961634,11.3383871 26.0746038,13.2205015 25.9829445,15.102916 C25.8909915,17.0598823 25.298284,18.9603193 24.2617224,20.6217839 C23.2193127,22.249702 21.8328342,23.6286298 20.200152,24.661235 C18.6382071,25.7084048 16.8604673,26.390223 15.1546591,26.9022298 C13.6734448,27.210242 12.372478,28.0890383 11.5323856,29.3490566 C10.6794815,30.6483705 10.2478915,32.3464837 10.1656839,34.1012007" id="Flame-4"></path>
                                </g>
                            </g>
                        </g>
                    </g>
                </g>
            </g>
        </g>
    </g>
</svg>