<?xml version="1.0" encoding="UTF-8"?>
<svg width="100px" height="100px" viewBox="0 0 100 100" version="1.1" xmlns="http://www.w3.org/2000/svg" xmlns:xlink="http://www.w3.org/1999/xlink">
    <title>logo</title>
    <defs>
        <rect id="path-1" x="0" y="0" width="75" height="46.8551364"></rect>
    </defs>
    <g id="Page-1" stroke="none" stroke-width="1" fill="none" fill-rule="evenodd">
        <g id="Homepage--hover" transform="translate(-590.000000, -2009.000000)">
            <g id="older-projects" transform="translate(490.000000, 1931.000000)">
                <g id="de-buitenboordmotor" transform="translate(0.000000, 48.000000)">
                    <g id="logo" transform="translate(100.000000, 30.000000)">
                        <circle id="Oval" fill="#FFFFFF" cx="50" cy="50" r="50"></circle>
                        <g id="Group_451-Clipped" transform="translate(12.000000, 26.550000)">
                            <mask id="mask-2" fill="white">
                                <use xlink:href="#path-1"></use>
                            </mask>
                            <g id="Rectangle_308"></g>
                            <g id="Group_451" mask="url(#mask-2)" fill-rule="nonzero">
                                <g transform="translate(-0.008351, -0.000864)">
                                    <path d="M75.008351,34.7789381 C75.11557,38.3265492 73.4444124,41.6934493 70.5539922,43.7531851 C69.0960238,44.8000123 67.4651046,45.5819218 65.7359455,46.0630953 C63.8362158,46.6008669 61.869977,46.8672605 59.8956405,46.8548093 L38.2709491,46.8548093 L38.2709491,0.000864242243 L62.333333,0.000864242243 C63.8726668,-0.0201688054 65.3929461,0.343009037 66.7565654,1.0575253 C68.0483029,1.73907396 69.192018,2.67008256 70.1214984,3.79665289 C71.0553782,4.93715328 71.7812645,6.23310154 72.265947,7.62520622 C73.5449525,11.176911 73.1949865,15.1116318 71.3092182,18.381852 C70.1723813,20.3778039 68.4093226,21.9433678 66.2929451,22.8362108 C68.8224105,23.5254451 71.0580648,25.020866 72.6607614,27.0956197 C74.2800849,29.3239576 75.1049905,32.0311477 75.0034363,34.7838528 M46.3671025,7.7873914 L46.3671025,19.6006982 L58.5096944,19.6006982 C59.9812894,19.6298891 61.4011682,19.0577963 62.4414565,18.0165258 C63.5620944,16.8521276 64.1478671,15.274043 64.0583936,13.660461 C64.1420736,12.0919487 63.6094408,10.55284 62.5741534,9.37156388 C61.6392543,8.33920219 60.303592,7.76157003 58.9110618,7.7873914 L46.3671025,7.7873914 Z M65.8342582,33.0620687 C65.8361532,32.2401409 65.6907839,31.4245194 65.4050221,30.6538644 C65.1422869,29.9213711 64.7542599,29.2401065 64.2582582,28.6404746 C63.7845638,28.0773839 63.2009039,27.6169225 62.543027,27.2872931 C61.8659477,26.9547856 61.1200744,26.7864169 60.3658137,26.7958228 L46.3752937,26.7958228 L46.3752937,39.1366411 L59.8907258,39.1366411 C60.6948589,39.1430275 61.4918948,38.9858497 62.2334007,38.674659 C62.9420608,38.379126 63.582258,37.9408028 64.1140936,37.387007 C65.2190522,36.2198208 65.8331343,34.672592 65.8293248,33.0653451" id="Path_138" fill="#7FB069"></path>
                                    <path d="M2.35102595,27.090705 C3.95380524,25.0160398 6.18942707,23.5206406 8.71884229,22.8312961 C6.6025308,21.9383484 4.83950224,20.3728113 3.70256916,18.3769373 C1.81680092,15.1067171 1.46683488,11.1719963 2.74584039,7.62029152 C3.23127551,6.22918279 3.9577146,4.93434672 4.89192719,3.79501465 C5.82153455,2.6690038 6.9652456,1.73855533 8.25686024,1.0575253 C9.61999021,0.343274169 11.1396733,-0.0198957544 12.6784544,0.000864242243 L38.2758638,0.000864242243 L38.2758638,46.8548093 L15.1210616,46.8548093 C13.1467251,46.8672605 11.1804862,46.6008669 9.28075662,46.0630953 C7.55158542,45.5819539 5.92066084,44.8000418 4.46270983,43.7531851 C1.57206021,41.693645 -0.0991625733,38.3266136 0.00835103764,34.7789381 C-0.0930757834,32.0262496 0.731817395,29.3191002 2.35102595,27.090705 M9.64280638,35.4456994 C9.93398566,36.1677194 10.3592228,36.8280876 10.8960555,37.3919217 C11.4281065,37.9450557 12.0682767,38.3828028 12.7767484,38.6779355 C13.5182544,38.9891262 14.3152903,39.1463039 15.1194233,39.1399176 L28.6479614,39.1399176 L28.6479614,26.7941846 L14.6590795,26.7941846 C13.9048253,26.7848402 13.1589661,26.9532057 12.4818663,27.2856549 C11.8239894,27.6152842 11.2403294,28.0757457 10.766635,28.6388363 C10.2706333,29.2384683 9.8826063,29.9197329 9.6198711,30.6522262 C9.33386918,31.4228158 9.18849211,32.2384811 9.19058751,33.0604304 C9.1868863,33.8749244 9.34387903,34.6821566 9.65263578,35.43587 M16.110555,7.7873914 C14.7180248,7.76157003 13.3823625,8.33920219 12.4474633,9.37156388 C11.412176,10.55284 10.8795432,12.0919487 10.9632231,13.660461 C10.8723611,15.2757165 11.458235,16.8558548 12.5801603,18.0214405 C13.6204486,19.062711 15.0403274,19.6348039 16.5119224,19.6056129 L28.6545143,19.6056129 L28.6545143,7.7873914 L16.110555,7.7873914 Z" id="Path_139" fill="#E75B24"></path>
                                    <path d="M38.1808462,28.8272333 C35.0702408,28.8272333 32.548597,26.3055894 32.548597,23.1949841 C32.548597,20.0843787 35.0702408,17.5627349 38.1808462,17.5627349 L38.1808462,28.8272333 Z" id="Path_140" fill="#7FB069"></path>
                                    <path d="M38.1808462,17.5627349 C41.2914515,17.5627349 43.8130954,20.0843787 43.8130954,23.1949841 C43.8130954,26.3055894 41.2914515,28.8272333 38.1808462,28.8272333 L38.1808462,17.5627349 Z" id="Path_141" fill="#E75B24"></path>
                                </g>
                            </g>
                        </g>
                    </g>
                </g>
            </g>
        </g>
    </g>
</svg>