<?xml version="1.0" encoding="UTF-8"?>
<svg width="50px" height="50px" viewBox="0 0 50 50" version="1.1" xmlns="http://www.w3.org/2000/svg" xmlns:xlink="http://www.w3.org/1999/xlink">
    <title>icon</title>
    <g id="Page-1" stroke="none" stroke-width="1" fill="none" fill-rule="evenodd">
        <g id="Homepage" transform="translate(-505.000000, -2374.000000)">
            <g id="get-in-touch" transform="translate(490.000000, 2310.000000)">
                <g id="linkedin" transform="translate(0.000000, 48.000000)">
                    <g id="icon" transform="translate(15.000000, 16.000000)">
                        <circle id="Oval" fill="#FFFFFF" cx="25" cy="25" r="25"></circle>
                        <g id="linkedin-in(1)" transform="translate(10.000000, 10.000000)" fill="#2E2E2E" fill-rule="nonzero">
                            <path d="M6.71651786,30 L0.495535714,30 L0.495535714,9.97098214 L6.71651786,9.97098214 L6.71651786,30 Z M3.60267857,7.23883929 C1.61383929,7.23883929 0,5.59151786 0,3.60267857 C0,1.61297414 1.61297414,0 3.60267857,0 C5.592383,0 7.20535714,1.61297414 7.20535714,3.60267857 C7.20535714,5.59151786 5.59151786,7.23883929 3.60267857,7.23883929 Z M29.9933036,30 L23.7857143,30 L23.7857143,20.25 C23.7857143,17.9263393 23.7388393,14.9464286 20.5513393,14.9464286 C17.3169643,14.9464286 16.8214286,17.4709821 16.8214286,20.0825893 L16.8214286,30 L10.6071429,30 L10.6071429,9.97098214 L16.5736607,9.97098214 L16.5736607,12.703125 L16.6607143,12.703125 C17.4910714,11.1294643 19.5200893,9.46875 22.546875,9.46875 C28.8415179,9.46875 30,13.6138393 30,18.9977679 L30,30 L29.9933036,30 Z" id="Shape"></path>
                        </g>
                    </g>
                </g>
            </g>
        </g>
    </g>
</svg>