<?xml version="1.0" encoding="UTF-8"?>
<svg width="125px" height="125px" viewBox="0 0 125 125" version="1.1" xmlns="http://www.w3.org/2000/svg" xmlns:xlink="http://www.w3.org/1999/xlink">
    <title>logo</title>
    <g id="Page-1" stroke="none" stroke-width="1" fill="none" fill-rule="evenodd">
        <g id="Homepage--hover" transform="translate(-1137.000000, -1076.000000)">
            <g id="recent-projects" transform="translate(490.000000, 695.000000)">
                <g id="level-works" transform="translate(480.000000, 341.000000)">
                    <g id="logo" transform="translate(167.000000, 40.000000)">
                        <circle id="Oval" fill="#FECE00" cx="62.5" cy="62.5" r="62.5"></circle>
                        <g id="Group" transform="translate(9.533898, 42.372881)" fill="#000000" fill-rule="nonzero">
                            <path d="M71.1513559,20.2295438 C72.5819724,20.2297361 73.7418726,19.0745256 73.7420657,17.6493088 C73.7422587,16.224092 72.5826715,15.0685697 71.1520551,15.0683773 C70.2266085,15.0682529 69.371394,15.5599943 68.9085626,16.3583673 C68.4457311,17.1567404 68.4455979,18.1404531 68.908213,18.9389506 C69.3708281,19.737448 70.2259094,20.2294194 71.1513559,20.2295438 L71.1513559,20.2295438 Z M104.46178,32.4672895 C104.187712,31.9212227 103.775911,31.4580411 103.228475,31.0777446 C102.680339,30.6967516 101.99447,30.4028229 101.172267,30.1959583 C100.350064,29.9890937 99.3908263,29.8692934 98.2945551,29.8358607 C97.2807839,29.8031246 96.5536653,29.6916824 96.1138983,29.5015341 C95.6734322,29.3106894 95.4538983,29.0084024 95.4538983,28.5946733 C95.4538983,28.2645258 95.5818432,28.0075123 95.8398305,27.8250257 C96.0971186,27.6439321 96.4585805,27.5526888 96.9242161,27.5526888 L103.178136,27.5526888 L103.178136,24.1014634 L96.9738559,24.1014634 C95.1623517,24.1014634 93.7507627,24.4866355 92.7376907,25.2562832 C91.7239195,26.0259308 91.2177331,27.0971689 91.2177331,28.4706939 C91.2177331,29.8281991 91.7616737,30.8875964 92.8495551,31.6481894 C93.9374364,32.4094788 95.553178,32.8566406 97.6967797,32.9889782 C98.7594915,33.055147 99.5152754,33.1958428 99.9634322,33.410369 C100.412288,33.6262882 100.636716,33.9564357 100.636716,34.4035975 C100.636716,34.8674757 100.428369,35.2185186 100.013771,35.4588158 C99.5984746,35.699113 98.9916102,35.8189134 98.1945763,35.8189134 C97.7800827,35.8243759 97.3663135,35.7827813 96.9612712,35.6949339 C96.629204,35.6228333 96.3126754,35.4924073 96.0265042,35.3097619 C95.7697349,35.1447639 95.5494408,34.9293303 95.379089,34.6766309 C95.2021234,34.4032496 95.0754623,34.1006461 95.0050424,33.7830038 L90.8436864,33.7830038 C90.9268856,34.6606111 91.1506144,35.4337413 91.5162712,36.104484 C91.8778694,36.7700076 92.3793939,37.3499413 92.986589,37.8046739 C93.6011441,38.2678555 94.3401483,38.6154159 95.2043008,38.8473549 C96.0677542,39.0785975 97.0395763,39.1949153 98.1197669,39.1949153 C100.246589,39.1949153 101.902881,38.7693454 103.090742,37.9168126 C104.278602,37.0642799 104.872881,35.876724 104.872881,34.3541451 C104.872881,33.6430046 104.735847,33.0133562 104.46178,32.4672895 L104.46178,32.4672895 Z M90.6199576,24.10216 L85.7608475,24.10216 L80.9513771,29.2403415 L80.9513771,18.6400996 L76.8648305,18.6400996 L76.8648305,38.8717329 L80.9513771,38.8717329 L80.9513771,34.3792196 L82.4965042,32.7410193 L86.3830932,38.8717329 L91.1429237,38.8717329 L85.2616525,29.7864082 L90.6199576,24.1014634 L90.6199576,24.10216 Z M65.7762712,27.0066221 L65.7762712,38.8717329 L69.8628178,38.8717329 L69.8628178,27.6265193 L75.4196822,27.6265193 L75.4196822,24.10216 L68.2428814,24.10216 L65.7762712,27.0066221 L65.7762712,27.0066221 Z M60.2194068,31.4991354 C60.2194068,30.8708801 60.1236229,30.2913807 59.9327542,29.7613337 C59.7570042,29.2588517 59.4912186,28.7922966 59.1483051,28.3843262 C58.8234345,28.0013185 58.4197757,27.6922943 57.9646398,27.4781618 C57.5010221,27.2614439 56.9945387,27.1510094 56.4824364,27.1549795 C55.9496822,27.1549795 55.4553814,27.2629391 54.9995339,27.4781618 C54.5440643,27.6917642 54.1401171,28.0005891 53.8151695,28.3836297 C53.4719009,28.7916141 53.2060813,29.2584649 53.0307203,29.7613337 C52.8398517,30.2913807 52.7440678,30.8708801 52.7440678,31.4991354 C52.7440678,32.1120675 52.8349576,32.6832087 53.0181356,33.2125591 C53.2006144,33.7419095 53.4586017,34.2016086 53.7906992,34.5895667 C54.1227966,34.9789178 54.5178178,35.2812048 54.9743644,35.495731 C55.430911,35.7116503 55.9336017,35.8189134 56.4817373,35.8189134 C57.0298729,35.8189134 57.5318644,35.7116503 57.9891102,35.495731 C58.4443395,35.2820625 58.8480451,34.9732401 59.1727754,34.5902632 C59.5150935,34.1833381 59.7772061,33.7156792 59.945339,33.2118626 C60.1278178,32.6825122 60.2194068,32.1120675 60.2194068,31.4991354 L60.2194068,31.4991354 Z M63.8696822,28.3843262 C64.2598093,29.3357639 64.455572,30.3742658 64.455572,31.4991354 C64.455572,32.6247016 64.2598093,33.6590244 63.8696822,34.6021039 C63.4976553,35.5183432 62.9375499,36.3470269 62.2252754,37.0350263 C61.5191314,37.7141271 60.6801483,38.2434775 59.7083263,38.623774 C58.7365042,39.004767 57.6612076,39.1949153 56.4817373,39.1949153 C55.3190466,39.1949153 54.2472458,39.004767 53.2677331,38.623774 C52.286822,38.2434775 51.4443432,37.7141271 50.7381992,37.0357228 C50.0257488,36.3475998 49.4656241,35.5186503 49.0937924,34.6021039 C48.7029661,33.6590244 48.5079025,32.6247016 48.5079025,31.4991354 C48.5079025,30.3742658 48.7036653,29.3357639 49.0937924,28.3843262 C49.4839195,27.4328885 50.0320551,26.6172709 50.7381992,25.9388666 C51.4443432,25.2604622 52.286822,24.7311118 53.2677331,24.3508154 C54.2472458,23.9698224 55.3190466,23.7796741 56.4817373,23.7796741 C57.6612076,23.7796741 58.7372034,23.9698224 59.7090254,24.3508154 C60.6808475,24.7311118 61.5198305,25.2604622 62.2252754,25.9388666 C62.9314195,26.6172709 63.4795551,27.4328885 63.8696822,28.3836297 L63.8696822,28.3843262 Z M44.7457627,24.1007669 L41.8792373,34.404294 L39.0385805,24.1028565 L34.329089,24.1028565 L31.4884322,34.404294 L28.6226059,24.1028565 L24.7108475,24.1028565 L28.9218432,38.8731259 L33.9298729,38.8731259 L36.6467797,29.0919841 L39.3622881,38.8731259 L44.3458475,38.8731259 L48.5575424,24.10216 L44.7457627,24.10216 L44.7457627,24.1007669 Z M60.8248729,20.2309368 L64.9114195,20.2309368 L64.9114195,0 L60.8248729,0 L60.8248729,20.2316333 L60.8248729,20.2309368 Z M48.5407627,11.0209362 L55.1435593,11.0209362 C55.0488718,10.6523748 54.8974587,10.3006459 54.6947034,9.97825522 C54.5032621,9.67290896 54.2586914,9.40402392 53.9724788,9.1842296 C53.683179,8.96591276 53.3588445,8.79799897 53.0132415,8.68761534 C52.638437,8.5692137 52.2472317,8.5104488 51.8540466,8.51348691 C51.4610891,8.51042899 51.0701109,8.56919522 50.6955508,8.68761534 C50.0007738,8.90848042 49.4027483,9.35948492 49.0008051,9.96571797 C48.7931568,10.272184 48.6400424,10.6239234 48.5400636,11.0209362 L48.5407627,11.0209362 Z M44.004661,12.9070953 C44.004661,11.7494895 44.1913347,10.6942713 44.5653814,9.74283359 C44.9387288,8.79069937 45.4658898,7.97159926 46.1475636,7.28414024 C46.8285381,6.59807425 47.6423517,6.06872384 48.5897034,5.69608901 C49.5363559,5.32345418 50.5822881,5.13748503 51.7288983,5.13748503 C52.8419492,5.13748503 53.8683051,5.31579253 54.8065678,5.67171103 C55.7448305,6.02693302 56.5586441,6.5193682 57.2480085,7.14832007 C57.9389722,7.7792049 58.4871475,8.54945231 58.8560593,9.4078105 C59.2377966,10.2847212 59.4286653,11.236159 59.4286653,12.2621236 C59.4286653,12.5100825 59.4160805,12.7670961 59.3916102,13.0317713 C59.3664407,13.2964465 59.3370763,13.5193309 59.3042161,13.7018174 L48.2659958,13.7018174 C48.2988559,14.2311679 48.4156144,14.7117623 48.615572,15.1415113 C48.8141314,15.5719567 49.0763136,15.9355369 49.4000212,16.2343412 C49.7299926,16.5360808 50.1149407,16.7720415 50.5340466,16.9294619 C50.9879634,17.0986823 51.469397,17.182751 51.9540254,17.1774208 C52.767839,17.1774208 53.4572034,16.9830935 54.0221186,16.5944388 C54.5870339,16.2050877 54.9443008,15.6715582 55.0939195,14.9924573 L59.2552754,14.9924573 C59.1807342,15.7924834 58.9341734,16.567145 58.5323517,17.2637885 C58.1337913,17.9508157 57.5998929,18.5504578 56.9627542,19.0266647 C56.3146398,19.5149208 55.5588559,19.8917347 54.6947034,20.1564099 C53.8305508,20.4210851 52.8922881,20.5534227 51.8792161,20.5534227 C50.6836653,20.5534227 49.6034746,20.3709361 48.6400424,20.0073559 C47.6766102,19.6430793 46.8502119,19.1262661 46.1608475,18.4562199 C45.4707839,17.7854772 44.939428,16.9789144 44.5660805,16.0351383 C44.1920339,15.0920588 44.004661,14.0500743 44.004661,12.9077918 L44.004661,12.9070953 Z M39.4196186,20.2309368 L44.2787288,5.46066738 L39.9677542,5.46066738 L36.579661,16.1354363 L32.7671822,5.4613639 L28.3562288,5.4613639 L33.6641949,20.2316333 L39.4203178,20.2316333 L39.4196186,20.2309368 Z M18.4513347,10.9721803 C18.5100636,10.984021 18.5673941,10.9986478 18.6261229,11.0090955 C19.2322881,11.1170551 19.8929873,11.1706867 20.606822,11.1706867 C21.138178,11.1706867 21.5954237,11.1414331 21.977161,11.0836225 C22.3096694,11.0388535 22.6358092,10.9556395 22.9489831,10.8356636 C23.214661,10.7284005 23.4104237,10.5870082 23.5348729,10.4135763 C23.6600212,10.2394479 23.7215466,10.0451205 23.7215466,9.8298978 C23.7215466,9.6313914 23.6726059,9.44960132 23.5726271,9.28383106 C23.4706577,9.11635737 23.3296336,8.97586554 23.1615254,8.87428101 C22.9632795,8.75711595 22.7489506,8.66936158 22.5252966,8.61378489 C22.2485766,8.54428337 21.9639816,8.51080403 21.6786229,8.51418343 C21.1304873,8.51418343 20.6403814,8.61378489 20.2083051,8.81229129 C19.7802509,9.00785897 19.4046265,9.30140117 19.1120339,9.66900314 C18.8274788,10.0235286 18.6086441,10.4602427 18.4513347,10.9721803 L18.4513347,10.9721803 Z M26.500678,19.2258676 C25.9105932,19.6479549 25.2254237,19.9746198 24.4451695,20.2065589 C23.6635169,20.4378014 22.8084534,20.5548157 21.8778814,20.5548157 C20.7151907,20.5548157 19.6601695,20.3758117 18.7135169,20.0205897 C17.7668644,19.6653677 16.9565466,19.1555197 16.2839619,18.4938317 C15.610678,17.8321437 15.0954025,17.0332425 14.7388347,16.0978246 C14.3864619,15.1763369 14.2088771,14.1454967 14.2039831,13.0060003 C13.8740796,12.8036653 13.5576371,12.5803161 13.2566314,12.3373471 C12.630361,11.828821 12.0695844,11.2451289 11.5870551,10.5995454 L14.0040254,8.09209613 C14.345911,8.49189499 14.6856992,8.84572395 15.0226907,9.15706557 C15.3536212,8.45893484 15.8011477,7.82185607 16.3461864,7.27299602 C17.027161,6.59459168 17.8493644,6.06942035 18.8134958,5.69678553 C19.7762288,5.3241507 20.8396398,5.13818154 22.0030297,5.13818154 C22.8993432,5.13818154 23.7131568,5.24962373 24.4444703,5.47320463 C25.1750847,5.69608901 25.8029237,6.01160972 26.3258898,6.41698069 C26.8380529,6.80923159 27.2516541,7.31474376 27.5340254,7.89358972 C27.8171822,8.47308912 27.958411,9.12641897 27.958411,9.85497229 C27.958411,10.600242 27.7962076,11.266109 27.4725,11.8539666 C27.1480932,12.4411277 26.6747669,12.9335628 26.051822,13.3305756 C25.4288771,13.7275884 24.6605085,14.0291789 23.7467161,14.2360434 C22.8329237,14.4436045 21.7786017,14.5466886 20.5823517,14.5466886 C19.7965042,14.5466886 19.0554025,14.5000221 18.3569492,14.4087788 C18.3821186,14.5146489 18.4079873,14.620519 18.4394492,14.7201205 C18.6051483,15.2501674 18.842161,15.6973292 19.1497881,16.0609093 C19.4567161,16.425186 19.8384534,16.7023984 20.2956992,16.8925467 C20.7522458,17.0833914 21.2801059,17.1781173 21.8778814,17.1781173 C22.2274576,17.1781173 22.5504661,17.1446846 22.8497034,17.0785158 C23.1327551,17.0186968 23.4056693,16.918529 23.6600212,16.7811045 C23.8927703,16.6549179 24.0997813,16.4864851 24.2703814,16.2844902 C24.4360805,16.0859838 24.5689195,15.8624029 24.6688983,15.6137475 L28.7554449,15.6137475 C28.6336021,16.3456224 28.3666967,17.046002 27.9702966,17.6740351 C27.5853279,18.2807844 27.0863098,18.8077188 26.500678,19.2258676 L26.500678,19.2258676 Z M4.28580508,16.5080711 L12.8329449,16.5080711 L12.8329449,20.2316333 L0,20.2316333 L0,0.371938314 L4.28580508,0.371938314 L4.28580508,16.5080711 Z" id="Shape"></path>
                        </g>
                    </g>
                </g>
            </g>
        </g>
    </g>
</svg>